solid OpenSCAD_Model
  facet normal -0 0 1
    outer loop
      vertex 10 0.0625 2.25
      vertex 12 -0.0625 2.25
      vertex 12 0.0625 2.25
    endloop
  endfacet
  facet normal 0 0 1
    outer loop
      vertex 12 -0.0625 2.25
      vertex 10 0.0625 2.25
      vertex 10 -0.0625 2.25
    endloop
  endfacet
  facet normal 0 0 -1
    outer loop
      vertex 10 -0.0625 0.25
      vertex 12 0.0625 0.25
      vertex 12 -0.0625 0.25
    endloop
  endfacet
  facet normal -0 0 -1
    outer loop
      vertex 12 0.0625 0.25
      vertex 10 -0.0625 0.25
      vertex 10 0.0625 0.25
    endloop
  endfacet
  facet normal 0 -1 0
    outer loop
      vertex 10 -0.0625 0.25
      vertex 12 -0.0625 2.25
      vertex 10 -0.0625 2.25
    endloop
  endfacet
  facet normal 0 -1 -0
    outer loop
      vertex 12 -0.0625 2.25
      vertex 10 -0.0625 0.25
      vertex 12 -0.0625 0.25
    endloop
  endfacet
  facet normal 1 -0 0
    outer loop
      vertex 12 -0.0625 2.25
      vertex 12 0.0625 0.25
      vertex 12 0.0625 2.25
    endloop
  endfacet
  facet normal 1 0 0
    outer loop
      vertex 12 0.0625 0.25
      vertex 12 -0.0625 2.25
      vertex 12 -0.0625 0.25
    endloop
  endfacet
  facet normal 0 1 -0
    outer loop
      vertex 12 0.0625 0.25
      vertex 10 0.0625 2.25
      vertex 12 0.0625 2.25
    endloop
  endfacet
  facet normal 0 1 0
    outer loop
      vertex 10 0.0625 2.25
      vertex 12 0.0625 0.25
      vertex 10 0.0625 0.25
    endloop
  endfacet
  facet normal -1 0 0
    outer loop
      vertex 10 -0.0625 0.25
      vertex 10 0.0625 2.25
      vertex 10 0.0625 0.25
    endloop
  endfacet
  facet normal -1 -0 0
    outer loop
      vertex 10 0.0625 2.25
      vertex 10 -0.0625 0.25
      vertex 10 -0.0625 2.25
    endloop
  endfacet
endsolid OpenSCAD_Model
