solid OpenSCAD_Model
  facet normal 0 0 -1
    outer loop
      vertex 0 0.35 0
      vertex 0.5 0.35 0
      vertex 0 0 0
    endloop
  endfacet
  facet normal 0 0 -1
    outer loop
      vertex 0 0.69 0
      vertex 0.5 0.69 0
      vertex 0 0.35 0
    endloop
  endfacet
  facet normal 0 0 -1
    outer loop
      vertex 0 1.04 0
      vertex 0.5 1.04 0
      vertex 0 0.69 0
    endloop
  endfacet
  facet normal 0 0 -1
    outer loop
      vertex 0 1.39 0
      vertex 0.5 1.39 0
      vertex 0 1.04 0
    endloop
  endfacet
  facet normal 0 -0 -1
    outer loop
      vertex 0.02 1.74 0
      vertex 0.52 1.74 0
      vertex 0 1.39 0
    endloop
  endfacet
  facet normal 0 -0 -1
    outer loop
      vertex 0.1 2.08 0
      vertex 0.59 2.08 0
      vertex 0.02 1.74 0
    endloop
  endfacet
  facet normal 0 -0 -1
    outer loop
      vertex 0.24 2.43 0
      vertex 0.72 2.43 0
      vertex 0.1 2.08 0
    endloop
  endfacet
  facet normal 0 -0 -1
    outer loop
      vertex 0.48 2.78 0
      vertex 0.94 2.78 0
      vertex 0.24 2.43 0
    endloop
  endfacet
  facet normal 0 -0 -1
    outer loop
      vertex 0.87 3.13 0
      vertex 1.29 3.13 0
      vertex 0.48 2.78 0
    endloop
  endfacet
  facet normal 0 -0 -1
    outer loop
      vertex 2 3.47 0
      vertex 2.3 3.47 0
      vertex 0.87 3.13 0
    endloop
  endfacet
  facet normal 0 0 -1
    outer loop
      vertex 0.5 0.35 0
      vertex 1 0.35 0
      vertex 0.5 0 0
    endloop
  endfacet
  facet normal 0 0 -1
    outer loop
      vertex 0.5 0.69 0
      vertex 1 0.69 0
      vertex 0.5 0.35 0
    endloop
  endfacet
  facet normal 0 0 -1
    outer loop
      vertex 0.5 1.04 0
      vertex 1 1.04 0
      vertex 0.5 0.69 0
    endloop
  endfacet
  facet normal 0 0 -1
    outer loop
      vertex 0.5 1.39 0
      vertex 1 1.39 0
      vertex 0.5 1.04 0
    endloop
  endfacet
  facet normal 0 -0 -1
    outer loop
      vertex 0.52 1.74 0
      vertex 1.01 1.74 0
      vertex 0.5 1.39 0
    endloop
  endfacet
  facet normal 0 -0 -1
    outer loop
      vertex 0.59 2.08 0
      vertex 1.08 2.08 0
      vertex 0.52 1.74 0
    endloop
  endfacet
  facet normal 0 -0 -1
    outer loop
      vertex 0.72 2.43 0
      vertex 1.2 2.43 0
      vertex 0.59 2.08 0
    endloop
  endfacet
  facet normal 0 -0 -1
    outer loop
      vertex 0.94 2.78 0
      vertex 1.39 2.78 0
      vertex 0.72 2.43 0
    endloop
  endfacet
  facet normal 0 -0 -1
    outer loop
      vertex 1.29 3.13 0
      vertex 1.7 3.13 0
      vertex 0.94 2.78 0
    endloop
  endfacet
  facet normal 0 -0 -1
    outer loop
      vertex 2.3 3.47 0
      vertex 2.6 3.47 0
      vertex 1.29 3.13 0
    endloop
  endfacet
  facet normal 0 0 -1
    outer loop
      vertex 1 0.35 0
      vertex 1.5 0.35 0
      vertex 1 0 0
    endloop
  endfacet
  facet normal 0 0 -1
    outer loop
      vertex 1 0.69 0
      vertex 1.5 0.69 0
      vertex 1 0.35 0
    endloop
  endfacet
  facet normal 0 0 -1
    outer loop
      vertex 1 1.04 0
      vertex 1.5 1.04 0
      vertex 1 0.69 0
    endloop
  endfacet
  facet normal 0 0 -1
    outer loop
      vertex 1 1.39 0
      vertex 1.5 1.39 0
      vertex 1 1.04 0
    endloop
  endfacet
  facet normal 0 -0 -1
    outer loop
      vertex 1.01 1.74 0
      vertex 1.51 1.74 0
      vertex 1 1.39 0
    endloop
  endfacet
  facet normal 0 -0 -1
    outer loop
      vertex 1.08 2.08 0
      vertex 1.57 2.08 0
      vertex 1.01 1.74 0
    endloop
  endfacet
  facet normal 0 -0 -1
    outer loop
      vertex 1.2 2.43 0
      vertex 1.67 2.43 0
      vertex 1.08 2.08 0
    endloop
  endfacet
  facet normal 0 -0 -1
    outer loop
      vertex 1.39 2.78 0
      vertex 1.84 2.78 0
      vertex 1.2 2.43 0
    endloop
  endfacet
  facet normal 0 -0 -1
    outer loop
      vertex 1.7 3.13 0
      vertex 2.11 3.13 0
      vertex 1.39 2.78 0
    endloop
  endfacet
  facet normal 0 -0 -1
    outer loop
      vertex 2.6 3.47 0
      vertex 2.9 3.47 0
      vertex 1.7 3.13 0
    endloop
  endfacet
  facet normal 0 0 -1
    outer loop
      vertex 1.5 0.35 0
      vertex 2 0.35 0
      vertex 1.5 0 0
    endloop
  endfacet
  facet normal 0 0 -1
    outer loop
      vertex 1.5 0.69 0
      vertex 2 0.69 0
      vertex 1.5 0.35 0
    endloop
  endfacet
  facet normal 0 0 -1
    outer loop
      vertex 1.5 1.04 0
      vertex 2 1.04 0
      vertex 1.5 0.69 0
    endloop
  endfacet
  facet normal 0 0 -1
    outer loop
      vertex 1.5 1.39 0
      vertex 2 1.39 0
      vertex 1.5 1.04 0
    endloop
  endfacet
  facet normal 0 -0 -1
    outer loop
      vertex 1.51 1.74 0
      vertex 2.01 1.74 0
      vertex 1.5 1.39 0
    endloop
  endfacet
  facet normal 0 -0 -1
    outer loop
      vertex 1.57 2.08 0
      vertex 2.06 2.08 0
      vertex 1.51 1.74 0
    endloop
  endfacet
  facet normal 0 -0 -1
    outer loop
      vertex 1.67 2.43 0
      vertex 2.15 2.43 0
      vertex 1.57 2.08 0
    endloop
  endfacet
  facet normal 0 -0 -1
    outer loop
      vertex 1.84 2.78 0
      vertex 2.29 2.78 0
      vertex 1.67 2.43 0
    endloop
  endfacet
  facet normal 0 -0 -1
    outer loop
      vertex 2.11 3.13 0
      vertex 2.52 3.13 0
      vertex 1.84 2.78 0
    endloop
  endfacet
  facet normal 0 -0 -1
    outer loop
      vertex 2.9 3.47 0
      vertex 3.2 3.47 0
      vertex 2.11 3.13 0
    endloop
  endfacet
  facet normal 0 0 -1
    outer loop
      vertex 2 0.35 0
      vertex 2.5 0.35 0
      vertex 2 0 0
    endloop
  endfacet
  facet normal 0 0 -1
    outer loop
      vertex 2 0.69 0
      vertex 2.5 0.69 0
      vertex 2 0.35 0
    endloop
  endfacet
  facet normal 0 0 -1
    outer loop
      vertex 2 1.04 0
      vertex 2.5 1.04 0
      vertex 2 0.69 0
    endloop
  endfacet
  facet normal 0 0 -1
    outer loop
      vertex 2 1.39 0
      vertex 2.5 1.39 0
      vertex 2 1.04 0
    endloop
  endfacet
  facet normal 0 -0 -1
    outer loop
      vertex 2.01 1.74 0
      vertex 2.51 1.74 0
      vertex 2 1.39 0
    endloop
  endfacet
  facet normal 0 -0 -1
    outer loop
      vertex 2.06 2.08 0
      vertex 2.55 2.08 0
      vertex 2.01 1.74 0
    endloop
  endfacet
  facet normal 0 -0 -1
    outer loop
      vertex 2.15 2.43 0
      vertex 2.62 2.43 0
      vertex 2.06 2.08 0
    endloop
  endfacet
  facet normal 0 -0 -1
    outer loop
      vertex 2.29 2.78 0
      vertex 2.74 2.78 0
      vertex 2.15 2.43 0
    endloop
  endfacet
  facet normal 0 -0 -1
    outer loop
      vertex 2.52 3.13 0
      vertex 2.94 3.13 0
      vertex 2.29 2.78 0
    endloop
  endfacet
  facet normal 0 -0 -1
    outer loop
      vertex 3.2 3.47 0
      vertex 3.5 3.47 0
      vertex 2.52 3.13 0
    endloop
  endfacet
  facet normal 0 0 -1
    outer loop
      vertex 2.5 0.35 0
      vertex 3 0.35 0
      vertex 2.5 0 0
    endloop
  endfacet
  facet normal 0 0 -1
    outer loop
      vertex 2.5 0.69 0
      vertex 3 0.69 0
      vertex 2.5 0.35 0
    endloop
  endfacet
  facet normal 0 0 -1
    outer loop
      vertex 2.5 1.04 0
      vertex 3 1.04 0
      vertex 2.5 0.69 0
    endloop
  endfacet
  facet normal 0 0 -1
    outer loop
      vertex 2.5 1.39 0
      vertex 3 1.39 0
      vertex 2.5 1.04 0
    endloop
  endfacet
  facet normal 0 -0 -1
    outer loop
      vertex 2.51 1.74 0
      vertex 3.01 1.74 0
      vertex 2.5 1.39 0
    endloop
  endfacet
  facet normal 0 -0 -1
    outer loop
      vertex 2.55 2.08 0
      vertex 3.04 2.08 0
      vertex 2.51 1.74 0
    endloop
  endfacet
  facet normal 0 -0 -1
    outer loop
      vertex 2.62 2.43 0
      vertex 3.1 2.43 0
      vertex 2.55 2.08 0
    endloop
  endfacet
  facet normal 0 -0 -1
    outer loop
      vertex 2.74 2.78 0
      vertex 3.19 2.78 0
      vertex 2.62 2.43 0
    endloop
  endfacet
  facet normal 0 -0 -1
    outer loop
      vertex 2.94 3.13 0
      vertex 3.35 3.13 0
      vertex 2.74 2.78 0
    endloop
  endfacet
  facet normal 0 -0 -1
    outer loop
      vertex 3.5 3.47 0
      vertex 3.8 3.47 0
      vertex 2.94 3.13 0
    endloop
  endfacet
  facet normal 0 0 -1
    outer loop
      vertex 3 0.35 0
      vertex 3.5 0.35 0
      vertex 3 0 0
    endloop
  endfacet
  facet normal 0 0 -1
    outer loop
      vertex 3 0.69 0
      vertex 3.5 0.69 0
      vertex 3 0.35 0
    endloop
  endfacet
  facet normal 0 0 -1
    outer loop
      vertex 3 1.04 0
      vertex 3.5 1.04 0
      vertex 3 0.69 0
    endloop
  endfacet
  facet normal 0 0 -1
    outer loop
      vertex 3 1.39 0
      vertex 3.5 1.39 0
      vertex 3 1.04 0
    endloop
  endfacet
  facet normal 0 -0 -1
    outer loop
      vertex 3.01 1.74 0
      vertex 3.51 1.74 0
      vertex 3 1.39 0
    endloop
  endfacet
  facet normal 0 -0 -1
    outer loop
      vertex 3.04 2.08 0
      vertex 3.53 2.08 0
      vertex 3.01 1.74 0
    endloop
  endfacet
  facet normal 0 -0 -1
    outer loop
      vertex 3.1 2.43 0
      vertex 3.57 2.43 0
      vertex 3.04 2.08 0
    endloop
  endfacet
  facet normal 0 -0 -1
    outer loop
      vertex 3.19 2.78 0
      vertex 3.65 2.78 0
      vertex 3.1 2.43 0
    endloop
  endfacet
  facet normal 0 -0 -1
    outer loop
      vertex 3.35 3.13 0
      vertex 3.76 3.13 0
      vertex 3.19 2.78 0
    endloop
  endfacet
  facet normal 0 -0 -1
    outer loop
      vertex 3.8 3.47 0
      vertex 4.1 3.47 0
      vertex 3.35 3.13 0
    endloop
  endfacet
  facet normal 0 0 -1
    outer loop
      vertex 3.5 0.35 0
      vertex 4 0.35 0
      vertex 3.5 0 0
    endloop
  endfacet
  facet normal 0 0 -1
    outer loop
      vertex 3.5 0.69 0
      vertex 4 0.69 0
      vertex 3.5 0.35 0
    endloop
  endfacet
  facet normal 0 0 -1
    outer loop
      vertex 3.5 1.04 0
      vertex 4 1.04 0
      vertex 3.5 0.69 0
    endloop
  endfacet
  facet normal 0 0 -1
    outer loop
      vertex 3.5 1.39 0
      vertex 4 1.39 0
      vertex 3.5 1.04 0
    endloop
  endfacet
  facet normal 0 -0 -1
    outer loop
      vertex 3.51 1.74 0
      vertex 4 1.74 0
      vertex 3.5 1.39 0
    endloop
  endfacet
  facet normal 0 -0 -1
    outer loop
      vertex 3.53 2.08 0
      vertex 4.02 2.08 0
      vertex 3.51 1.74 0
    endloop
  endfacet
  facet normal 0 -0 -1
    outer loop
      vertex 3.57 2.43 0
      vertex 4.05 2.43 0
      vertex 3.53 2.08 0
    endloop
  endfacet
  facet normal 0 -0 -1
    outer loop
      vertex 3.65 2.78 0
      vertex 4.1 2.78 0
      vertex 3.57 2.43 0
    endloop
  endfacet
  facet normal 0 -0 -1
    outer loop
      vertex 3.76 3.13 0
      vertex 4.17 3.13 0
      vertex 3.65 2.78 0
    endloop
  endfacet
  facet normal 0 -0 -1
    outer loop
      vertex 4.1 3.47 0
      vertex 4.4 3.47 0
      vertex 3.76 3.13 0
    endloop
  endfacet
  facet normal 0 0 -1
    outer loop
      vertex 4 0.35 0
      vertex 4.5 0.35 0
      vertex 4 0 0
    endloop
  endfacet
  facet normal 0 0 -1
    outer loop
      vertex 4 0.69 0
      vertex 4.5 0.69 0
      vertex 4 0.35 0
    endloop
  endfacet
  facet normal 0 0 -1
    outer loop
      vertex 4 1.04 0
      vertex 4.5 1.04 0
      vertex 4 0.69 0
    endloop
  endfacet
  facet normal 0 0 -1
    outer loop
      vertex 4 1.39 0
      vertex 4.5 1.39 0
      vertex 4 1.04 0
    endloop
  endfacet
  facet normal 0 0 -1
    outer loop
      vertex 4 1.74 0
      vertex 4.5 1.74 0
      vertex 4 1.39 0
    endloop
  endfacet
  facet normal 0 -0 -1
    outer loop
      vertex 4.02 2.08 0
      vertex 4.51 2.08 0
      vertex 4 1.74 0
    endloop
  endfacet
  facet normal 0 -0 -1
    outer loop
      vertex 4.05 2.43 0
      vertex 4.52 2.43 0
      vertex 4.02 2.08 0
    endloop
  endfacet
  facet normal 0 -0 -1
    outer loop
      vertex 4.1 2.78 0
      vertex 4.55 2.78 0
      vertex 4.05 2.43 0
    endloop
  endfacet
  facet normal 0 -0 -1
    outer loop
      vertex 4.17 3.13 0
      vertex 4.59 3.13 0
      vertex 4.1 2.78 0
    endloop
  endfacet
  facet normal 0 -0 -1
    outer loop
      vertex 4.4 3.47 0
      vertex 4.7 3.47 0
      vertex 4.17 3.13 0
    endloop
  endfacet
  facet normal 0 0 -1
    outer loop
      vertex 4.5 0.35 0
      vertex 5 0.35 0
      vertex 4.5 0 0
    endloop
  endfacet
  facet normal 0 0 -1
    outer loop
      vertex 4.5 0.69 0
      vertex 5 0.69 0
      vertex 4.5 0.35 0
    endloop
  endfacet
  facet normal 0 0 -1
    outer loop
      vertex 4.5 1.04 0
      vertex 5 1.04 0
      vertex 4.5 0.69 0
    endloop
  endfacet
  facet normal 0 0 -1
    outer loop
      vertex 4.5 1.39 0
      vertex 5 1.39 0
      vertex 4.5 1.04 0
    endloop
  endfacet
  facet normal 0 0 -1
    outer loop
      vertex 4.5 1.74 0
      vertex 5 1.74 0
      vertex 4.5 1.39 0
    endloop
  endfacet
  facet normal 0 -0 -1
    outer loop
      vertex 4.51 2.08 0
      vertex 5 2.08 0
      vertex 4.5 1.74 0
    endloop
  endfacet
  facet normal 0 -0 -1
    outer loop
      vertex 4.52 2.43 0
      vertex 5 2.43 0
      vertex 4.51 2.08 0
    endloop
  endfacet
  facet normal 0 -0 -1
    outer loop
      vertex 4.55 2.78 0
      vertex 5 2.78 0
      vertex 4.52 2.43 0
    endloop
  endfacet
  facet normal 0 -0 -1
    outer loop
      vertex 4.59 3.13 0
      vertex 5 3.13 0
      vertex 4.55 2.78 0
    endloop
  endfacet
  facet normal 0 -0 -1
    outer loop
      vertex 4.7 3.47 0
      vertex 5 3.47 0
      vertex 4.59 3.13 0
    endloop
  endfacet
  facet normal 0 -0 -1
    outer loop
      vertex 0.5 0.35 0
      vertex 0.5 0 0
      vertex 0 0 0
    endloop
  endfacet
  facet normal 0 -0 -1
    outer loop
      vertex 0.5 0.69 0
      vertex 0.5 0.35 0
      vertex 0 0.35 0
    endloop
  endfacet
  facet normal 0 -0 -1
    outer loop
      vertex 0.5 1.04 0
      vertex 0.5 0.69 0
      vertex 0 0.69 0
    endloop
  endfacet
  facet normal 0 -0 -1
    outer loop
      vertex 0.5 1.39 0
      vertex 0.5 1.04 0
      vertex 0 1.04 0
    endloop
  endfacet
  facet normal 0 0 -1
    outer loop
      vertex 0.52 1.74 0
      vertex 0.5 1.39 0
      vertex 0 1.39 0
    endloop
  endfacet
  facet normal 0 0 -1
    outer loop
      vertex 0.59 2.08 0
      vertex 0.52 1.74 0
      vertex 0.02 1.74 0
    endloop
  endfacet
  facet normal 0 0 -1
    outer loop
      vertex 0.72 2.43 0
      vertex 0.59 2.08 0
      vertex 0.1 2.08 0
    endloop
  endfacet
  facet normal 0 0 -1
    outer loop
      vertex 0.94 2.78 0
      vertex 0.72 2.43 0
      vertex 0.24 2.43 0
    endloop
  endfacet
  facet normal 0 0 -1
    outer loop
      vertex 1.29 3.13 0
      vertex 0.94 2.78 0
      vertex 0.48 2.78 0
    endloop
  endfacet
  facet normal 0 0 -1
    outer loop
      vertex 2.3 3.47 0
      vertex 1.29 3.13 0
      vertex 0.87 3.13 0
    endloop
  endfacet
  facet normal 0 -0 -1
    outer loop
      vertex 1 0.35 0
      vertex 1 0 0
      vertex 0.5 0 0
    endloop
  endfacet
  facet normal 0 -0 -1
    outer loop
      vertex 1 0.69 0
      vertex 1 0.35 0
      vertex 0.5 0.35 0
    endloop
  endfacet
  facet normal 0 -0 -1
    outer loop
      vertex 1 1.04 0
      vertex 1 0.69 0
      vertex 0.5 0.69 0
    endloop
  endfacet
  facet normal 0 -0 -1
    outer loop
      vertex 1 1.39 0
      vertex 1 1.04 0
      vertex 0.5 1.04 0
    endloop
  endfacet
  facet normal 0 0 -1
    outer loop
      vertex 1.01 1.74 0
      vertex 1 1.39 0
      vertex 0.5 1.39 0
    endloop
  endfacet
  facet normal 0 0 -1
    outer loop
      vertex 1.08 2.08 0
      vertex 1.01 1.74 0
      vertex 0.52 1.74 0
    endloop
  endfacet
  facet normal 0 0 -1
    outer loop
      vertex 1.2 2.43 0
      vertex 1.08 2.08 0
      vertex 0.59 2.08 0
    endloop
  endfacet
  facet normal 0 0 -1
    outer loop
      vertex 1.39 2.78 0
      vertex 1.2 2.43 0
      vertex 0.72 2.43 0
    endloop
  endfacet
  facet normal 0 0 -1
    outer loop
      vertex 1.7 3.13 0
      vertex 1.39 2.78 0
      vertex 0.94 2.78 0
    endloop
  endfacet
  facet normal 0 0 -1
    outer loop
      vertex 2.6 3.47 0
      vertex 1.7 3.13 0
      vertex 1.29 3.13 0
    endloop
  endfacet
  facet normal 0 -0 -1
    outer loop
      vertex 1.5 0.35 0
      vertex 1.5 0 0
      vertex 1 0 0
    endloop
  endfacet
  facet normal 0 -0 -1
    outer loop
      vertex 1.5 0.69 0
      vertex 1.5 0.35 0
      vertex 1 0.35 0
    endloop
  endfacet
  facet normal 0 -0 -1
    outer loop
      vertex 1.5 1.04 0
      vertex 1.5 0.69 0
      vertex 1 0.69 0
    endloop
  endfacet
  facet normal 0 -0 -1
    outer loop
      vertex 1.5 1.39 0
      vertex 1.5 1.04 0
      vertex 1 1.04 0
    endloop
  endfacet
  facet normal 0 0 -1
    outer loop
      vertex 1.51 1.74 0
      vertex 1.5 1.39 0
      vertex 1 1.39 0
    endloop
  endfacet
  facet normal 0 0 -1
    outer loop
      vertex 1.57 2.08 0
      vertex 1.51 1.74 0
      vertex 1.01 1.74 0
    endloop
  endfacet
  facet normal 0 0 -1
    outer loop
      vertex 1.67 2.43 0
      vertex 1.57 2.08 0
      vertex 1.08 2.08 0
    endloop
  endfacet
  facet normal 0 0 -1
    outer loop
      vertex 1.84 2.78 0
      vertex 1.67 2.43 0
      vertex 1.2 2.43 0
    endloop
  endfacet
  facet normal 0 0 -1
    outer loop
      vertex 2.11 3.13 0
      vertex 1.84 2.78 0
      vertex 1.39 2.78 0
    endloop
  endfacet
  facet normal 0 0 -1
    outer loop
      vertex 2.9 3.47 0
      vertex 2.11 3.13 0
      vertex 1.7 3.13 0
    endloop
  endfacet
  facet normal 0 -0 -1
    outer loop
      vertex 2 0.35 0
      vertex 2 0 0
      vertex 1.5 0 0
    endloop
  endfacet
  facet normal 0 -0 -1
    outer loop
      vertex 2 0.69 0
      vertex 2 0.35 0
      vertex 1.5 0.35 0
    endloop
  endfacet
  facet normal 0 -0 -1
    outer loop
      vertex 2 1.04 0
      vertex 2 0.69 0
      vertex 1.5 0.69 0
    endloop
  endfacet
  facet normal 0 -0 -1
    outer loop
      vertex 2 1.39 0
      vertex 2 1.04 0
      vertex 1.5 1.04 0
    endloop
  endfacet
  facet normal 0 0 -1
    outer loop
      vertex 2.01 1.74 0
      vertex 2 1.39 0
      vertex 1.5 1.39 0
    endloop
  endfacet
  facet normal 0 0 -1
    outer loop
      vertex 2.06 2.08 0
      vertex 2.01 1.74 0
      vertex 1.51 1.74 0
    endloop
  endfacet
  facet normal 0 0 -1
    outer loop
      vertex 2.15 2.43 0
      vertex 2.06 2.08 0
      vertex 1.57 2.08 0
    endloop
  endfacet
  facet normal 0 0 -1
    outer loop
      vertex 2.29 2.78 0
      vertex 2.15 2.43 0
      vertex 1.67 2.43 0
    endloop
  endfacet
  facet normal 0 0 -1
    outer loop
      vertex 2.52 3.13 0
      vertex 2.29 2.78 0
      vertex 1.84 2.78 0
    endloop
  endfacet
  facet normal 0 0 -1
    outer loop
      vertex 3.2 3.47 0
      vertex 2.52 3.13 0
      vertex 2.11 3.13 0
    endloop
  endfacet
  facet normal 0 -0 -1
    outer loop
      vertex 2.5 0.35 0
      vertex 2.5 0 0
      vertex 2 0 0
    endloop
  endfacet
  facet normal 0 -0 -1
    outer loop
      vertex 2.5 0.69 0
      vertex 2.5 0.35 0
      vertex 2 0.35 0
    endloop
  endfacet
  facet normal 0 -0 -1
    outer loop
      vertex 2.5 1.04 0
      vertex 2.5 0.69 0
      vertex 2 0.69 0
    endloop
  endfacet
  facet normal 0 -0 -1
    outer loop
      vertex 2.5 1.39 0
      vertex 2.5 1.04 0
      vertex 2 1.04 0
    endloop
  endfacet
  facet normal 0 0 -1
    outer loop
      vertex 2.51 1.74 0
      vertex 2.5 1.39 0
      vertex 2 1.39 0
    endloop
  endfacet
  facet normal 0 0 -1
    outer loop
      vertex 2.55 2.08 0
      vertex 2.51 1.74 0
      vertex 2.01 1.74 0
    endloop
  endfacet
  facet normal 0 0 -1
    outer loop
      vertex 2.62 2.43 0
      vertex 2.55 2.08 0
      vertex 2.06 2.08 0
    endloop
  endfacet
  facet normal 0 0 -1
    outer loop
      vertex 2.74 2.78 0
      vertex 2.62 2.43 0
      vertex 2.15 2.43 0
    endloop
  endfacet
  facet normal 0 0 -1
    outer loop
      vertex 2.94 3.13 0
      vertex 2.74 2.78 0
      vertex 2.29 2.78 0
    endloop
  endfacet
  facet normal 0 0 -1
    outer loop
      vertex 3.5 3.47 0
      vertex 2.94 3.13 0
      vertex 2.52 3.13 0
    endloop
  endfacet
  facet normal 0 -0 -1
    outer loop
      vertex 3 0.35 0
      vertex 3 0 0
      vertex 2.5 0 0
    endloop
  endfacet
  facet normal 0 -0 -1
    outer loop
      vertex 3 0.69 0
      vertex 3 0.35 0
      vertex 2.5 0.35 0
    endloop
  endfacet
  facet normal 0 -0 -1
    outer loop
      vertex 3 1.04 0
      vertex 3 0.69 0
      vertex 2.5 0.69 0
    endloop
  endfacet
  facet normal 0 -0 -1
    outer loop
      vertex 3 1.39 0
      vertex 3 1.04 0
      vertex 2.5 1.04 0
    endloop
  endfacet
  facet normal 0 0 -1
    outer loop
      vertex 3.01 1.74 0
      vertex 3 1.39 0
      vertex 2.5 1.39 0
    endloop
  endfacet
  facet normal 0 0 -1
    outer loop
      vertex 3.04 2.08 0
      vertex 3.01 1.74 0
      vertex 2.51 1.74 0
    endloop
  endfacet
  facet normal 0 0 -1
    outer loop
      vertex 3.1 2.43 0
      vertex 3.04 2.08 0
      vertex 2.55 2.08 0
    endloop
  endfacet
  facet normal 0 0 -1
    outer loop
      vertex 3.19 2.78 0
      vertex 3.1 2.43 0
      vertex 2.62 2.43 0
    endloop
  endfacet
  facet normal 0 0 -1
    outer loop
      vertex 3.35 3.13 0
      vertex 3.19 2.78 0
      vertex 2.74 2.78 0
    endloop
  endfacet
  facet normal 0 0 -1
    outer loop
      vertex 3.8 3.47 0
      vertex 3.35 3.13 0
      vertex 2.94 3.13 0
    endloop
  endfacet
  facet normal 0 -0 -1
    outer loop
      vertex 3.5 0.35 0
      vertex 3.5 0 0
      vertex 3 0 0
    endloop
  endfacet
  facet normal 0 -0 -1
    outer loop
      vertex 3.5 0.69 0
      vertex 3.5 0.35 0
      vertex 3 0.35 0
    endloop
  endfacet
  facet normal 0 -0 -1
    outer loop
      vertex 3.5 1.04 0
      vertex 3.5 0.69 0
      vertex 3 0.69 0
    endloop
  endfacet
  facet normal 0 -0 -1
    outer loop
      vertex 3.5 1.39 0
      vertex 3.5 1.04 0
      vertex 3 1.04 0
    endloop
  endfacet
  facet normal 0 0 -1
    outer loop
      vertex 3.51 1.74 0
      vertex 3.5 1.39 0
      vertex 3 1.39 0
    endloop
  endfacet
  facet normal 0 0 -1
    outer loop
      vertex 3.53 2.08 0
      vertex 3.51 1.74 0
      vertex 3.01 1.74 0
    endloop
  endfacet
  facet normal 0 0 -1
    outer loop
      vertex 3.57 2.43 0
      vertex 3.53 2.08 0
      vertex 3.04 2.08 0
    endloop
  endfacet
  facet normal 0 0 -1
    outer loop
      vertex 3.65 2.78 0
      vertex 3.57 2.43 0
      vertex 3.1 2.43 0
    endloop
  endfacet
  facet normal 0 0 -1
    outer loop
      vertex 3.76 3.13 0
      vertex 3.65 2.78 0
      vertex 3.19 2.78 0
    endloop
  endfacet
  facet normal 0 0 -1
    outer loop
      vertex 4.1 3.47 0
      vertex 3.76 3.13 0
      vertex 3.35 3.13 0
    endloop
  endfacet
  facet normal 0 -0 -1
    outer loop
      vertex 4 0.35 0
      vertex 4 0 0
      vertex 3.5 0 0
    endloop
  endfacet
  facet normal 0 -0 -1
    outer loop
      vertex 4 0.69 0
      vertex 4 0.35 0
      vertex 3.5 0.35 0
    endloop
  endfacet
  facet normal 0 -0 -1
    outer loop
      vertex 4 1.04 0
      vertex 4 0.69 0
      vertex 3.5 0.69 0
    endloop
  endfacet
  facet normal 0 -0 -1
    outer loop
      vertex 4 1.39 0
      vertex 4 1.04 0
      vertex 3.5 1.04 0
    endloop
  endfacet
  facet normal 0 -0 -1
    outer loop
      vertex 4 1.74 0
      vertex 4 1.39 0
      vertex 3.5 1.39 0
    endloop
  endfacet
  facet normal 0 0 -1
    outer loop
      vertex 4.02 2.08 0
      vertex 4 1.74 0
      vertex 3.51 1.74 0
    endloop
  endfacet
  facet normal 0 0 -1
    outer loop
      vertex 4.05 2.43 0
      vertex 4.02 2.08 0
      vertex 3.53 2.08 0
    endloop
  endfacet
  facet normal 0 0 -1
    outer loop
      vertex 4.1 2.78 0
      vertex 4.05 2.43 0
      vertex 3.57 2.43 0
    endloop
  endfacet
  facet normal 0 0 -1
    outer loop
      vertex 4.17 3.13 0
      vertex 4.1 2.78 0
      vertex 3.65 2.78 0
    endloop
  endfacet
  facet normal 0 0 -1
    outer loop
      vertex 4.4 3.47 0
      vertex 4.17 3.13 0
      vertex 3.76 3.13 0
    endloop
  endfacet
  facet normal 0 -0 -1
    outer loop
      vertex 4.5 0.35 0
      vertex 4.5 0 0
      vertex 4 0 0
    endloop
  endfacet
  facet normal 0 -0 -1
    outer loop
      vertex 4.5 0.69 0
      vertex 4.5 0.35 0
      vertex 4 0.35 0
    endloop
  endfacet
  facet normal 0 -0 -1
    outer loop
      vertex 4.5 1.04 0
      vertex 4.5 0.69 0
      vertex 4 0.69 0
    endloop
  endfacet
  facet normal 0 -0 -1
    outer loop
      vertex 4.5 1.39 0
      vertex 4.5 1.04 0
      vertex 4 1.04 0
    endloop
  endfacet
  facet normal 0 -0 -1
    outer loop
      vertex 4.5 1.74 0
      vertex 4.5 1.39 0
      vertex 4 1.39 0
    endloop
  endfacet
  facet normal 0 0 -1
    outer loop
      vertex 4.51 2.08 0
      vertex 4.5 1.74 0
      vertex 4 1.74 0
    endloop
  endfacet
  facet normal 0 0 -1
    outer loop
      vertex 4.52 2.43 0
      vertex 4.51 2.08 0
      vertex 4.02 2.08 0
    endloop
  endfacet
  facet normal 0 0 -1
    outer loop
      vertex 4.55 2.78 0
      vertex 4.52 2.43 0
      vertex 4.05 2.43 0
    endloop
  endfacet
  facet normal 0 0 -1
    outer loop
      vertex 4.59 3.13 0
      vertex 4.55 2.78 0
      vertex 4.1 2.78 0
    endloop
  endfacet
  facet normal 0 0 -1
    outer loop
      vertex 4.7 3.47 0
      vertex 4.59 3.13 0
      vertex 4.17 3.13 0
    endloop
  endfacet
  facet normal 0 -0 -1
    outer loop
      vertex 5 0.35 0
      vertex 5 0 0
      vertex 4.5 0 0
    endloop
  endfacet
  facet normal 0 -0 -1
    outer loop
      vertex 5 0.69 0
      vertex 5 0.35 0
      vertex 4.5 0.35 0
    endloop
  endfacet
  facet normal 0 -0 -1
    outer loop
      vertex 5 1.04 0
      vertex 5 0.69 0
      vertex 4.5 0.69 0
    endloop
  endfacet
  facet normal 0 -0 -1
    outer loop
      vertex 5 1.39 0
      vertex 5 1.04 0
      vertex 4.5 1.04 0
    endloop
  endfacet
  facet normal 0 -0 -1
    outer loop
      vertex 5 1.74 0
      vertex 5 1.39 0
      vertex 4.5 1.39 0
    endloop
  endfacet
  facet normal 0 -0 -1
    outer loop
      vertex 5 2.08 0
      vertex 5 1.74 0
      vertex 4.5 1.74 0
    endloop
  endfacet
  facet normal 0 -0 -1
    outer loop
      vertex 5 2.43 0
      vertex 5 2.08 0
      vertex 4.51 2.08 0
    endloop
  endfacet
  facet normal 0 -0 -1
    outer loop
      vertex 5 2.78 0
      vertex 5 2.43 0
      vertex 4.52 2.43 0
    endloop
  endfacet
  facet normal 0 -0 -1
    outer loop
      vertex 5 3.13 0
      vertex 5 2.78 0
      vertex 4.55 2.78 0
    endloop
  endfacet
  facet normal 0 -0 -1
    outer loop
      vertex 5 3.47 0
      vertex 5 3.13 0
      vertex 4.59 3.13 0
    endloop
  endfacet
  facet normal 0 0 1
    outer loop
      vertex 0 0 -0.001
      vertex 0.5 0.35 -0.001
      vertex 0 0.35 -0.001
    endloop
  endfacet
  facet normal 0 0 1
    outer loop
      vertex 0 0.35 -0.001
      vertex 0.5 0.69 -0.001
      vertex 0 0.69 -0.001
    endloop
  endfacet
  facet normal 0 0 1
    outer loop
      vertex 0 0.69 -0.001
      vertex 0.5 1.04 -0.001
      vertex 0 1.04 -0.001
    endloop
  endfacet
  facet normal 0 0 1
    outer loop
      vertex 0 1.04 -0.001
      vertex 0.5 1.39 -0.001
      vertex 0 1.39 -0.001
    endloop
  endfacet
  facet normal 0 0 1
    outer loop
      vertex 0 1.39 -0.001
      vertex 0.52 1.74 -0.001
      vertex 0.02 1.74 -0.001
    endloop
  endfacet
  facet normal 0 0 1
    outer loop
      vertex 0.02 1.74 -0.001
      vertex 0.59 2.08 -0.001
      vertex 0.1 2.08 -0.001
    endloop
  endfacet
  facet normal 0 0 1
    outer loop
      vertex 0.1 2.08 -0.001
      vertex 0.72 2.43 -0.001
      vertex 0.24 2.43 -0.001
    endloop
  endfacet
  facet normal 0 0 1
    outer loop
      vertex 0.24 2.43 -0.001
      vertex 0.94 2.78 -0.001
      vertex 0.48 2.78 -0.001
    endloop
  endfacet
  facet normal 0 0 1
    outer loop
      vertex 0.48 2.78 -0.001
      vertex 1.29 3.13 -0.001
      vertex 0.87 3.13 -0.001
    endloop
  endfacet
  facet normal 0 0 1
    outer loop
      vertex 0.87 3.13 -0.001
      vertex 2.3 3.47 -0.001
      vertex 2 3.47 -0.001
    endloop
  endfacet
  facet normal 0 0 1
    outer loop
      vertex 0.5 0 -0.001
      vertex 1 0.35 -0.001
      vertex 0.5 0.35 -0.001
    endloop
  endfacet
  facet normal 0 0 1
    outer loop
      vertex 0.5 0.35 -0.001
      vertex 1 0.69 -0.001
      vertex 0.5 0.69 -0.001
    endloop
  endfacet
  facet normal 0 0 1
    outer loop
      vertex 0.5 0.69 -0.001
      vertex 1 1.04 -0.001
      vertex 0.5 1.04 -0.001
    endloop
  endfacet
  facet normal 0 0 1
    outer loop
      vertex 0.5 1.04 -0.001
      vertex 1 1.39 -0.001
      vertex 0.5 1.39 -0.001
    endloop
  endfacet
  facet normal 0 0 1
    outer loop
      vertex 0.5 1.39 -0.001
      vertex 1.01 1.74 -0.001
      vertex 0.52 1.74 -0.001
    endloop
  endfacet
  facet normal 0 0 1
    outer loop
      vertex 0.52 1.74 -0.001
      vertex 1.08 2.08 -0.001
      vertex 0.59 2.08 -0.001
    endloop
  endfacet
  facet normal 0 0 1
    outer loop
      vertex 0.59 2.08 -0.001
      vertex 1.2 2.43 -0.001
      vertex 0.72 2.43 -0.001
    endloop
  endfacet
  facet normal 0 0 1
    outer loop
      vertex 0.72 2.43 -0.001
      vertex 1.39 2.78 -0.001
      vertex 0.94 2.78 -0.001
    endloop
  endfacet
  facet normal 0 0 1
    outer loop
      vertex 0.94 2.78 -0.001
      vertex 1.7 3.13 -0.001
      vertex 1.29 3.13 -0.001
    endloop
  endfacet
  facet normal 0 0 1
    outer loop
      vertex 1.29 3.13 -0.001
      vertex 2.6 3.47 -0.001
      vertex 2.3 3.47 -0.001
    endloop
  endfacet
  facet normal 0 0 1
    outer loop
      vertex 1 0 -0.001
      vertex 1.5 0.35 -0.001
      vertex 1 0.35 -0.001
    endloop
  endfacet
  facet normal 0 0 1
    outer loop
      vertex 1 0.35 -0.001
      vertex 1.5 0.69 -0.001
      vertex 1 0.69 -0.001
    endloop
  endfacet
  facet normal 0 0 1
    outer loop
      vertex 1 0.69 -0.001
      vertex 1.5 1.04 -0.001
      vertex 1 1.04 -0.001
    endloop
  endfacet
  facet normal 0 0 1
    outer loop
      vertex 1 1.04 -0.001
      vertex 1.5 1.39 -0.001
      vertex 1 1.39 -0.001
    endloop
  endfacet
  facet normal 0 0 1
    outer loop
      vertex 1 1.39 -0.001
      vertex 1.51 1.74 -0.001
      vertex 1.01 1.74 -0.001
    endloop
  endfacet
  facet normal 0 0 1
    outer loop
      vertex 1.01 1.74 -0.001
      vertex 1.57 2.08 -0.001
      vertex 1.08 2.08 -0.001
    endloop
  endfacet
  facet normal 0 0 1
    outer loop
      vertex 1.08 2.08 -0.001
      vertex 1.67 2.43 -0.001
      vertex 1.2 2.43 -0.001
    endloop
  endfacet
  facet normal 0 0 1
    outer loop
      vertex 1.2 2.43 -0.001
      vertex 1.84 2.78 -0.001
      vertex 1.39 2.78 -0.001
    endloop
  endfacet
  facet normal 0 0 1
    outer loop
      vertex 1.39 2.78 -0.001
      vertex 2.11 3.13 -0.001
      vertex 1.7 3.13 -0.001
    endloop
  endfacet
  facet normal 0 0 1
    outer loop
      vertex 1.7 3.13 -0.001
      vertex 2.9 3.47 -0.001
      vertex 2.6 3.47 -0.001
    endloop
  endfacet
  facet normal 0 0 1
    outer loop
      vertex 1.5 0 -0.001
      vertex 2 0.35 -0.001
      vertex 1.5 0.35 -0.001
    endloop
  endfacet
  facet normal 0 0 1
    outer loop
      vertex 1.5 0.35 -0.001
      vertex 2 0.69 -0.001
      vertex 1.5 0.69 -0.001
    endloop
  endfacet
  facet normal 0 0 1
    outer loop
      vertex 1.5 0.69 -0.001
      vertex 2 1.04 -0.001
      vertex 1.5 1.04 -0.001
    endloop
  endfacet
  facet normal 0 0 1
    outer loop
      vertex 1.5 1.04 -0.001
      vertex 2 1.39 -0.001
      vertex 1.5 1.39 -0.001
    endloop
  endfacet
  facet normal 0 0 1
    outer loop
      vertex 1.5 1.39 -0.001
      vertex 2.01 1.74 -0.001
      vertex 1.51 1.74 -0.001
    endloop
  endfacet
  facet normal 0 0 1
    outer loop
      vertex 1.51 1.74 -0.001
      vertex 2.06 2.08 -0.001
      vertex 1.57 2.08 -0.001
    endloop
  endfacet
  facet normal 0 0 1
    outer loop
      vertex 1.57 2.08 -0.001
      vertex 2.15 2.43 -0.001
      vertex 1.67 2.43 -0.001
    endloop
  endfacet
  facet normal 0 0 1
    outer loop
      vertex 1.67 2.43 -0.001
      vertex 2.29 2.78 -0.001
      vertex 1.84 2.78 -0.001
    endloop
  endfacet
  facet normal 0 0 1
    outer loop
      vertex 1.84 2.78 -0.001
      vertex 2.52 3.13 -0.001
      vertex 2.11 3.13 -0.001
    endloop
  endfacet
  facet normal 0 0 1
    outer loop
      vertex 2.11 3.13 -0.001
      vertex 3.2 3.47 -0.001
      vertex 2.9 3.47 -0.001
    endloop
  endfacet
  facet normal 0 0 1
    outer loop
      vertex 2 0 -0.001
      vertex 2.5 0.35 -0.001
      vertex 2 0.35 -0.001
    endloop
  endfacet
  facet normal 0 0 1
    outer loop
      vertex 2 0.35 -0.001
      vertex 2.5 0.69 -0.001
      vertex 2 0.69 -0.001
    endloop
  endfacet
  facet normal 0 0 1
    outer loop
      vertex 2 0.69 -0.001
      vertex 2.5 1.04 -0.001
      vertex 2 1.04 -0.001
    endloop
  endfacet
  facet normal 0 0 1
    outer loop
      vertex 2 1.04 -0.001
      vertex 2.5 1.39 -0.001
      vertex 2 1.39 -0.001
    endloop
  endfacet
  facet normal 0 0 1
    outer loop
      vertex 2 1.39 -0.001
      vertex 2.51 1.74 -0.001
      vertex 2.01 1.74 -0.001
    endloop
  endfacet
  facet normal 0 0 1
    outer loop
      vertex 2.01 1.74 -0.001
      vertex 2.55 2.08 -0.001
      vertex 2.06 2.08 -0.001
    endloop
  endfacet
  facet normal 0 0 1
    outer loop
      vertex 2.06 2.08 -0.001
      vertex 2.62 2.43 -0.001
      vertex 2.15 2.43 -0.001
    endloop
  endfacet
  facet normal 0 0 1
    outer loop
      vertex 2.15 2.43 -0.001
      vertex 2.74 2.78 -0.001
      vertex 2.29 2.78 -0.001
    endloop
  endfacet
  facet normal 0 0 1
    outer loop
      vertex 2.29 2.78 -0.001
      vertex 2.94 3.13 -0.001
      vertex 2.52 3.13 -0.001
    endloop
  endfacet
  facet normal 0 0 1
    outer loop
      vertex 2.52 3.13 -0.001
      vertex 3.5 3.47 -0.001
      vertex 3.2 3.47 -0.001
    endloop
  endfacet
  facet normal 0 0 1
    outer loop
      vertex 2.5 0 -0.001
      vertex 3 0.35 -0.001
      vertex 2.5 0.35 -0.001
    endloop
  endfacet
  facet normal 0 0 1
    outer loop
      vertex 2.5 0.35 -0.001
      vertex 3 0.69 -0.001
      vertex 2.5 0.69 -0.001
    endloop
  endfacet
  facet normal 0 0 1
    outer loop
      vertex 2.5 0.69 -0.001
      vertex 3 1.04 -0.001
      vertex 2.5 1.04 -0.001
    endloop
  endfacet
  facet normal 0 0 1
    outer loop
      vertex 2.5 1.04 -0.001
      vertex 3 1.39 -0.001
      vertex 2.5 1.39 -0.001
    endloop
  endfacet
  facet normal 0 0 1
    outer loop
      vertex 2.5 1.39 -0.001
      vertex 3.01 1.74 -0.001
      vertex 2.51 1.74 -0.001
    endloop
  endfacet
  facet normal 0 0 1
    outer loop
      vertex 2.51 1.74 -0.001
      vertex 3.04 2.08 -0.001
      vertex 2.55 2.08 -0.001
    endloop
  endfacet
  facet normal 0 0 1
    outer loop
      vertex 2.55 2.08 -0.001
      vertex 3.1 2.43 -0.001
      vertex 2.62 2.43 -0.001
    endloop
  endfacet
  facet normal 0 0 1
    outer loop
      vertex 2.62 2.43 -0.001
      vertex 3.19 2.78 -0.001
      vertex 2.74 2.78 -0.001
    endloop
  endfacet
  facet normal 0 0 1
    outer loop
      vertex 2.74 2.78 -0.001
      vertex 3.35 3.13 -0.001
      vertex 2.94 3.13 -0.001
    endloop
  endfacet
  facet normal 0 0 1
    outer loop
      vertex 2.94 3.13 -0.001
      vertex 3.8 3.47 -0.001
      vertex 3.5 3.47 -0.001
    endloop
  endfacet
  facet normal 0 0 1
    outer loop
      vertex 3 0 -0.001
      vertex 3.5 0.35 -0.001
      vertex 3 0.35 -0.001
    endloop
  endfacet
  facet normal 0 0 1
    outer loop
      vertex 3 0.35 -0.001
      vertex 3.5 0.69 -0.001
      vertex 3 0.69 -0.001
    endloop
  endfacet
  facet normal 0 0 1
    outer loop
      vertex 3 0.69 -0.001
      vertex 3.5 1.04 -0.001
      vertex 3 1.04 -0.001
    endloop
  endfacet
  facet normal 0 0 1
    outer loop
      vertex 3 1.04 -0.001
      vertex 3.5 1.39 -0.001
      vertex 3 1.39 -0.001
    endloop
  endfacet
  facet normal 0 0 1
    outer loop
      vertex 3 1.39 -0.001
      vertex 3.51 1.74 -0.001
      vertex 3.01 1.74 -0.001
    endloop
  endfacet
  facet normal 0 0 1
    outer loop
      vertex 3.01 1.74 -0.001
      vertex 3.53 2.08 -0.001
      vertex 3.04 2.08 -0.001
    endloop
  endfacet
  facet normal 0 0 1
    outer loop
      vertex 3.04 2.08 -0.001
      vertex 3.57 2.43 -0.001
      vertex 3.1 2.43 -0.001
    endloop
  endfacet
  facet normal 0 0 1
    outer loop
      vertex 3.1 2.43 -0.001
      vertex 3.65 2.78 -0.001
      vertex 3.19 2.78 -0.001
    endloop
  endfacet
  facet normal 0 0 1
    outer loop
      vertex 3.19 2.78 -0.001
      vertex 3.76 3.13 -0.001
      vertex 3.35 3.13 -0.001
    endloop
  endfacet
  facet normal 0 0 1
    outer loop
      vertex 3.35 3.13 -0.001
      vertex 4.1 3.47 -0.001
      vertex 3.8 3.47 -0.001
    endloop
  endfacet
  facet normal 0 0 1
    outer loop
      vertex 3.5 0 -0.001
      vertex 4 0.35 -0.001
      vertex 3.5 0.35 -0.001
    endloop
  endfacet
  facet normal 0 0 1
    outer loop
      vertex 3.5 0.35 -0.001
      vertex 4 0.69 -0.001
      vertex 3.5 0.69 -0.001
    endloop
  endfacet
  facet normal 0 0 1
    outer loop
      vertex 3.5 0.69 -0.001
      vertex 4 1.04 -0.001
      vertex 3.5 1.04 -0.001
    endloop
  endfacet
  facet normal 0 0 1
    outer loop
      vertex 3.5 1.04 -0.001
      vertex 4 1.39 -0.001
      vertex 3.5 1.39 -0.001
    endloop
  endfacet
  facet normal 0 0 1
    outer loop
      vertex 3.5 1.39 -0.001
      vertex 4 1.74 -0.001
      vertex 3.51 1.74 -0.001
    endloop
  endfacet
  facet normal 0 0 1
    outer loop
      vertex 3.51 1.74 -0.001
      vertex 4.02 2.08 -0.001
      vertex 3.53 2.08 -0.001
    endloop
  endfacet
  facet normal 0 0 1
    outer loop
      vertex 3.53 2.08 -0.001
      vertex 4.05 2.43 -0.001
      vertex 3.57 2.43 -0.001
    endloop
  endfacet
  facet normal 0 0 1
    outer loop
      vertex 3.57 2.43 -0.001
      vertex 4.1 2.78 -0.001
      vertex 3.65 2.78 -0.001
    endloop
  endfacet
  facet normal 0 0 1
    outer loop
      vertex 3.65 2.78 -0.001
      vertex 4.17 3.13 -0.001
      vertex 3.76 3.13 -0.001
    endloop
  endfacet
  facet normal 0 0 1
    outer loop
      vertex 3.76 3.13 -0.001
      vertex 4.4 3.47 -0.001
      vertex 4.1 3.47 -0.001
    endloop
  endfacet
  facet normal 0 0 1
    outer loop
      vertex 4 0 -0.001
      vertex 4.5 0.35 -0.001
      vertex 4 0.35 -0.001
    endloop
  endfacet
  facet normal 0 0 1
    outer loop
      vertex 4 0.35 -0.001
      vertex 4.5 0.69 -0.001
      vertex 4 0.69 -0.001
    endloop
  endfacet
  facet normal 0 0 1
    outer loop
      vertex 4 0.69 -0.001
      vertex 4.5 1.04 -0.001
      vertex 4 1.04 -0.001
    endloop
  endfacet
  facet normal 0 0 1
    outer loop
      vertex 4 1.04 -0.001
      vertex 4.5 1.39 -0.001
      vertex 4 1.39 -0.001
    endloop
  endfacet
  facet normal 0 0 1
    outer loop
      vertex 4 1.39 -0.001
      vertex 4.5 1.74 -0.001
      vertex 4 1.74 -0.001
    endloop
  endfacet
  facet normal 0 0 1
    outer loop
      vertex 4 1.74 -0.001
      vertex 4.51 2.08 -0.001
      vertex 4.02 2.08 -0.001
    endloop
  endfacet
  facet normal 0 0 1
    outer loop
      vertex 4.02 2.08 -0.001
      vertex 4.52 2.43 -0.001
      vertex 4.05 2.43 -0.001
    endloop
  endfacet
  facet normal 0 0 1
    outer loop
      vertex 4.05 2.43 -0.001
      vertex 4.55 2.78 -0.001
      vertex 4.1 2.78 -0.001
    endloop
  endfacet
  facet normal 0 0 1
    outer loop
      vertex 4.1 2.78 -0.001
      vertex 4.59 3.13 -0.001
      vertex 4.17 3.13 -0.001
    endloop
  endfacet
  facet normal 0 0 1
    outer loop
      vertex 4.17 3.13 -0.001
      vertex 4.7 3.47 -0.001
      vertex 4.4 3.47 -0.001
    endloop
  endfacet
  facet normal 0 0 1
    outer loop
      vertex 4.5 0 -0.001
      vertex 5 0.35 -0.001
      vertex 4.5 0.35 -0.001
    endloop
  endfacet
  facet normal 0 0 1
    outer loop
      vertex 4.5 0.35 -0.001
      vertex 5 0.69 -0.001
      vertex 4.5 0.69 -0.001
    endloop
  endfacet
  facet normal 0 0 1
    outer loop
      vertex 4.5 0.69 -0.001
      vertex 5 1.04 -0.001
      vertex 4.5 1.04 -0.001
    endloop
  endfacet
  facet normal 0 0 1
    outer loop
      vertex 4.5 1.04 -0.001
      vertex 5 1.39 -0.001
      vertex 4.5 1.39 -0.001
    endloop
  endfacet
  facet normal 0 0 1
    outer loop
      vertex 4.5 1.39 -0.001
      vertex 5 1.74 -0.001
      vertex 4.5 1.74 -0.001
    endloop
  endfacet
  facet normal 0 0 1
    outer loop
      vertex 4.5 1.74 -0.001
      vertex 5 2.08 -0.001
      vertex 4.51 2.08 -0.001
    endloop
  endfacet
  facet normal 0 0 1
    outer loop
      vertex 4.51 2.08 -0.001
      vertex 5 2.43 -0.001
      vertex 4.52 2.43 -0.001
    endloop
  endfacet
  facet normal 0 0 1
    outer loop
      vertex 4.52 2.43 -0.001
      vertex 5 2.78 -0.001
      vertex 4.55 2.78 -0.001
    endloop
  endfacet
  facet normal 0 0 1
    outer loop
      vertex 4.55 2.78 -0.001
      vertex 5 3.13 -0.001
      vertex 4.59 3.13 -0.001
    endloop
  endfacet
  facet normal 0 0 1
    outer loop
      vertex 4.59 3.13 -0.001
      vertex 5 3.47 -0.001
      vertex 4.7 3.47 -0.001
    endloop
  endfacet
  facet normal 0 0 1
    outer loop
      vertex 0 0 -0.001
      vertex 0.5 0 -0.001
      vertex 0.5 0.35 -0.001
    endloop
  endfacet
  facet normal 0 0 1
    outer loop
      vertex 0 0.35 -0.001
      vertex 0.5 0.35 -0.001
      vertex 0.5 0.69 -0.001
    endloop
  endfacet
  facet normal 0 0 1
    outer loop
      vertex 0 0.69 -0.001
      vertex 0.5 0.69 -0.001
      vertex 0.5 1.04 -0.001
    endloop
  endfacet
  facet normal 0 0 1
    outer loop
      vertex 0 1.04 -0.001
      vertex 0.5 1.04 -0.001
      vertex 0.5 1.39 -0.001
    endloop
  endfacet
  facet normal 0 0 1
    outer loop
      vertex 0 1.39 -0.001
      vertex 0.5 1.39 -0.001
      vertex 0.52 1.74 -0.001
    endloop
  endfacet
  facet normal 0 0 1
    outer loop
      vertex 0.02 1.74 -0.001
      vertex 0.52 1.74 -0.001
      vertex 0.59 2.08 -0.001
    endloop
  endfacet
  facet normal 0 0 1
    outer loop
      vertex 0.1 2.08 -0.001
      vertex 0.59 2.08 -0.001
      vertex 0.72 2.43 -0.001
    endloop
  endfacet
  facet normal 0 0 1
    outer loop
      vertex 0.24 2.43 -0.001
      vertex 0.72 2.43 -0.001
      vertex 0.94 2.78 -0.001
    endloop
  endfacet
  facet normal 0 0 1
    outer loop
      vertex 0.48 2.78 -0.001
      vertex 0.94 2.78 -0.001
      vertex 1.29 3.13 -0.001
    endloop
  endfacet
  facet normal 0 0 1
    outer loop
      vertex 0.87 3.13 -0.001
      vertex 1.29 3.13 -0.001
      vertex 2.3 3.47 -0.001
    endloop
  endfacet
  facet normal 0 0 1
    outer loop
      vertex 0.5 0 -0.001
      vertex 1 0 -0.001
      vertex 1 0.35 -0.001
    endloop
  endfacet
  facet normal 0 0 1
    outer loop
      vertex 0.5 0.35 -0.001
      vertex 1 0.35 -0.001
      vertex 1 0.69 -0.001
    endloop
  endfacet
  facet normal 0 0 1
    outer loop
      vertex 0.5 0.69 -0.001
      vertex 1 0.69 -0.001
      vertex 1 1.04 -0.001
    endloop
  endfacet
  facet normal 0 0 1
    outer loop
      vertex 0.5 1.04 -0.001
      vertex 1 1.04 -0.001
      vertex 1 1.39 -0.001
    endloop
  endfacet
  facet normal 0 0 1
    outer loop
      vertex 0.5 1.39 -0.001
      vertex 1 1.39 -0.001
      vertex 1.01 1.74 -0.001
    endloop
  endfacet
  facet normal 0 0 1
    outer loop
      vertex 0.52 1.74 -0.001
      vertex 1.01 1.74 -0.001
      vertex 1.08 2.08 -0.001
    endloop
  endfacet
  facet normal 0 0 1
    outer loop
      vertex 0.59 2.08 -0.001
      vertex 1.08 2.08 -0.001
      vertex 1.2 2.43 -0.001
    endloop
  endfacet
  facet normal 0 0 1
    outer loop
      vertex 0.72 2.43 -0.001
      vertex 1.2 2.43 -0.001
      vertex 1.39 2.78 -0.001
    endloop
  endfacet
  facet normal 0 0 1
    outer loop
      vertex 0.94 2.78 -0.001
      vertex 1.39 2.78 -0.001
      vertex 1.7 3.13 -0.001
    endloop
  endfacet
  facet normal 0 0 1
    outer loop
      vertex 1.29 3.13 -0.001
      vertex 1.7 3.13 -0.001
      vertex 2.6 3.47 -0.001
    endloop
  endfacet
  facet normal 0 0 1
    outer loop
      vertex 1 0 -0.001
      vertex 1.5 0 -0.001
      vertex 1.5 0.35 -0.001
    endloop
  endfacet
  facet normal 0 0 1
    outer loop
      vertex 1 0.35 -0.001
      vertex 1.5 0.35 -0.001
      vertex 1.5 0.69 -0.001
    endloop
  endfacet
  facet normal 0 0 1
    outer loop
      vertex 1 0.69 -0.001
      vertex 1.5 0.69 -0.001
      vertex 1.5 1.04 -0.001
    endloop
  endfacet
  facet normal 0 0 1
    outer loop
      vertex 1 1.04 -0.001
      vertex 1.5 1.04 -0.001
      vertex 1.5 1.39 -0.001
    endloop
  endfacet
  facet normal 0 0 1
    outer loop
      vertex 1 1.39 -0.001
      vertex 1.5 1.39 -0.001
      vertex 1.51 1.74 -0.001
    endloop
  endfacet
  facet normal 0 0 1
    outer loop
      vertex 1.01 1.74 -0.001
      vertex 1.51 1.74 -0.001
      vertex 1.57 2.08 -0.001
    endloop
  endfacet
  facet normal 0 0 1
    outer loop
      vertex 1.08 2.08 -0.001
      vertex 1.57 2.08 -0.001
      vertex 1.67 2.43 -0.001
    endloop
  endfacet
  facet normal 0 0 1
    outer loop
      vertex 1.2 2.43 -0.001
      vertex 1.67 2.43 -0.001
      vertex 1.84 2.78 -0.001
    endloop
  endfacet
  facet normal 0 0 1
    outer loop
      vertex 1.39 2.78 -0.001
      vertex 1.84 2.78 -0.001
      vertex 2.11 3.13 -0.001
    endloop
  endfacet
  facet normal 0 0 1
    outer loop
      vertex 1.7 3.13 -0.001
      vertex 2.11 3.13 -0.001
      vertex 2.9 3.47 -0.001
    endloop
  endfacet
  facet normal 0 0 1
    outer loop
      vertex 1.5 0 -0.001
      vertex 2 0 -0.001
      vertex 2 0.35 -0.001
    endloop
  endfacet
  facet normal 0 0 1
    outer loop
      vertex 1.5 0.35 -0.001
      vertex 2 0.35 -0.001
      vertex 2 0.69 -0.001
    endloop
  endfacet
  facet normal 0 0 1
    outer loop
      vertex 1.5 0.69 -0.001
      vertex 2 0.69 -0.001
      vertex 2 1.04 -0.001
    endloop
  endfacet
  facet normal 0 0 1
    outer loop
      vertex 1.5 1.04 -0.001
      vertex 2 1.04 -0.001
      vertex 2 1.39 -0.001
    endloop
  endfacet
  facet normal 0 0 1
    outer loop
      vertex 1.5 1.39 -0.001
      vertex 2 1.39 -0.001
      vertex 2.01 1.74 -0.001
    endloop
  endfacet
  facet normal 0 0 1
    outer loop
      vertex 1.51 1.74 -0.001
      vertex 2.01 1.74 -0.001
      vertex 2.06 2.08 -0.001
    endloop
  endfacet
  facet normal 0 0 1
    outer loop
      vertex 1.57 2.08 -0.001
      vertex 2.06 2.08 -0.001
      vertex 2.15 2.43 -0.001
    endloop
  endfacet
  facet normal 0 0 1
    outer loop
      vertex 1.67 2.43 -0.001
      vertex 2.15 2.43 -0.001
      vertex 2.29 2.78 -0.001
    endloop
  endfacet
  facet normal 0 0 1
    outer loop
      vertex 1.84 2.78 -0.001
      vertex 2.29 2.78 -0.001
      vertex 2.52 3.13 -0.001
    endloop
  endfacet
  facet normal 0 0 1
    outer loop
      vertex 2.11 3.13 -0.001
      vertex 2.52 3.13 -0.001
      vertex 3.2 3.47 -0.001
    endloop
  endfacet
  facet normal 0 0 1
    outer loop
      vertex 2 0 -0.001
      vertex 2.5 0 -0.001
      vertex 2.5 0.35 -0.001
    endloop
  endfacet
  facet normal 0 0 1
    outer loop
      vertex 2 0.35 -0.001
      vertex 2.5 0.35 -0.001
      vertex 2.5 0.69 -0.001
    endloop
  endfacet
  facet normal 0 0 1
    outer loop
      vertex 2 0.69 -0.001
      vertex 2.5 0.69 -0.001
      vertex 2.5 1.04 -0.001
    endloop
  endfacet
  facet normal 0 0 1
    outer loop
      vertex 2 1.04 -0.001
      vertex 2.5 1.04 -0.001
      vertex 2.5 1.39 -0.001
    endloop
  endfacet
  facet normal 0 0 1
    outer loop
      vertex 2 1.39 -0.001
      vertex 2.5 1.39 -0.001
      vertex 2.51 1.74 -0.001
    endloop
  endfacet
  facet normal 0 0 1
    outer loop
      vertex 2.01 1.74 -0.001
      vertex 2.51 1.74 -0.001
      vertex 2.55 2.08 -0.001
    endloop
  endfacet
  facet normal 0 0 1
    outer loop
      vertex 2.06 2.08 -0.001
      vertex 2.55 2.08 -0.001
      vertex 2.62 2.43 -0.001
    endloop
  endfacet
  facet normal 0 0 1
    outer loop
      vertex 2.15 2.43 -0.001
      vertex 2.62 2.43 -0.001
      vertex 2.74 2.78 -0.001
    endloop
  endfacet
  facet normal 0 0 1
    outer loop
      vertex 2.29 2.78 -0.001
      vertex 2.74 2.78 -0.001
      vertex 2.94 3.13 -0.001
    endloop
  endfacet
  facet normal 0 0 1
    outer loop
      vertex 2.52 3.13 -0.001
      vertex 2.94 3.13 -0.001
      vertex 3.5 3.47 -0.001
    endloop
  endfacet
  facet normal 0 0 1
    outer loop
      vertex 2.5 0 -0.001
      vertex 3 0 -0.001
      vertex 3 0.35 -0.001
    endloop
  endfacet
  facet normal 0 0 1
    outer loop
      vertex 2.5 0.35 -0.001
      vertex 3 0.35 -0.001
      vertex 3 0.69 -0.001
    endloop
  endfacet
  facet normal 0 0 1
    outer loop
      vertex 2.5 0.69 -0.001
      vertex 3 0.69 -0.001
      vertex 3 1.04 -0.001
    endloop
  endfacet
  facet normal 0 0 1
    outer loop
      vertex 2.5 1.04 -0.001
      vertex 3 1.04 -0.001
      vertex 3 1.39 -0.001
    endloop
  endfacet
  facet normal 0 0 1
    outer loop
      vertex 2.5 1.39 -0.001
      vertex 3 1.39 -0.001
      vertex 3.01 1.74 -0.001
    endloop
  endfacet
  facet normal 0 0 1
    outer loop
      vertex 2.51 1.74 -0.001
      vertex 3.01 1.74 -0.001
      vertex 3.04 2.08 -0.001
    endloop
  endfacet
  facet normal 0 0 1
    outer loop
      vertex 2.55 2.08 -0.001
      vertex 3.04 2.08 -0.001
      vertex 3.1 2.43 -0.001
    endloop
  endfacet
  facet normal 0 0 1
    outer loop
      vertex 2.62 2.43 -0.001
      vertex 3.1 2.43 -0.001
      vertex 3.19 2.78 -0.001
    endloop
  endfacet
  facet normal 0 0 1
    outer loop
      vertex 2.74 2.78 -0.001
      vertex 3.19 2.78 -0.001
      vertex 3.35 3.13 -0.001
    endloop
  endfacet
  facet normal 0 0 1
    outer loop
      vertex 2.94 3.13 -0.001
      vertex 3.35 3.13 -0.001
      vertex 3.8 3.47 -0.001
    endloop
  endfacet
  facet normal 0 0 1
    outer loop
      vertex 3 0 -0.001
      vertex 3.5 0 -0.001
      vertex 3.5 0.35 -0.001
    endloop
  endfacet
  facet normal 0 0 1
    outer loop
      vertex 3 0.35 -0.001
      vertex 3.5 0.35 -0.001
      vertex 3.5 0.69 -0.001
    endloop
  endfacet
  facet normal 0 0 1
    outer loop
      vertex 3 0.69 -0.001
      vertex 3.5 0.69 -0.001
      vertex 3.5 1.04 -0.001
    endloop
  endfacet
  facet normal 0 0 1
    outer loop
      vertex 3 1.04 -0.001
      vertex 3.5 1.04 -0.001
      vertex 3.5 1.39 -0.001
    endloop
  endfacet
  facet normal 0 0 1
    outer loop
      vertex 3 1.39 -0.001
      vertex 3.5 1.39 -0.001
      vertex 3.51 1.74 -0.001
    endloop
  endfacet
  facet normal 0 0 1
    outer loop
      vertex 3.01 1.74 -0.001
      vertex 3.51 1.74 -0.001
      vertex 3.53 2.08 -0.001
    endloop
  endfacet
  facet normal 0 0 1
    outer loop
      vertex 3.04 2.08 -0.001
      vertex 3.53 2.08 -0.001
      vertex 3.57 2.43 -0.001
    endloop
  endfacet
  facet normal 0 0 1
    outer loop
      vertex 3.1 2.43 -0.001
      vertex 3.57 2.43 -0.001
      vertex 3.65 2.78 -0.001
    endloop
  endfacet
  facet normal 0 0 1
    outer loop
      vertex 3.19 2.78 -0.001
      vertex 3.65 2.78 -0.001
      vertex 3.76 3.13 -0.001
    endloop
  endfacet
  facet normal 0 0 1
    outer loop
      vertex 3.35 3.13 -0.001
      vertex 3.76 3.13 -0.001
      vertex 4.1 3.47 -0.001
    endloop
  endfacet
  facet normal 0 0 1
    outer loop
      vertex 3.5 0 -0.001
      vertex 4 0 -0.001
      vertex 4 0.35 -0.001
    endloop
  endfacet
  facet normal 0 0 1
    outer loop
      vertex 3.5 0.35 -0.001
      vertex 4 0.35 -0.001
      vertex 4 0.69 -0.001
    endloop
  endfacet
  facet normal 0 0 1
    outer loop
      vertex 3.5 0.69 -0.001
      vertex 4 0.69 -0.001
      vertex 4 1.04 -0.001
    endloop
  endfacet
  facet normal 0 0 1
    outer loop
      vertex 3.5 1.04 -0.001
      vertex 4 1.04 -0.001
      vertex 4 1.39 -0.001
    endloop
  endfacet
  facet normal 0 0 1
    outer loop
      vertex 3.5 1.39 -0.001
      vertex 4 1.39 -0.001
      vertex 4 1.74 -0.001
    endloop
  endfacet
  facet normal 0 0 1
    outer loop
      vertex 3.51 1.74 -0.001
      vertex 4 1.74 -0.001
      vertex 4.02 2.08 -0.001
    endloop
  endfacet
  facet normal 0 0 1
    outer loop
      vertex 3.53 2.08 -0.001
      vertex 4.02 2.08 -0.001
      vertex 4.05 2.43 -0.001
    endloop
  endfacet
  facet normal 0 0 1
    outer loop
      vertex 3.57 2.43 -0.001
      vertex 4.05 2.43 -0.001
      vertex 4.1 2.78 -0.001
    endloop
  endfacet
  facet normal 0 0 1
    outer loop
      vertex 3.65 2.78 -0.001
      vertex 4.1 2.78 -0.001
      vertex 4.17 3.13 -0.001
    endloop
  endfacet
  facet normal 0 0 1
    outer loop
      vertex 3.76 3.13 -0.001
      vertex 4.17 3.13 -0.001
      vertex 4.4 3.47 -0.001
    endloop
  endfacet
  facet normal 0 0 1
    outer loop
      vertex 4 0 -0.001
      vertex 4.5 0 -0.001
      vertex 4.5 0.35 -0.001
    endloop
  endfacet
  facet normal 0 0 1
    outer loop
      vertex 4 0.35 -0.001
      vertex 4.5 0.35 -0.001
      vertex 4.5 0.69 -0.001
    endloop
  endfacet
  facet normal 0 0 1
    outer loop
      vertex 4 0.69 -0.001
      vertex 4.5 0.69 -0.001
      vertex 4.5 1.04 -0.001
    endloop
  endfacet
  facet normal 0 0 1
    outer loop
      vertex 4 1.04 -0.001
      vertex 4.5 1.04 -0.001
      vertex 4.5 1.39 -0.001
    endloop
  endfacet
  facet normal 0 0 1
    outer loop
      vertex 4 1.39 -0.001
      vertex 4.5 1.39 -0.001
      vertex 4.5 1.74 -0.001
    endloop
  endfacet
  facet normal 0 0 1
    outer loop
      vertex 4 1.74 -0.001
      vertex 4.5 1.74 -0.001
      vertex 4.51 2.08 -0.001
    endloop
  endfacet
  facet normal 0 0 1
    outer loop
      vertex 4.02 2.08 -0.001
      vertex 4.51 2.08 -0.001
      vertex 4.52 2.43 -0.001
    endloop
  endfacet
  facet normal 0 0 1
    outer loop
      vertex 4.05 2.43 -0.001
      vertex 4.52 2.43 -0.001
      vertex 4.55 2.78 -0.001
    endloop
  endfacet
  facet normal 0 0 1
    outer loop
      vertex 4.1 2.78 -0.001
      vertex 4.55 2.78 -0.001
      vertex 4.59 3.13 -0.001
    endloop
  endfacet
  facet normal 0 0 1
    outer loop
      vertex 4.17 3.13 -0.001
      vertex 4.59 3.13 -0.001
      vertex 4.7 3.47 -0.001
    endloop
  endfacet
  facet normal 0 0 1
    outer loop
      vertex 4.5 0 -0.001
      vertex 5 0 -0.001
      vertex 5 0.35 -0.001
    endloop
  endfacet
  facet normal 0 0 1
    outer loop
      vertex 4.5 0.35 -0.001
      vertex 5 0.35 -0.001
      vertex 5 0.69 -0.001
    endloop
  endfacet
  facet normal 0 0 1
    outer loop
      vertex 4.5 0.69 -0.001
      vertex 5 0.69 -0.001
      vertex 5 1.04 -0.001
    endloop
  endfacet
  facet normal 0 0 1
    outer loop
      vertex 4.5 1.04 -0.001
      vertex 5 1.04 -0.001
      vertex 5 1.39 -0.001
    endloop
  endfacet
  facet normal 0 0 1
    outer loop
      vertex 4.5 1.39 -0.001
      vertex 5 1.39 -0.001
      vertex 5 1.74 -0.001
    endloop
  endfacet
  facet normal 0 0 1
    outer loop
      vertex 4.5 1.74 -0.001
      vertex 5 1.74 -0.001
      vertex 5 2.08 -0.001
    endloop
  endfacet
  facet normal 0 0 1
    outer loop
      vertex 4.51 2.08 -0.001
      vertex 5 2.08 -0.001
      vertex 5 2.43 -0.001
    endloop
  endfacet
  facet normal 0 0 1
    outer loop
      vertex 4.52 2.43 -0.001
      vertex 5 2.43 -0.001
      vertex 5 2.78 -0.001
    endloop
  endfacet
  facet normal 0 0 1
    outer loop
      vertex 4.55 2.78 -0.001
      vertex 5 2.78 -0.001
      vertex 5 3.13 -0.001
    endloop
  endfacet
  facet normal 0 0 1
    outer loop
      vertex 4.59 3.13 -0.001
      vertex 5 3.13 -0.001
      vertex 5 3.47 -0.001
    endloop
  endfacet
  facet normal 1 -0 0
    outer loop
      vertex 0 0 0
      vertex 0 0.35 -0.001
      vertex 0 0.35 0
    endloop
  endfacet
  facet normal 1 0 0
    outer loop
      vertex 0 0.35 -0.001
      vertex 0 0 0
      vertex 0 0 -0.001
    endloop
  endfacet
  facet normal 1 -0 0
    outer loop
      vertex 0 0.35 0
      vertex 0 0.69 -0.001
      vertex 0 0.69 0
    endloop
  endfacet
  facet normal 1 0 0
    outer loop
      vertex 0 0.69 -0.001
      vertex 0 0.35 0
      vertex 0 0.35 -0.001
    endloop
  endfacet
  facet normal 1 -0 0
    outer loop
      vertex 0 0.69 0
      vertex 0 1.04 -0.001
      vertex 0 1.04 0
    endloop
  endfacet
  facet normal 1 0 0
    outer loop
      vertex 0 1.04 -0.001
      vertex 0 0.69 0
      vertex 0 0.69 -0.001
    endloop
  endfacet
  facet normal 1 -0 0
    outer loop
      vertex 0 1.04 0
      vertex 0 1.39 -0.001
      vertex 0 1.39 0
    endloop
  endfacet
  facet normal 1 0 0
    outer loop
      vertex 0 1.39 -0.001
      vertex 0 1.04 0
      vertex 0 1.04 -0.001
    endloop
  endfacet
  facet normal 0.998371 -0.0570498 0
    outer loop
      vertex 0 1.39 0
      vertex 0.02 1.74 -0.001
      vertex 0.02 1.74 0
    endloop
  endfacet
  facet normal 0.998371 -0.0570498 0
    outer loop
      vertex 0.02 1.74 -0.001
      vertex 0 1.39 0
      vertex 0 1.39 -0.001
    endloop
  endfacet
  facet normal 0.973417 -0.229039 0
    outer loop
      vertex 0.02 1.74 0
      vertex 0.1 2.08 -0.001
      vertex 0.1 2.08 0
    endloop
  endfacet
  facet normal 0.973417 -0.229039 0
    outer loop
      vertex 0.1 2.08 -0.001
      vertex 0.02 1.74 0
      vertex 0.02 1.74 -0.001
    endloop
  endfacet
  facet normal 0.928477 -0.371391 0
    outer loop
      vertex 0.1 2.08 0
      vertex 0.24 2.43 -0.001
      vertex 0.24 2.43 0
    endloop
  endfacet
  facet normal 0.928477 -0.371391 0
    outer loop
      vertex 0.24 2.43 -0.001
      vertex 0.1 2.08 0
      vertex 0.1 2.08 -0.001
    endloop
  endfacet
  facet normal 0.824729 -0.565528 0
    outer loop
      vertex 0.24 2.43 0
      vertex 0.48 2.78 -0.001
      vertex 0.48 2.78 0
    endloop
  endfacet
  facet normal 0.824729 -0.565528 0
    outer loop
      vertex 0.48 2.78 -0.001
      vertex 0.24 2.43 0
      vertex 0.24 2.43 -0.001
    endloop
  endfacet
  facet normal 0.66791 -0.744242 0
    outer loop
      vertex 0.48 2.78 -0.001
      vertex 0.87 3.13 0
      vertex 0.48 2.78 0
    endloop
  endfacet
  facet normal 0.66791 -0.744242 0
    outer loop
      vertex 0.87 3.13 0
      vertex 0.48 2.78 -0.001
      vertex 0.87 3.13 -0.001
    endloop
  endfacet
  facet normal 0.288125 -0.957593 0
    outer loop
      vertex 0.87 3.13 -0.001
      vertex 2 3.47 0
      vertex 0.87 3.13 0
    endloop
  endfacet
  facet normal 0.288125 -0.957593 0
    outer loop
      vertex 2 3.47 0
      vertex 0.87 3.13 -0.001
      vertex 2 3.47 -0.001
    endloop
  endfacet
  facet normal 0 -1 0
    outer loop
      vertex 2 3.47 -0.001
      vertex 2.3 3.47 0
      vertex 2 3.47 0
    endloop
  endfacet
  facet normal 0 -1 -0
    outer loop
      vertex 2.3 3.47 0
      vertex 2 3.47 -0.001
      vertex 2.3 3.47 -0.001
    endloop
  endfacet
  facet normal 0 -1 0
    outer loop
      vertex 2.3 3.47 -0.001
      vertex 2.6 3.47 0
      vertex 2.3 3.47 0
    endloop
  endfacet
  facet normal 0 -1 -0
    outer loop
      vertex 2.6 3.47 0
      vertex 2.3 3.47 -0.001
      vertex 2.6 3.47 -0.001
    endloop
  endfacet
  facet normal 0 -1 0
    outer loop
      vertex 2.6 3.47 -0.001
      vertex 2.9 3.47 0
      vertex 2.6 3.47 0
    endloop
  endfacet
  facet normal 0 -1 -0
    outer loop
      vertex 2.9 3.47 0
      vertex 2.6 3.47 -0.001
      vertex 2.9 3.47 -0.001
    endloop
  endfacet
  facet normal 0 -1 0
    outer loop
      vertex 2.9 3.47 -0.001
      vertex 3.2 3.47 0
      vertex 2.9 3.47 0
    endloop
  endfacet
  facet normal 0 -1 -0
    outer loop
      vertex 3.2 3.47 0
      vertex 2.9 3.47 -0.001
      vertex 3.2 3.47 -0.001
    endloop
  endfacet
  facet normal 0 -1 0
    outer loop
      vertex 3.2 3.47 -0.001
      vertex 3.5 3.47 0
      vertex 3.2 3.47 0
    endloop
  endfacet
  facet normal 0 -1 -0
    outer loop
      vertex 3.5 3.47 0
      vertex 3.2 3.47 -0.001
      vertex 3.5 3.47 -0.001
    endloop
  endfacet
  facet normal 0 -1 0
    outer loop
      vertex 3.5 3.47 -0.001
      vertex 3.8 3.47 0
      vertex 3.5 3.47 0
    endloop
  endfacet
  facet normal 0 -1 -0
    outer loop
      vertex 3.8 3.47 0
      vertex 3.5 3.47 -0.001
      vertex 3.8 3.47 -0.001
    endloop
  endfacet
  facet normal 0 -1 0
    outer loop
      vertex 3.8 3.47 -0.001
      vertex 4.1 3.47 0
      vertex 3.8 3.47 0
    endloop
  endfacet
  facet normal 0 -1 -0
    outer loop
      vertex 4.1 3.47 0
      vertex 3.8 3.47 -0.001
      vertex 4.1 3.47 -0.001
    endloop
  endfacet
  facet normal 0 -1 0
    outer loop
      vertex 4.1 3.47 -0.001
      vertex 4.4 3.47 0
      vertex 4.1 3.47 0
    endloop
  endfacet
  facet normal 0 -1 -0
    outer loop
      vertex 4.4 3.47 0
      vertex 4.1 3.47 -0.001
      vertex 4.4 3.47 -0.001
    endloop
  endfacet
  facet normal 0 -1 0
    outer loop
      vertex 4.4 3.47 -0.001
      vertex 4.7 3.47 0
      vertex 4.4 3.47 0
    endloop
  endfacet
  facet normal 0 -1 -0
    outer loop
      vertex 4.7 3.47 0
      vertex 4.4 3.47 -0.001
      vertex 4.7 3.47 -0.001
    endloop
  endfacet
  facet normal 0 -1 0
    outer loop
      vertex 4.7 3.47 -0.001
      vertex 5 3.47 0
      vertex 4.7 3.47 0
    endloop
  endfacet
  facet normal 0 -1 -0
    outer loop
      vertex 5 3.47 0
      vertex 4.7 3.47 -0.001
      vertex 5 3.47 -0.001
    endloop
  endfacet
  facet normal -1 0 0
    outer loop
      vertex 5 0 -0.001
      vertex 5 0.35 0
      vertex 5 0.35 -0.001
    endloop
  endfacet
  facet normal -1 -0 0
    outer loop
      vertex 5 0.35 0
      vertex 5 0 -0.001
      vertex 5 0 0
    endloop
  endfacet
  facet normal -1 0 0
    outer loop
      vertex 5 0.35 -0.001
      vertex 5 0.69 0
      vertex 5 0.69 -0.001
    endloop
  endfacet
  facet normal -1 -0 0
    outer loop
      vertex 5 0.69 0
      vertex 5 0.35 -0.001
      vertex 5 0.35 0
    endloop
  endfacet
  facet normal -1 0 0
    outer loop
      vertex 5 0.69 -0.001
      vertex 5 1.04 0
      vertex 5 1.04 -0.001
    endloop
  endfacet
  facet normal -1 -0 0
    outer loop
      vertex 5 1.04 0
      vertex 5 0.69 -0.001
      vertex 5 0.69 0
    endloop
  endfacet
  facet normal -1 0 0
    outer loop
      vertex 5 1.04 -0.001
      vertex 5 1.39 0
      vertex 5 1.39 -0.001
    endloop
  endfacet
  facet normal -1 -0 0
    outer loop
      vertex 5 1.39 0
      vertex 5 1.04 -0.001
      vertex 5 1.04 0
    endloop
  endfacet
  facet normal -1 0 0
    outer loop
      vertex 5 1.39 -0.001
      vertex 5 1.74 0
      vertex 5 1.74 -0.001
    endloop
  endfacet
  facet normal -1 -0 0
    outer loop
      vertex 5 1.74 0
      vertex 5 1.39 -0.001
      vertex 5 1.39 0
    endloop
  endfacet
  facet normal -1 0 0
    outer loop
      vertex 5 1.74 -0.001
      vertex 5 2.08 0
      vertex 5 2.08 -0.001
    endloop
  endfacet
  facet normal -1 -0 0
    outer loop
      vertex 5 2.08 0
      vertex 5 1.74 -0.001
      vertex 5 1.74 0
    endloop
  endfacet
  facet normal -1 0 0
    outer loop
      vertex 5 2.08 -0.001
      vertex 5 2.43 0
      vertex 5 2.43 -0.001
    endloop
  endfacet
  facet normal -1 -0 0
    outer loop
      vertex 5 2.43 0
      vertex 5 2.08 -0.001
      vertex 5 2.08 0
    endloop
  endfacet
  facet normal -1 0 0
    outer loop
      vertex 5 2.43 -0.001
      vertex 5 2.78 0
      vertex 5 2.78 -0.001
    endloop
  endfacet
  facet normal -1 -0 0
    outer loop
      vertex 5 2.78 0
      vertex 5 2.43 -0.001
      vertex 5 2.43 0
    endloop
  endfacet
  facet normal -1 0 0
    outer loop
      vertex 5 2.78 -0.001
      vertex 5 3.13 0
      vertex 5 3.13 -0.001
    endloop
  endfacet
  facet normal -1 -0 0
    outer loop
      vertex 5 3.13 0
      vertex 5 2.78 -0.001
      vertex 5 2.78 0
    endloop
  endfacet
  facet normal -1 0 0
    outer loop
      vertex 5 3.13 -0.001
      vertex 5 3.47 0
      vertex 5 3.47 -0.001
    endloop
  endfacet
  facet normal -1 -0 0
    outer loop
      vertex 5 3.47 0
      vertex 5 3.13 -0.001
      vertex 5 3.13 0
    endloop
  endfacet
  facet normal 0 1 -0
    outer loop
      vertex 0.5 0 -0.001
      vertex 0 0 0
      vertex 0.5 0 0
    endloop
  endfacet
  facet normal 0 1 0
    outer loop
      vertex 0 0 0
      vertex 0.5 0 -0.001
      vertex 0 0 -0.001
    endloop
  endfacet
  facet normal 0 1 -0
    outer loop
      vertex 1 0 -0.001
      vertex 0.5 0 0
      vertex 1 0 0
    endloop
  endfacet
  facet normal 0 1 0
    outer loop
      vertex 0.5 0 0
      vertex 1 0 -0.001
      vertex 0.5 0 -0.001
    endloop
  endfacet
  facet normal 0 1 -0
    outer loop
      vertex 1.5 0 -0.001
      vertex 1 0 0
      vertex 1.5 0 0
    endloop
  endfacet
  facet normal 0 1 0
    outer loop
      vertex 1 0 0
      vertex 1.5 0 -0.001
      vertex 1 0 -0.001
    endloop
  endfacet
  facet normal 0 1 -0
    outer loop
      vertex 2 0 -0.001
      vertex 1.5 0 0
      vertex 2 0 0
    endloop
  endfacet
  facet normal 0 1 0
    outer loop
      vertex 1.5 0 0
      vertex 2 0 -0.001
      vertex 1.5 0 -0.001
    endloop
  endfacet
  facet normal 0 1 -0
    outer loop
      vertex 2.5 0 -0.001
      vertex 2 0 0
      vertex 2.5 0 0
    endloop
  endfacet
  facet normal 0 1 0
    outer loop
      vertex 2 0 0
      vertex 2.5 0 -0.001
      vertex 2 0 -0.001
    endloop
  endfacet
  facet normal 0 1 -0
    outer loop
      vertex 3 0 -0.001
      vertex 2.5 0 0
      vertex 3 0 0
    endloop
  endfacet
  facet normal 0 1 0
    outer loop
      vertex 2.5 0 0
      vertex 3 0 -0.001
      vertex 2.5 0 -0.001
    endloop
  endfacet
  facet normal 0 1 -0
    outer loop
      vertex 3.5 0 -0.001
      vertex 3 0 0
      vertex 3.5 0 0
    endloop
  endfacet
  facet normal 0 1 0
    outer loop
      vertex 3 0 0
      vertex 3.5 0 -0.001
      vertex 3 0 -0.001
    endloop
  endfacet
  facet normal 0 1 -0
    outer loop
      vertex 4 0 -0.001
      vertex 3.5 0 0
      vertex 4 0 0
    endloop
  endfacet
  facet normal 0 1 0
    outer loop
      vertex 3.5 0 0
      vertex 4 0 -0.001
      vertex 3.5 0 -0.001
    endloop
  endfacet
  facet normal 0 1 -0
    outer loop
      vertex 4.5 0 -0.001
      vertex 4 0 0
      vertex 4.5 0 0
    endloop
  endfacet
  facet normal 0 1 0
    outer loop
      vertex 4 0 0
      vertex 4.5 0 -0.001
      vertex 4 0 -0.001
    endloop
  endfacet
  facet normal 0 1 -0
    outer loop
      vertex 5 0 -0.001
      vertex 4.5 0 0
      vertex 5 0 0
    endloop
  endfacet
  facet normal 0 1 0
    outer loop
      vertex 4.5 0 0
      vertex 5 0 -0.001
      vertex 4.5 0 -0.001
    endloop
  endfacet
endsolid OpenSCAD_Model
