solid OpenSCAD_Model
  facet normal 0 0 -1
    outer loop
      vertex 0 0.3 0
      vertex 0.4 0.3 0
      vertex 0 0 0
    endloop
  endfacet
  facet normal 0 0 -1
    outer loop
      vertex 0 0.6 0
      vertex 0.4 0.6 0
      vertex 0 0.3 0
    endloop
  endfacet
  facet normal 0 0 -1
    outer loop
      vertex 0 0.9 0
      vertex 0.4 0.9 0
      vertex 0 0.6 0
    endloop
  endfacet
  facet normal 0 -0 -1
    outer loop
      vertex 0.01 1.2 0
      vertex 0.41 1.2 0
      vertex 0 0.9 0
    endloop
  endfacet
  facet normal 0 -0 -1
    outer loop
      vertex 0.06 1.5 0
      vertex 0.46 1.5 0
      vertex 0.01 1.2 0
    endloop
  endfacet
  facet normal 0 -0 -1
    outer loop
      vertex 0.17 1.8 0
      vertex 0.55 1.8 0
      vertex 0.06 1.5 0
    endloop
  endfacet
  facet normal 0 -0 -1
    outer loop
      vertex 0.33 2.1 0
      vertex 0.7 2.1 0
      vertex 0.17 1.8 0
    endloop
  endfacet
  facet normal 0 -0 -1
    outer loop
      vertex 0.57 2.4 0
      vertex 0.91 2.4 0
      vertex 0.33 2.1 0
    endloop
  endfacet
  facet normal 0 -0 -1
    outer loop
      vertex 0.95 2.7 0
      vertex 1.25 2.7 0
      vertex 0.57 2.4 0
    endloop
  endfacet
  facet normal 0 -0 -1
    outer loop
      vertex 2 3 0
      vertex 2.2 3 0
      vertex 0.95 2.7 0
    endloop
  endfacet
  facet normal 0 0 -1
    outer loop
      vertex 0.4 0.3 0
      vertex 0.8 0.3 0
      vertex 0.4 0 0
    endloop
  endfacet
  facet normal 0 0 -1
    outer loop
      vertex 0.4 0.6 0
      vertex 0.8 0.6 0
      vertex 0.4 0.3 0
    endloop
  endfacet
  facet normal 0 0 -1
    outer loop
      vertex 0.4 0.9 0
      vertex 0.8 0.9 0
      vertex 0.4 0.6 0
    endloop
  endfacet
  facet normal 0 -0 -1
    outer loop
      vertex 0.41 1.2 0
      vertex 0.81 1.2 0
      vertex 0.4 0.9 0
    endloop
  endfacet
  facet normal 0 -0 -1
    outer loop
      vertex 0.46 1.5 0
      vertex 0.85 1.5 0
      vertex 0.41 1.2 0
    endloop
  endfacet
  facet normal 0 -0 -1
    outer loop
      vertex 0.55 1.8 0
      vertex 0.93 1.8 0
      vertex 0.46 1.5 0
    endloop
  endfacet
  facet normal 0 -0 -1
    outer loop
      vertex 0.7 2.1 0
      vertex 1.06 2.1 0
      vertex 0.55 1.8 0
    endloop
  endfacet
  facet normal 0 -0 -1
    outer loop
      vertex 0.91 2.4 0
      vertex 1.26 2.4 0
      vertex 0.7 2.1 0
    endloop
  endfacet
  facet normal 0 -0 -1
    outer loop
      vertex 1.25 2.7 0
      vertex 1.56 2.7 0
      vertex 0.91 2.4 0
    endloop
  endfacet
  facet normal 0 -0 -1
    outer loop
      vertex 2.2 3 0
      vertex 2.4 3 0
      vertex 1.25 2.7 0
    endloop
  endfacet
  facet normal 0 0 -1
    outer loop
      vertex 0.8 0.3 0
      vertex 1.2 0.3 0
      vertex 0.8 0 0
    endloop
  endfacet
  facet normal 0 0 -1
    outer loop
      vertex 0.8 0.6 0
      vertex 1.2 0.6 0
      vertex 0.8 0.3 0
    endloop
  endfacet
  facet normal 0 0 -1
    outer loop
      vertex 0.8 0.9 0
      vertex 1.2 0.9 0
      vertex 0.8 0.6 0
    endloop
  endfacet
  facet normal 0 -0 -1
    outer loop
      vertex 0.81 1.2 0
      vertex 1.21 1.2 0
      vertex 0.8 0.9 0
    endloop
  endfacet
  facet normal 0 -0 -1
    outer loop
      vertex 0.85 1.5 0
      vertex 1.24 1.5 0
      vertex 0.81 1.2 0
    endloop
  endfacet
  facet normal 0 -0 -1
    outer loop
      vertex 0.93 1.8 0
      vertex 1.32 1.8 0
      vertex 0.85 1.5 0
    endloop
  endfacet
  facet normal 0 -0 -1
    outer loop
      vertex 1.06 2.1 0
      vertex 1.43 2.1 0
      vertex 0.93 1.8 0
    endloop
  endfacet
  facet normal 0 -0 -1
    outer loop
      vertex 1.26 2.4 0
      vertex 1.6 2.4 0
      vertex 1.06 2.1 0
    endloop
  endfacet
  facet normal 0 -0 -1
    outer loop
      vertex 1.56 2.7 0
      vertex 1.86 2.7 0
      vertex 1.26 2.4 0
    endloop
  endfacet
  facet normal 0 -0 -1
    outer loop
      vertex 2.4 3 0
      vertex 2.6 3 0
      vertex 1.56 2.7 0
    endloop
  endfacet
  facet normal 0 0 -1
    outer loop
      vertex 1.2 0.3 0
      vertex 1.6 0.3 0
      vertex 1.2 0 0
    endloop
  endfacet
  facet normal 0 0 -1
    outer loop
      vertex 1.2 0.6 0
      vertex 1.6 0.6 0
      vertex 1.2 0.3 0
    endloop
  endfacet
  facet normal 0 0 -1
    outer loop
      vertex 1.2 0.9 0
      vertex 1.6 0.9 0
      vertex 1.2 0.6 0
    endloop
  endfacet
  facet normal 0 -0 -1
    outer loop
      vertex 1.21 1.2 0
      vertex 1.61 1.2 0
      vertex 1.2 0.9 0
    endloop
  endfacet
  facet normal 0 -0 -1
    outer loop
      vertex 1.24 1.5 0
      vertex 1.64 1.5 0
      vertex 1.21 1.2 0
    endloop
  endfacet
  facet normal 0 -0 -1
    outer loop
      vertex 1.32 1.8 0
      vertex 1.7 1.8 0
      vertex 1.24 1.5 0
    endloop
  endfacet
  facet normal 0 -0 -1
    outer loop
      vertex 1.43 2.1 0
      vertex 1.8 2.1 0
      vertex 1.32 1.8 0
    endloop
  endfacet
  facet normal 0 -0 -1
    outer loop
      vertex 1.6 2.4 0
      vertex 1.94 2.4 0
      vertex 1.43 2.1 0
    endloop
  endfacet
  facet normal 0 -0 -1
    outer loop
      vertex 1.86 2.7 0
      vertex 2.17 2.7 0
      vertex 1.6 2.4 0
    endloop
  endfacet
  facet normal 0 -0 -1
    outer loop
      vertex 2.6 3 0
      vertex 2.8 3 0
      vertex 1.86 2.7 0
    endloop
  endfacet
  facet normal 0 0 -1
    outer loop
      vertex 1.6 0.3 0
      vertex 2 0.3 0
      vertex 1.6 0 0
    endloop
  endfacet
  facet normal 0 0 -1
    outer loop
      vertex 1.6 0.6 0
      vertex 2 0.6 0
      vertex 1.6 0.3 0
    endloop
  endfacet
  facet normal 0 0 -1
    outer loop
      vertex 1.6 0.9 0
      vertex 2 0.9 0
      vertex 1.6 0.6 0
    endloop
  endfacet
  facet normal 0 -0 -1
    outer loop
      vertex 1.61 1.2 0
      vertex 2.01 1.2 0
      vertex 1.6 0.9 0
    endloop
  endfacet
  facet normal 0 -0 -1
    outer loop
      vertex 1.64 1.5 0
      vertex 2.03 1.5 0
      vertex 1.61 1.2 0
    endloop
  endfacet
  facet normal 0 -0 -1
    outer loop
      vertex 1.7 1.8 0
      vertex 2.08 1.8 0
      vertex 1.64 1.5 0
    endloop
  endfacet
  facet normal 0 -0 -1
    outer loop
      vertex 1.8 2.1 0
      vertex 2.16 2.1 0
      vertex 1.7 1.8 0
    endloop
  endfacet
  facet normal 0 -0 -1
    outer loop
      vertex 1.94 2.4 0
      vertex 2.29 2.4 0
      vertex 1.8 2.1 0
    endloop
  endfacet
  facet normal 0 -0 -1
    outer loop
      vertex 2.17 2.7 0
      vertex 2.47 2.7 0
      vertex 1.94 2.4 0
    endloop
  endfacet
  facet normal 0 -0 -1
    outer loop
      vertex 2.8 3 0
      vertex 3 3 0
      vertex 2.17 2.7 0
    endloop
  endfacet
  facet normal 0 0 -1
    outer loop
      vertex 2 0.3 0
      vertex 2.4 0.3 0
      vertex 2 0 0
    endloop
  endfacet
  facet normal 0 0 -1
    outer loop
      vertex 2 0.6 0
      vertex 2.4 0.6 0
      vertex 2 0.3 0
    endloop
  endfacet
  facet normal 0 0 -1
    outer loop
      vertex 2 0.9 0
      vertex 2.4 0.9 0
      vertex 2 0.6 0
    endloop
  endfacet
  facet normal 0 -0 -1
    outer loop
      vertex 2.01 1.2 0
      vertex 2.4 1.2 0
      vertex 2 0.9 0
    endloop
  endfacet
  facet normal 0 -0 -1
    outer loop
      vertex 2.03 1.5 0
      vertex 2.43 1.5 0
      vertex 2.01 1.2 0
    endloop
  endfacet
  facet normal 0 -0 -1
    outer loop
      vertex 2.08 1.8 0
      vertex 2.47 1.8 0
      vertex 2.03 1.5 0
    endloop
  endfacet
  facet normal 0 -0 -1
    outer loop
      vertex 2.16 2.1 0
      vertex 2.53 2.1 0
      vertex 2.08 1.8 0
    endloop
  endfacet
  facet normal 0 -0 -1
    outer loop
      vertex 2.29 2.4 0
      vertex 2.63 2.4 0
      vertex 2.16 2.1 0
    endloop
  endfacet
  facet normal 0 -0 -1
    outer loop
      vertex 2.47 2.7 0
      vertex 2.78 2.7 0
      vertex 2.29 2.4 0
    endloop
  endfacet
  facet normal 0 -0 -1
    outer loop
      vertex 3 3 0
      vertex 3.2 3 0
      vertex 2.47 2.7 0
    endloop
  endfacet
  facet normal 0 0 -1
    outer loop
      vertex 2.4 0.3 0
      vertex 2.8 0.3 0
      vertex 2.4 0 0
    endloop
  endfacet
  facet normal 0 0 -1
    outer loop
      vertex 2.4 0.6 0
      vertex 2.8 0.6 0
      vertex 2.4 0.3 0
    endloop
  endfacet
  facet normal 0 0 -1
    outer loop
      vertex 2.4 0.9 0
      vertex 2.8 0.9 0
      vertex 2.4 0.6 0
    endloop
  endfacet
  facet normal 0 0 -1
    outer loop
      vertex 2.4 1.2 0
      vertex 2.8 1.2 0
      vertex 2.4 0.9 0
    endloop
  endfacet
  facet normal 0 -0 -1
    outer loop
      vertex 2.43 1.5 0
      vertex 2.82 1.5 0
      vertex 2.4 1.2 0
    endloop
  endfacet
  facet normal 0 -0 -1
    outer loop
      vertex 2.47 1.8 0
      vertex 2.85 1.8 0
      vertex 2.43 1.5 0
    endloop
  endfacet
  facet normal 0 -0 -1
    outer loop
      vertex 2.53 2.1 0
      vertex 2.9 2.1 0
      vertex 2.47 1.8 0
    endloop
  endfacet
  facet normal 0 -0 -1
    outer loop
      vertex 2.63 2.4 0
      vertex 2.97 2.4 0
      vertex 2.53 2.1 0
    endloop
  endfacet
  facet normal 0 -0 -1
    outer loop
      vertex 2.78 2.7 0
      vertex 3.08 2.7 0
      vertex 2.63 2.4 0
    endloop
  endfacet
  facet normal 0 -0 -1
    outer loop
      vertex 3.2 3 0
      vertex 3.4 3 0
      vertex 2.78 2.7 0
    endloop
  endfacet
  facet normal 0 0 -1
    outer loop
      vertex 2.8 0.3 0
      vertex 3.2 0.3 0
      vertex 2.8 0 0
    endloop
  endfacet
  facet normal 0 0 -1
    outer loop
      vertex 2.8 0.6 0
      vertex 3.2 0.6 0
      vertex 2.8 0.3 0
    endloop
  endfacet
  facet normal 0 0 -1
    outer loop
      vertex 2.8 0.9 0
      vertex 3.2 0.9 0
      vertex 2.8 0.6 0
    endloop
  endfacet
  facet normal 0 0 -1
    outer loop
      vertex 2.8 1.2 0
      vertex 3.2 1.2 0
      vertex 2.8 0.9 0
    endloop
  endfacet
  facet normal 0 -0 -1
    outer loop
      vertex 2.82 1.5 0
      vertex 3.21 1.5 0
      vertex 2.8 1.2 0
    endloop
  endfacet
  facet normal 0 -0 -1
    outer loop
      vertex 2.85 1.8 0
      vertex 3.23 1.8 0
      vertex 2.82 1.5 0
    endloop
  endfacet
  facet normal 0 -0 -1
    outer loop
      vertex 2.9 2.1 0
      vertex 3.27 2.1 0
      vertex 2.85 1.8 0
    endloop
  endfacet
  facet normal 0 -0 -1
    outer loop
      vertex 2.97 2.4 0
      vertex 3.31 2.4 0
      vertex 2.9 2.1 0
    endloop
  endfacet
  facet normal 0 -0 -1
    outer loop
      vertex 3.08 2.7 0
      vertex 3.39 2.7 0
      vertex 2.97 2.4 0
    endloop
  endfacet
  facet normal 0 -0 -1
    outer loop
      vertex 3.4 3 0
      vertex 3.6 3 0
      vertex 3.08 2.7 0
    endloop
  endfacet
  facet normal 0 0 -1
    outer loop
      vertex 3.2 0.3 0
      vertex 3.6 0.3 0
      vertex 3.2 0 0
    endloop
  endfacet
  facet normal 0 0 -1
    outer loop
      vertex 3.2 0.6 0
      vertex 3.6 0.6 0
      vertex 3.2 0.3 0
    endloop
  endfacet
  facet normal 0 0 -1
    outer loop
      vertex 3.2 0.9 0
      vertex 3.6 0.9 0
      vertex 3.2 0.6 0
    endloop
  endfacet
  facet normal 0 0 -1
    outer loop
      vertex 3.2 1.2 0
      vertex 3.6 1.2 0
      vertex 3.2 0.9 0
    endloop
  endfacet
  facet normal 0 -0 -1
    outer loop
      vertex 3.21 1.5 0
      vertex 3.61 1.5 0
      vertex 3.2 1.2 0
    endloop
  endfacet
  facet normal 0 -0 -1
    outer loop
      vertex 3.23 1.8 0
      vertex 3.62 1.8 0
      vertex 3.21 1.5 0
    endloop
  endfacet
  facet normal 0 -0 -1
    outer loop
      vertex 3.27 2.1 0
      vertex 3.63 2.1 0
      vertex 3.23 1.8 0
    endloop
  endfacet
  facet normal 0 -0 -1
    outer loop
      vertex 3.31 2.4 0
      vertex 3.66 2.4 0
      vertex 3.27 2.1 0
    endloop
  endfacet
  facet normal 0 -0 -1
    outer loop
      vertex 3.39 2.7 0
      vertex 3.69 2.7 0
      vertex 3.31 2.4 0
    endloop
  endfacet
  facet normal 0 -0 -1
    outer loop
      vertex 3.6 3 0
      vertex 3.8 3 0
      vertex 3.39 2.7 0
    endloop
  endfacet
  facet normal 0 0 -1
    outer loop
      vertex 3.6 0.3 0
      vertex 4 0.3 0
      vertex 3.6 0 0
    endloop
  endfacet
  facet normal 0 0 -1
    outer loop
      vertex 3.6 0.6 0
      vertex 4 0.6 0
      vertex 3.6 0.3 0
    endloop
  endfacet
  facet normal 0 0 -1
    outer loop
      vertex 3.6 0.9 0
      vertex 4 0.9 0
      vertex 3.6 0.6 0
    endloop
  endfacet
  facet normal 0 0 -1
    outer loop
      vertex 3.6 1.2 0
      vertex 4 1.2 0
      vertex 3.6 0.9 0
    endloop
  endfacet
  facet normal 0 -0 -1
    outer loop
      vertex 3.61 1.5 0
      vertex 4 1.5 0
      vertex 3.6 1.2 0
    endloop
  endfacet
  facet normal 0 -0 -1
    outer loop
      vertex 3.62 1.8 0
      vertex 4 1.8 0
      vertex 3.61 1.5 0
    endloop
  endfacet
  facet normal 0 -0 -1
    outer loop
      vertex 3.63 2.1 0
      vertex 4 2.1 0
      vertex 3.62 1.8 0
    endloop
  endfacet
  facet normal 0 -0 -1
    outer loop
      vertex 3.66 2.4 0
      vertex 4 2.4 0
      vertex 3.63 2.1 0
    endloop
  endfacet
  facet normal 0 -0 -1
    outer loop
      vertex 3.69 2.7 0
      vertex 4 2.7 0
      vertex 3.66 2.4 0
    endloop
  endfacet
  facet normal 0 -0 -1
    outer loop
      vertex 3.8 3 0
      vertex 4 3 0
      vertex 3.69 2.7 0
    endloop
  endfacet
  facet normal 0 -0 -1
    outer loop
      vertex 0.4 0.3 0
      vertex 0.4 0 0
      vertex 0 0 0
    endloop
  endfacet
  facet normal 0 -0 -1
    outer loop
      vertex 0.4 0.6 0
      vertex 0.4 0.3 0
      vertex 0 0.3 0
    endloop
  endfacet
  facet normal 0 -0 -1
    outer loop
      vertex 0.4 0.9 0
      vertex 0.4 0.6 0
      vertex 0 0.6 0
    endloop
  endfacet
  facet normal 0 0 -1
    outer loop
      vertex 0.41 1.2 0
      vertex 0.4 0.9 0
      vertex 0 0.9 0
    endloop
  endfacet
  facet normal 0 0 -1
    outer loop
      vertex 0.46 1.5 0
      vertex 0.41 1.2 0
      vertex 0.01 1.2 0
    endloop
  endfacet
  facet normal 0 0 -1
    outer loop
      vertex 0.55 1.8 0
      vertex 0.46 1.5 0
      vertex 0.06 1.5 0
    endloop
  endfacet
  facet normal 0 0 -1
    outer loop
      vertex 0.7 2.1 0
      vertex 0.55 1.8 0
      vertex 0.17 1.8 0
    endloop
  endfacet
  facet normal 0 0 -1
    outer loop
      vertex 0.91 2.4 0
      vertex 0.7 2.1 0
      vertex 0.33 2.1 0
    endloop
  endfacet
  facet normal 0 0 -1
    outer loop
      vertex 1.25 2.7 0
      vertex 0.91 2.4 0
      vertex 0.57 2.4 0
    endloop
  endfacet
  facet normal 0 0 -1
    outer loop
      vertex 2.2 3 0
      vertex 1.25 2.7 0
      vertex 0.95 2.7 0
    endloop
  endfacet
  facet normal 0 -0 -1
    outer loop
      vertex 0.8 0.3 0
      vertex 0.8 0 0
      vertex 0.4 0 0
    endloop
  endfacet
  facet normal 0 -0 -1
    outer loop
      vertex 0.8 0.6 0
      vertex 0.8 0.3 0
      vertex 0.4 0.3 0
    endloop
  endfacet
  facet normal 0 -0 -1
    outer loop
      vertex 0.8 0.9 0
      vertex 0.8 0.6 0
      vertex 0.4 0.6 0
    endloop
  endfacet
  facet normal 0 0 -1
    outer loop
      vertex 0.81 1.2 0
      vertex 0.8 0.9 0
      vertex 0.4 0.9 0
    endloop
  endfacet
  facet normal 0 0 -1
    outer loop
      vertex 0.85 1.5 0
      vertex 0.81 1.2 0
      vertex 0.41 1.2 0
    endloop
  endfacet
  facet normal 0 0 -1
    outer loop
      vertex 0.93 1.8 0
      vertex 0.85 1.5 0
      vertex 0.46 1.5 0
    endloop
  endfacet
  facet normal 0 0 -1
    outer loop
      vertex 1.06 2.1 0
      vertex 0.93 1.8 0
      vertex 0.55 1.8 0
    endloop
  endfacet
  facet normal 0 0 -1
    outer loop
      vertex 1.26 2.4 0
      vertex 1.06 2.1 0
      vertex 0.7 2.1 0
    endloop
  endfacet
  facet normal 0 0 -1
    outer loop
      vertex 1.56 2.7 0
      vertex 1.26 2.4 0
      vertex 0.91 2.4 0
    endloop
  endfacet
  facet normal 0 0 -1
    outer loop
      vertex 2.4 3 0
      vertex 1.56 2.7 0
      vertex 1.25 2.7 0
    endloop
  endfacet
  facet normal 0 -0 -1
    outer loop
      vertex 1.2 0.3 0
      vertex 1.2 0 0
      vertex 0.8 0 0
    endloop
  endfacet
  facet normal 0 -0 -1
    outer loop
      vertex 1.2 0.6 0
      vertex 1.2 0.3 0
      vertex 0.8 0.3 0
    endloop
  endfacet
  facet normal 0 -0 -1
    outer loop
      vertex 1.2 0.9 0
      vertex 1.2 0.6 0
      vertex 0.8 0.6 0
    endloop
  endfacet
  facet normal 0 0 -1
    outer loop
      vertex 1.21 1.2 0
      vertex 1.2 0.9 0
      vertex 0.8 0.9 0
    endloop
  endfacet
  facet normal 0 0 -1
    outer loop
      vertex 1.24 1.5 0
      vertex 1.21 1.2 0
      vertex 0.81 1.2 0
    endloop
  endfacet
  facet normal 0 0 -1
    outer loop
      vertex 1.32 1.8 0
      vertex 1.24 1.5 0
      vertex 0.85 1.5 0
    endloop
  endfacet
  facet normal 0 0 -1
    outer loop
      vertex 1.43 2.1 0
      vertex 1.32 1.8 0
      vertex 0.93 1.8 0
    endloop
  endfacet
  facet normal 0 0 -1
    outer loop
      vertex 1.6 2.4 0
      vertex 1.43 2.1 0
      vertex 1.06 2.1 0
    endloop
  endfacet
  facet normal 0 0 -1
    outer loop
      vertex 1.86 2.7 0
      vertex 1.6 2.4 0
      vertex 1.26 2.4 0
    endloop
  endfacet
  facet normal 0 0 -1
    outer loop
      vertex 2.6 3 0
      vertex 1.86 2.7 0
      vertex 1.56 2.7 0
    endloop
  endfacet
  facet normal 0 -0 -1
    outer loop
      vertex 1.6 0.3 0
      vertex 1.6 0 0
      vertex 1.2 0 0
    endloop
  endfacet
  facet normal 0 -0 -1
    outer loop
      vertex 1.6 0.6 0
      vertex 1.6 0.3 0
      vertex 1.2 0.3 0
    endloop
  endfacet
  facet normal 0 -0 -1
    outer loop
      vertex 1.6 0.9 0
      vertex 1.6 0.6 0
      vertex 1.2 0.6 0
    endloop
  endfacet
  facet normal 0 0 -1
    outer loop
      vertex 1.61 1.2 0
      vertex 1.6 0.9 0
      vertex 1.2 0.9 0
    endloop
  endfacet
  facet normal 0 0 -1
    outer loop
      vertex 1.64 1.5 0
      vertex 1.61 1.2 0
      vertex 1.21 1.2 0
    endloop
  endfacet
  facet normal 0 0 -1
    outer loop
      vertex 1.7 1.8 0
      vertex 1.64 1.5 0
      vertex 1.24 1.5 0
    endloop
  endfacet
  facet normal 0 0 -1
    outer loop
      vertex 1.8 2.1 0
      vertex 1.7 1.8 0
      vertex 1.32 1.8 0
    endloop
  endfacet
  facet normal 0 0 -1
    outer loop
      vertex 1.94 2.4 0
      vertex 1.8 2.1 0
      vertex 1.43 2.1 0
    endloop
  endfacet
  facet normal 0 0 -1
    outer loop
      vertex 2.17 2.7 0
      vertex 1.94 2.4 0
      vertex 1.6 2.4 0
    endloop
  endfacet
  facet normal 0 0 -1
    outer loop
      vertex 2.8 3 0
      vertex 2.17 2.7 0
      vertex 1.86 2.7 0
    endloop
  endfacet
  facet normal 0 -0 -1
    outer loop
      vertex 2 0.3 0
      vertex 2 0 0
      vertex 1.6 0 0
    endloop
  endfacet
  facet normal 0 -0 -1
    outer loop
      vertex 2 0.6 0
      vertex 2 0.3 0
      vertex 1.6 0.3 0
    endloop
  endfacet
  facet normal 0 -0 -1
    outer loop
      vertex 2 0.9 0
      vertex 2 0.6 0
      vertex 1.6 0.6 0
    endloop
  endfacet
  facet normal 0 0 -1
    outer loop
      vertex 2.01 1.2 0
      vertex 2 0.9 0
      vertex 1.6 0.9 0
    endloop
  endfacet
  facet normal 0 0 -1
    outer loop
      vertex 2.03 1.5 0
      vertex 2.01 1.2 0
      vertex 1.61 1.2 0
    endloop
  endfacet
  facet normal 0 0 -1
    outer loop
      vertex 2.08 1.8 0
      vertex 2.03 1.5 0
      vertex 1.64 1.5 0
    endloop
  endfacet
  facet normal 0 0 -1
    outer loop
      vertex 2.16 2.1 0
      vertex 2.08 1.8 0
      vertex 1.7 1.8 0
    endloop
  endfacet
  facet normal 0 0 -1
    outer loop
      vertex 2.29 2.4 0
      vertex 2.16 2.1 0
      vertex 1.8 2.1 0
    endloop
  endfacet
  facet normal 0 0 -1
    outer loop
      vertex 2.47 2.7 0
      vertex 2.29 2.4 0
      vertex 1.94 2.4 0
    endloop
  endfacet
  facet normal 0 0 -1
    outer loop
      vertex 3 3 0
      vertex 2.47 2.7 0
      vertex 2.17 2.7 0
    endloop
  endfacet
  facet normal 0 -0 -1
    outer loop
      vertex 2.4 0.3 0
      vertex 2.4 0 0
      vertex 2 0 0
    endloop
  endfacet
  facet normal 0 -0 -1
    outer loop
      vertex 2.4 0.6 0
      vertex 2.4 0.3 0
      vertex 2 0.3 0
    endloop
  endfacet
  facet normal 0 -0 -1
    outer loop
      vertex 2.4 0.9 0
      vertex 2.4 0.6 0
      vertex 2 0.6 0
    endloop
  endfacet
  facet normal 0 -0 -1
    outer loop
      vertex 2.4 1.2 0
      vertex 2.4 0.9 0
      vertex 2 0.9 0
    endloop
  endfacet
  facet normal 0 0 -1
    outer loop
      vertex 2.43 1.5 0
      vertex 2.4 1.2 0
      vertex 2.01 1.2 0
    endloop
  endfacet
  facet normal 0 0 -1
    outer loop
      vertex 2.47 1.8 0
      vertex 2.43 1.5 0
      vertex 2.03 1.5 0
    endloop
  endfacet
  facet normal 0 0 -1
    outer loop
      vertex 2.53 2.1 0
      vertex 2.47 1.8 0
      vertex 2.08 1.8 0
    endloop
  endfacet
  facet normal 0 0 -1
    outer loop
      vertex 2.63 2.4 0
      vertex 2.53 2.1 0
      vertex 2.16 2.1 0
    endloop
  endfacet
  facet normal 0 0 -1
    outer loop
      vertex 2.78 2.7 0
      vertex 2.63 2.4 0
      vertex 2.29 2.4 0
    endloop
  endfacet
  facet normal 0 0 -1
    outer loop
      vertex 3.2 3 0
      vertex 2.78 2.7 0
      vertex 2.47 2.7 0
    endloop
  endfacet
  facet normal 0 -0 -1
    outer loop
      vertex 2.8 0.3 0
      vertex 2.8 0 0
      vertex 2.4 0 0
    endloop
  endfacet
  facet normal 0 -0 -1
    outer loop
      vertex 2.8 0.6 0
      vertex 2.8 0.3 0
      vertex 2.4 0.3 0
    endloop
  endfacet
  facet normal 0 -0 -1
    outer loop
      vertex 2.8 0.9 0
      vertex 2.8 0.6 0
      vertex 2.4 0.6 0
    endloop
  endfacet
  facet normal 0 -0 -1
    outer loop
      vertex 2.8 1.2 0
      vertex 2.8 0.9 0
      vertex 2.4 0.9 0
    endloop
  endfacet
  facet normal 0 0 -1
    outer loop
      vertex 2.82 1.5 0
      vertex 2.8 1.2 0
      vertex 2.4 1.2 0
    endloop
  endfacet
  facet normal 0 0 -1
    outer loop
      vertex 2.85 1.8 0
      vertex 2.82 1.5 0
      vertex 2.43 1.5 0
    endloop
  endfacet
  facet normal 0 0 -1
    outer loop
      vertex 2.9 2.1 0
      vertex 2.85 1.8 0
      vertex 2.47 1.8 0
    endloop
  endfacet
  facet normal 0 0 -1
    outer loop
      vertex 2.97 2.4 0
      vertex 2.9 2.1 0
      vertex 2.53 2.1 0
    endloop
  endfacet
  facet normal 0 0 -1
    outer loop
      vertex 3.08 2.7 0
      vertex 2.97 2.4 0
      vertex 2.63 2.4 0
    endloop
  endfacet
  facet normal 0 0 -1
    outer loop
      vertex 3.4 3 0
      vertex 3.08 2.7 0
      vertex 2.78 2.7 0
    endloop
  endfacet
  facet normal 0 -0 -1
    outer loop
      vertex 3.2 0.3 0
      vertex 3.2 0 0
      vertex 2.8 0 0
    endloop
  endfacet
  facet normal 0 -0 -1
    outer loop
      vertex 3.2 0.6 0
      vertex 3.2 0.3 0
      vertex 2.8 0.3 0
    endloop
  endfacet
  facet normal 0 -0 -1
    outer loop
      vertex 3.2 0.9 0
      vertex 3.2 0.6 0
      vertex 2.8 0.6 0
    endloop
  endfacet
  facet normal 0 -0 -1
    outer loop
      vertex 3.2 1.2 0
      vertex 3.2 0.9 0
      vertex 2.8 0.9 0
    endloop
  endfacet
  facet normal 0 0 -1
    outer loop
      vertex 3.21 1.5 0
      vertex 3.2 1.2 0
      vertex 2.8 1.2 0
    endloop
  endfacet
  facet normal 0 0 -1
    outer loop
      vertex 3.23 1.8 0
      vertex 3.21 1.5 0
      vertex 2.82 1.5 0
    endloop
  endfacet
  facet normal 0 0 -1
    outer loop
      vertex 3.27 2.1 0
      vertex 3.23 1.8 0
      vertex 2.85 1.8 0
    endloop
  endfacet
  facet normal 0 0 -1
    outer loop
      vertex 3.31 2.4 0
      vertex 3.27 2.1 0
      vertex 2.9 2.1 0
    endloop
  endfacet
  facet normal 0 0 -1
    outer loop
      vertex 3.39 2.7 0
      vertex 3.31 2.4 0
      vertex 2.97 2.4 0
    endloop
  endfacet
  facet normal 0 0 -1
    outer loop
      vertex 3.6 3 0
      vertex 3.39 2.7 0
      vertex 3.08 2.7 0
    endloop
  endfacet
  facet normal 0 -0 -1
    outer loop
      vertex 3.6 0.3 0
      vertex 3.6 0 0
      vertex 3.2 0 0
    endloop
  endfacet
  facet normal 0 -0 -1
    outer loop
      vertex 3.6 0.6 0
      vertex 3.6 0.3 0
      vertex 3.2 0.3 0
    endloop
  endfacet
  facet normal 0 -0 -1
    outer loop
      vertex 3.6 0.9 0
      vertex 3.6 0.6 0
      vertex 3.2 0.6 0
    endloop
  endfacet
  facet normal 0 -0 -1
    outer loop
      vertex 3.6 1.2 0
      vertex 3.6 0.9 0
      vertex 3.2 0.9 0
    endloop
  endfacet
  facet normal 0 0 -1
    outer loop
      vertex 3.61 1.5 0
      vertex 3.6 1.2 0
      vertex 3.2 1.2 0
    endloop
  endfacet
  facet normal 0 0 -1
    outer loop
      vertex 3.62 1.8 0
      vertex 3.61 1.5 0
      vertex 3.21 1.5 0
    endloop
  endfacet
  facet normal 0 0 -1
    outer loop
      vertex 3.63 2.1 0
      vertex 3.62 1.8 0
      vertex 3.23 1.8 0
    endloop
  endfacet
  facet normal 0 0 -1
    outer loop
      vertex 3.66 2.4 0
      vertex 3.63 2.1 0
      vertex 3.27 2.1 0
    endloop
  endfacet
  facet normal 0 0 -1
    outer loop
      vertex 3.69 2.7 0
      vertex 3.66 2.4 0
      vertex 3.31 2.4 0
    endloop
  endfacet
  facet normal 0 0 -1
    outer loop
      vertex 3.8 3 0
      vertex 3.69 2.7 0
      vertex 3.39 2.7 0
    endloop
  endfacet
  facet normal 0 -0 -1
    outer loop
      vertex 4 0.3 0
      vertex 4 0 0
      vertex 3.6 0 0
    endloop
  endfacet
  facet normal 0 -0 -1
    outer loop
      vertex 4 0.6 0
      vertex 4 0.3 0
      vertex 3.6 0.3 0
    endloop
  endfacet
  facet normal 0 -0 -1
    outer loop
      vertex 4 0.9 0
      vertex 4 0.6 0
      vertex 3.6 0.6 0
    endloop
  endfacet
  facet normal 0 -0 -1
    outer loop
      vertex 4 1.2 0
      vertex 4 0.9 0
      vertex 3.6 0.9 0
    endloop
  endfacet
  facet normal 0 -0 -1
    outer loop
      vertex 4 1.5 0
      vertex 4 1.2 0
      vertex 3.6 1.2 0
    endloop
  endfacet
  facet normal 0 -0 -1
    outer loop
      vertex 4 1.8 0
      vertex 4 1.5 0
      vertex 3.61 1.5 0
    endloop
  endfacet
  facet normal 0 -0 -1
    outer loop
      vertex 4 2.1 0
      vertex 4 1.8 0
      vertex 3.62 1.8 0
    endloop
  endfacet
  facet normal 0 -0 -1
    outer loop
      vertex 4 2.4 0
      vertex 4 2.1 0
      vertex 3.63 2.1 0
    endloop
  endfacet
  facet normal 0 -0 -1
    outer loop
      vertex 4 2.7 0
      vertex 4 2.4 0
      vertex 3.66 2.4 0
    endloop
  endfacet
  facet normal 0 -0 -1
    outer loop
      vertex 4 3 0
      vertex 4 2.7 0
      vertex 3.69 2.7 0
    endloop
  endfacet
  facet normal 0 0 1
    outer loop
      vertex 0 0 -0.001
      vertex 0.4 0.3 -0.001
      vertex 0 0.3 -0.001
    endloop
  endfacet
  facet normal 0 0 1
    outer loop
      vertex 0 0.3 -0.001
      vertex 0.4 0.6 -0.001
      vertex 0 0.6 -0.001
    endloop
  endfacet
  facet normal 0 0 1
    outer loop
      vertex 0 0.6 -0.001
      vertex 0.4 0.9 -0.001
      vertex 0 0.9 -0.001
    endloop
  endfacet
  facet normal 0 0 1
    outer loop
      vertex 0 0.9 -0.001
      vertex 0.41 1.2 -0.001
      vertex 0.01 1.2 -0.001
    endloop
  endfacet
  facet normal 0 0 1
    outer loop
      vertex 0.01 1.2 -0.001
      vertex 0.46 1.5 -0.001
      vertex 0.06 1.5 -0.001
    endloop
  endfacet
  facet normal 0 0 1
    outer loop
      vertex 0.06 1.5 -0.001
      vertex 0.55 1.8 -0.001
      vertex 0.17 1.8 -0.001
    endloop
  endfacet
  facet normal 0 0 1
    outer loop
      vertex 0.17 1.8 -0.001
      vertex 0.7 2.1 -0.001
      vertex 0.33 2.1 -0.001
    endloop
  endfacet
  facet normal 0 0 1
    outer loop
      vertex 0.33 2.1 -0.001
      vertex 0.91 2.4 -0.001
      vertex 0.57 2.4 -0.001
    endloop
  endfacet
  facet normal 0 0 1
    outer loop
      vertex 0.57 2.4 -0.001
      vertex 1.25 2.7 -0.001
      vertex 0.95 2.7 -0.001
    endloop
  endfacet
  facet normal 0 0 1
    outer loop
      vertex 0.95 2.7 -0.001
      vertex 2.2 3 -0.001
      vertex 2 3 -0.001
    endloop
  endfacet
  facet normal 0 0 1
    outer loop
      vertex 0.4 0 -0.001
      vertex 0.8 0.3 -0.001
      vertex 0.4 0.3 -0.001
    endloop
  endfacet
  facet normal 0 0 1
    outer loop
      vertex 0.4 0.3 -0.001
      vertex 0.8 0.6 -0.001
      vertex 0.4 0.6 -0.001
    endloop
  endfacet
  facet normal 0 0 1
    outer loop
      vertex 0.4 0.6 -0.001
      vertex 0.8 0.9 -0.001
      vertex 0.4 0.9 -0.001
    endloop
  endfacet
  facet normal 0 0 1
    outer loop
      vertex 0.4 0.9 -0.001
      vertex 0.81 1.2 -0.001
      vertex 0.41 1.2 -0.001
    endloop
  endfacet
  facet normal 0 0 1
    outer loop
      vertex 0.41 1.2 -0.001
      vertex 0.85 1.5 -0.001
      vertex 0.46 1.5 -0.001
    endloop
  endfacet
  facet normal 0 0 1
    outer loop
      vertex 0.46 1.5 -0.001
      vertex 0.93 1.8 -0.001
      vertex 0.55 1.8 -0.001
    endloop
  endfacet
  facet normal 0 0 1
    outer loop
      vertex 0.55 1.8 -0.001
      vertex 1.06 2.1 -0.001
      vertex 0.7 2.1 -0.001
    endloop
  endfacet
  facet normal 0 0 1
    outer loop
      vertex 0.7 2.1 -0.001
      vertex 1.26 2.4 -0.001
      vertex 0.91 2.4 -0.001
    endloop
  endfacet
  facet normal 0 0 1
    outer loop
      vertex 0.91 2.4 -0.001
      vertex 1.56 2.7 -0.001
      vertex 1.25 2.7 -0.001
    endloop
  endfacet
  facet normal 0 0 1
    outer loop
      vertex 1.25 2.7 -0.001
      vertex 2.4 3 -0.001
      vertex 2.2 3 -0.001
    endloop
  endfacet
  facet normal 0 0 1
    outer loop
      vertex 0.8 0 -0.001
      vertex 1.2 0.3 -0.001
      vertex 0.8 0.3 -0.001
    endloop
  endfacet
  facet normal 0 0 1
    outer loop
      vertex 0.8 0.3 -0.001
      vertex 1.2 0.6 -0.001
      vertex 0.8 0.6 -0.001
    endloop
  endfacet
  facet normal 0 0 1
    outer loop
      vertex 0.8 0.6 -0.001
      vertex 1.2 0.9 -0.001
      vertex 0.8 0.9 -0.001
    endloop
  endfacet
  facet normal 0 0 1
    outer loop
      vertex 0.8 0.9 -0.001
      vertex 1.21 1.2 -0.001
      vertex 0.81 1.2 -0.001
    endloop
  endfacet
  facet normal 0 0 1
    outer loop
      vertex 0.81 1.2 -0.001
      vertex 1.24 1.5 -0.001
      vertex 0.85 1.5 -0.001
    endloop
  endfacet
  facet normal 0 0 1
    outer loop
      vertex 0.85 1.5 -0.001
      vertex 1.32 1.8 -0.001
      vertex 0.93 1.8 -0.001
    endloop
  endfacet
  facet normal 0 0 1
    outer loop
      vertex 0.93 1.8 -0.001
      vertex 1.43 2.1 -0.001
      vertex 1.06 2.1 -0.001
    endloop
  endfacet
  facet normal 0 0 1
    outer loop
      vertex 1.06 2.1 -0.001
      vertex 1.6 2.4 -0.001
      vertex 1.26 2.4 -0.001
    endloop
  endfacet
  facet normal 0 0 1
    outer loop
      vertex 1.26 2.4 -0.001
      vertex 1.86 2.7 -0.001
      vertex 1.56 2.7 -0.001
    endloop
  endfacet
  facet normal 0 0 1
    outer loop
      vertex 1.56 2.7 -0.001
      vertex 2.6 3 -0.001
      vertex 2.4 3 -0.001
    endloop
  endfacet
  facet normal 0 0 1
    outer loop
      vertex 1.2 0 -0.001
      vertex 1.6 0.3 -0.001
      vertex 1.2 0.3 -0.001
    endloop
  endfacet
  facet normal 0 0 1
    outer loop
      vertex 1.2 0.3 -0.001
      vertex 1.6 0.6 -0.001
      vertex 1.2 0.6 -0.001
    endloop
  endfacet
  facet normal 0 0 1
    outer loop
      vertex 1.2 0.6 -0.001
      vertex 1.6 0.9 -0.001
      vertex 1.2 0.9 -0.001
    endloop
  endfacet
  facet normal 0 0 1
    outer loop
      vertex 1.2 0.9 -0.001
      vertex 1.61 1.2 -0.001
      vertex 1.21 1.2 -0.001
    endloop
  endfacet
  facet normal 0 0 1
    outer loop
      vertex 1.21 1.2 -0.001
      vertex 1.64 1.5 -0.001
      vertex 1.24 1.5 -0.001
    endloop
  endfacet
  facet normal 0 0 1
    outer loop
      vertex 1.24 1.5 -0.001
      vertex 1.7 1.8 -0.001
      vertex 1.32 1.8 -0.001
    endloop
  endfacet
  facet normal 0 0 1
    outer loop
      vertex 1.32 1.8 -0.001
      vertex 1.8 2.1 -0.001
      vertex 1.43 2.1 -0.001
    endloop
  endfacet
  facet normal 0 0 1
    outer loop
      vertex 1.43 2.1 -0.001
      vertex 1.94 2.4 -0.001
      vertex 1.6 2.4 -0.001
    endloop
  endfacet
  facet normal 0 0 1
    outer loop
      vertex 1.6 2.4 -0.001
      vertex 2.17 2.7 -0.001
      vertex 1.86 2.7 -0.001
    endloop
  endfacet
  facet normal 0 0 1
    outer loop
      vertex 1.86 2.7 -0.001
      vertex 2.8 3 -0.001
      vertex 2.6 3 -0.001
    endloop
  endfacet
  facet normal 0 0 1
    outer loop
      vertex 1.6 0 -0.001
      vertex 2 0.3 -0.001
      vertex 1.6 0.3 -0.001
    endloop
  endfacet
  facet normal 0 0 1
    outer loop
      vertex 1.6 0.3 -0.001
      vertex 2 0.6 -0.001
      vertex 1.6 0.6 -0.001
    endloop
  endfacet
  facet normal 0 0 1
    outer loop
      vertex 1.6 0.6 -0.001
      vertex 2 0.9 -0.001
      vertex 1.6 0.9 -0.001
    endloop
  endfacet
  facet normal 0 0 1
    outer loop
      vertex 1.6 0.9 -0.001
      vertex 2.01 1.2 -0.001
      vertex 1.61 1.2 -0.001
    endloop
  endfacet
  facet normal 0 0 1
    outer loop
      vertex 1.61 1.2 -0.001
      vertex 2.03 1.5 -0.001
      vertex 1.64 1.5 -0.001
    endloop
  endfacet
  facet normal 0 0 1
    outer loop
      vertex 1.64 1.5 -0.001
      vertex 2.08 1.8 -0.001
      vertex 1.7 1.8 -0.001
    endloop
  endfacet
  facet normal 0 0 1
    outer loop
      vertex 1.7 1.8 -0.001
      vertex 2.16 2.1 -0.001
      vertex 1.8 2.1 -0.001
    endloop
  endfacet
  facet normal 0 0 1
    outer loop
      vertex 1.8 2.1 -0.001
      vertex 2.29 2.4 -0.001
      vertex 1.94 2.4 -0.001
    endloop
  endfacet
  facet normal 0 0 1
    outer loop
      vertex 1.94 2.4 -0.001
      vertex 2.47 2.7 -0.001
      vertex 2.17 2.7 -0.001
    endloop
  endfacet
  facet normal 0 0 1
    outer loop
      vertex 2.17 2.7 -0.001
      vertex 3 3 -0.001
      vertex 2.8 3 -0.001
    endloop
  endfacet
  facet normal 0 0 1
    outer loop
      vertex 2 0 -0.001
      vertex 2.4 0.3 -0.001
      vertex 2 0.3 -0.001
    endloop
  endfacet
  facet normal 0 0 1
    outer loop
      vertex 2 0.3 -0.001
      vertex 2.4 0.6 -0.001
      vertex 2 0.6 -0.001
    endloop
  endfacet
  facet normal 0 0 1
    outer loop
      vertex 2 0.6 -0.001
      vertex 2.4 0.9 -0.001
      vertex 2 0.9 -0.001
    endloop
  endfacet
  facet normal 0 0 1
    outer loop
      vertex 2 0.9 -0.001
      vertex 2.4 1.2 -0.001
      vertex 2.01 1.2 -0.001
    endloop
  endfacet
  facet normal 0 0 1
    outer loop
      vertex 2.01 1.2 -0.001
      vertex 2.43 1.5 -0.001
      vertex 2.03 1.5 -0.001
    endloop
  endfacet
  facet normal 0 0 1
    outer loop
      vertex 2.03 1.5 -0.001
      vertex 2.47 1.8 -0.001
      vertex 2.08 1.8 -0.001
    endloop
  endfacet
  facet normal 0 0 1
    outer loop
      vertex 2.08 1.8 -0.001
      vertex 2.53 2.1 -0.001
      vertex 2.16 2.1 -0.001
    endloop
  endfacet
  facet normal 0 0 1
    outer loop
      vertex 2.16 2.1 -0.001
      vertex 2.63 2.4 -0.001
      vertex 2.29 2.4 -0.001
    endloop
  endfacet
  facet normal 0 0 1
    outer loop
      vertex 2.29 2.4 -0.001
      vertex 2.78 2.7 -0.001
      vertex 2.47 2.7 -0.001
    endloop
  endfacet
  facet normal 0 0 1
    outer loop
      vertex 2.47 2.7 -0.001
      vertex 3.2 3 -0.001
      vertex 3 3 -0.001
    endloop
  endfacet
  facet normal 0 0 1
    outer loop
      vertex 2.4 0 -0.001
      vertex 2.8 0.3 -0.001
      vertex 2.4 0.3 -0.001
    endloop
  endfacet
  facet normal 0 0 1
    outer loop
      vertex 2.4 0.3 -0.001
      vertex 2.8 0.6 -0.001
      vertex 2.4 0.6 -0.001
    endloop
  endfacet
  facet normal 0 0 1
    outer loop
      vertex 2.4 0.6 -0.001
      vertex 2.8 0.9 -0.001
      vertex 2.4 0.9 -0.001
    endloop
  endfacet
  facet normal 0 0 1
    outer loop
      vertex 2.4 0.9 -0.001
      vertex 2.8 1.2 -0.001
      vertex 2.4 1.2 -0.001
    endloop
  endfacet
  facet normal 0 0 1
    outer loop
      vertex 2.4 1.2 -0.001
      vertex 2.82 1.5 -0.001
      vertex 2.43 1.5 -0.001
    endloop
  endfacet
  facet normal 0 0 1
    outer loop
      vertex 2.43 1.5 -0.001
      vertex 2.85 1.8 -0.001
      vertex 2.47 1.8 -0.001
    endloop
  endfacet
  facet normal 0 0 1
    outer loop
      vertex 2.47 1.8 -0.001
      vertex 2.9 2.1 -0.001
      vertex 2.53 2.1 -0.001
    endloop
  endfacet
  facet normal 0 0 1
    outer loop
      vertex 2.53 2.1 -0.001
      vertex 2.97 2.4 -0.001
      vertex 2.63 2.4 -0.001
    endloop
  endfacet
  facet normal 0 0 1
    outer loop
      vertex 2.63 2.4 -0.001
      vertex 3.08 2.7 -0.001
      vertex 2.78 2.7 -0.001
    endloop
  endfacet
  facet normal 0 0 1
    outer loop
      vertex 2.78 2.7 -0.001
      vertex 3.4 3 -0.001
      vertex 3.2 3 -0.001
    endloop
  endfacet
  facet normal 0 0 1
    outer loop
      vertex 2.8 0 -0.001
      vertex 3.2 0.3 -0.001
      vertex 2.8 0.3 -0.001
    endloop
  endfacet
  facet normal 0 0 1
    outer loop
      vertex 2.8 0.3 -0.001
      vertex 3.2 0.6 -0.001
      vertex 2.8 0.6 -0.001
    endloop
  endfacet
  facet normal 0 0 1
    outer loop
      vertex 2.8 0.6 -0.001
      vertex 3.2 0.9 -0.001
      vertex 2.8 0.9 -0.001
    endloop
  endfacet
  facet normal 0 0 1
    outer loop
      vertex 2.8 0.9 -0.001
      vertex 3.2 1.2 -0.001
      vertex 2.8 1.2 -0.001
    endloop
  endfacet
  facet normal 0 0 1
    outer loop
      vertex 2.8 1.2 -0.001
      vertex 3.21 1.5 -0.001
      vertex 2.82 1.5 -0.001
    endloop
  endfacet
  facet normal 0 0 1
    outer loop
      vertex 2.82 1.5 -0.001
      vertex 3.23 1.8 -0.001
      vertex 2.85 1.8 -0.001
    endloop
  endfacet
  facet normal 0 0 1
    outer loop
      vertex 2.85 1.8 -0.001
      vertex 3.27 2.1 -0.001
      vertex 2.9 2.1 -0.001
    endloop
  endfacet
  facet normal 0 0 1
    outer loop
      vertex 2.9 2.1 -0.001
      vertex 3.31 2.4 -0.001
      vertex 2.97 2.4 -0.001
    endloop
  endfacet
  facet normal 0 0 1
    outer loop
      vertex 2.97 2.4 -0.001
      vertex 3.39 2.7 -0.001
      vertex 3.08 2.7 -0.001
    endloop
  endfacet
  facet normal 0 0 1
    outer loop
      vertex 3.08 2.7 -0.001
      vertex 3.6 3 -0.001
      vertex 3.4 3 -0.001
    endloop
  endfacet
  facet normal 0 0 1
    outer loop
      vertex 3.2 0 -0.001
      vertex 3.6 0.3 -0.001
      vertex 3.2 0.3 -0.001
    endloop
  endfacet
  facet normal 0 0 1
    outer loop
      vertex 3.2 0.3 -0.001
      vertex 3.6 0.6 -0.001
      vertex 3.2 0.6 -0.001
    endloop
  endfacet
  facet normal 0 0 1
    outer loop
      vertex 3.2 0.6 -0.001
      vertex 3.6 0.9 -0.001
      vertex 3.2 0.9 -0.001
    endloop
  endfacet
  facet normal 0 0 1
    outer loop
      vertex 3.2 0.9 -0.001
      vertex 3.6 1.2 -0.001
      vertex 3.2 1.2 -0.001
    endloop
  endfacet
  facet normal 0 0 1
    outer loop
      vertex 3.2 1.2 -0.001
      vertex 3.61 1.5 -0.001
      vertex 3.21 1.5 -0.001
    endloop
  endfacet
  facet normal 0 0 1
    outer loop
      vertex 3.21 1.5 -0.001
      vertex 3.62 1.8 -0.001
      vertex 3.23 1.8 -0.001
    endloop
  endfacet
  facet normal 0 0 1
    outer loop
      vertex 3.23 1.8 -0.001
      vertex 3.63 2.1 -0.001
      vertex 3.27 2.1 -0.001
    endloop
  endfacet
  facet normal 0 0 1
    outer loop
      vertex 3.27 2.1 -0.001
      vertex 3.66 2.4 -0.001
      vertex 3.31 2.4 -0.001
    endloop
  endfacet
  facet normal 0 0 1
    outer loop
      vertex 3.31 2.4 -0.001
      vertex 3.69 2.7 -0.001
      vertex 3.39 2.7 -0.001
    endloop
  endfacet
  facet normal 0 0 1
    outer loop
      vertex 3.39 2.7 -0.001
      vertex 3.8 3 -0.001
      vertex 3.6 3 -0.001
    endloop
  endfacet
  facet normal 0 0 1
    outer loop
      vertex 3.6 0 -0.001
      vertex 4 0.3 -0.001
      vertex 3.6 0.3 -0.001
    endloop
  endfacet
  facet normal 0 0 1
    outer loop
      vertex 3.6 0.3 -0.001
      vertex 4 0.6 -0.001
      vertex 3.6 0.6 -0.001
    endloop
  endfacet
  facet normal 0 0 1
    outer loop
      vertex 3.6 0.6 -0.001
      vertex 4 0.9 -0.001
      vertex 3.6 0.9 -0.001
    endloop
  endfacet
  facet normal 0 0 1
    outer loop
      vertex 3.6 0.9 -0.001
      vertex 4 1.2 -0.001
      vertex 3.6 1.2 -0.001
    endloop
  endfacet
  facet normal 0 0 1
    outer loop
      vertex 3.6 1.2 -0.001
      vertex 4 1.5 -0.001
      vertex 3.61 1.5 -0.001
    endloop
  endfacet
  facet normal 0 0 1
    outer loop
      vertex 3.61 1.5 -0.001
      vertex 4 1.8 -0.001
      vertex 3.62 1.8 -0.001
    endloop
  endfacet
  facet normal 0 0 1
    outer loop
      vertex 3.62 1.8 -0.001
      vertex 4 2.1 -0.001
      vertex 3.63 2.1 -0.001
    endloop
  endfacet
  facet normal 0 0 1
    outer loop
      vertex 3.63 2.1 -0.001
      vertex 4 2.4 -0.001
      vertex 3.66 2.4 -0.001
    endloop
  endfacet
  facet normal 0 0 1
    outer loop
      vertex 3.66 2.4 -0.001
      vertex 4 2.7 -0.001
      vertex 3.69 2.7 -0.001
    endloop
  endfacet
  facet normal 0 0 1
    outer loop
      vertex 3.69 2.7 -0.001
      vertex 4 3 -0.001
      vertex 3.8 3 -0.001
    endloop
  endfacet
  facet normal 0 0 1
    outer loop
      vertex 0 0 -0.001
      vertex 0.4 0 -0.001
      vertex 0.4 0.3 -0.001
    endloop
  endfacet
  facet normal 0 0 1
    outer loop
      vertex 0 0.3 -0.001
      vertex 0.4 0.3 -0.001
      vertex 0.4 0.6 -0.001
    endloop
  endfacet
  facet normal 0 0 1
    outer loop
      vertex 0 0.6 -0.001
      vertex 0.4 0.6 -0.001
      vertex 0.4 0.9 -0.001
    endloop
  endfacet
  facet normal 0 0 1
    outer loop
      vertex 0 0.9 -0.001
      vertex 0.4 0.9 -0.001
      vertex 0.41 1.2 -0.001
    endloop
  endfacet
  facet normal 0 0 1
    outer loop
      vertex 0.01 1.2 -0.001
      vertex 0.41 1.2 -0.001
      vertex 0.46 1.5 -0.001
    endloop
  endfacet
  facet normal 0 0 1
    outer loop
      vertex 0.06 1.5 -0.001
      vertex 0.46 1.5 -0.001
      vertex 0.55 1.8 -0.001
    endloop
  endfacet
  facet normal 0 0 1
    outer loop
      vertex 0.17 1.8 -0.001
      vertex 0.55 1.8 -0.001
      vertex 0.7 2.1 -0.001
    endloop
  endfacet
  facet normal 0 0 1
    outer loop
      vertex 0.33 2.1 -0.001
      vertex 0.7 2.1 -0.001
      vertex 0.91 2.4 -0.001
    endloop
  endfacet
  facet normal 0 0 1
    outer loop
      vertex 0.57 2.4 -0.001
      vertex 0.91 2.4 -0.001
      vertex 1.25 2.7 -0.001
    endloop
  endfacet
  facet normal 0 0 1
    outer loop
      vertex 0.95 2.7 -0.001
      vertex 1.25 2.7 -0.001
      vertex 2.2 3 -0.001
    endloop
  endfacet
  facet normal 0 0 1
    outer loop
      vertex 0.4 0 -0.001
      vertex 0.8 0 -0.001
      vertex 0.8 0.3 -0.001
    endloop
  endfacet
  facet normal 0 0 1
    outer loop
      vertex 0.4 0.3 -0.001
      vertex 0.8 0.3 -0.001
      vertex 0.8 0.6 -0.001
    endloop
  endfacet
  facet normal 0 0 1
    outer loop
      vertex 0.4 0.6 -0.001
      vertex 0.8 0.6 -0.001
      vertex 0.8 0.9 -0.001
    endloop
  endfacet
  facet normal 0 0 1
    outer loop
      vertex 0.4 0.9 -0.001
      vertex 0.8 0.9 -0.001
      vertex 0.81 1.2 -0.001
    endloop
  endfacet
  facet normal 0 0 1
    outer loop
      vertex 0.41 1.2 -0.001
      vertex 0.81 1.2 -0.001
      vertex 0.85 1.5 -0.001
    endloop
  endfacet
  facet normal 0 0 1
    outer loop
      vertex 0.46 1.5 -0.001
      vertex 0.85 1.5 -0.001
      vertex 0.93 1.8 -0.001
    endloop
  endfacet
  facet normal 0 0 1
    outer loop
      vertex 0.55 1.8 -0.001
      vertex 0.93 1.8 -0.001
      vertex 1.06 2.1 -0.001
    endloop
  endfacet
  facet normal 0 0 1
    outer loop
      vertex 0.7 2.1 -0.001
      vertex 1.06 2.1 -0.001
      vertex 1.26 2.4 -0.001
    endloop
  endfacet
  facet normal 0 0 1
    outer loop
      vertex 0.91 2.4 -0.001
      vertex 1.26 2.4 -0.001
      vertex 1.56 2.7 -0.001
    endloop
  endfacet
  facet normal 0 0 1
    outer loop
      vertex 1.25 2.7 -0.001
      vertex 1.56 2.7 -0.001
      vertex 2.4 3 -0.001
    endloop
  endfacet
  facet normal 0 0 1
    outer loop
      vertex 0.8 0 -0.001
      vertex 1.2 0 -0.001
      vertex 1.2 0.3 -0.001
    endloop
  endfacet
  facet normal 0 0 1
    outer loop
      vertex 0.8 0.3 -0.001
      vertex 1.2 0.3 -0.001
      vertex 1.2 0.6 -0.001
    endloop
  endfacet
  facet normal 0 0 1
    outer loop
      vertex 0.8 0.6 -0.001
      vertex 1.2 0.6 -0.001
      vertex 1.2 0.9 -0.001
    endloop
  endfacet
  facet normal 0 0 1
    outer loop
      vertex 0.8 0.9 -0.001
      vertex 1.2 0.9 -0.001
      vertex 1.21 1.2 -0.001
    endloop
  endfacet
  facet normal 0 0 1
    outer loop
      vertex 0.81 1.2 -0.001
      vertex 1.21 1.2 -0.001
      vertex 1.24 1.5 -0.001
    endloop
  endfacet
  facet normal 0 0 1
    outer loop
      vertex 0.85 1.5 -0.001
      vertex 1.24 1.5 -0.001
      vertex 1.32 1.8 -0.001
    endloop
  endfacet
  facet normal 0 0 1
    outer loop
      vertex 0.93 1.8 -0.001
      vertex 1.32 1.8 -0.001
      vertex 1.43 2.1 -0.001
    endloop
  endfacet
  facet normal 0 0 1
    outer loop
      vertex 1.06 2.1 -0.001
      vertex 1.43 2.1 -0.001
      vertex 1.6 2.4 -0.001
    endloop
  endfacet
  facet normal 0 0 1
    outer loop
      vertex 1.26 2.4 -0.001
      vertex 1.6 2.4 -0.001
      vertex 1.86 2.7 -0.001
    endloop
  endfacet
  facet normal 0 0 1
    outer loop
      vertex 1.56 2.7 -0.001
      vertex 1.86 2.7 -0.001
      vertex 2.6 3 -0.001
    endloop
  endfacet
  facet normal 0 0 1
    outer loop
      vertex 1.2 0 -0.001
      vertex 1.6 0 -0.001
      vertex 1.6 0.3 -0.001
    endloop
  endfacet
  facet normal 0 0 1
    outer loop
      vertex 1.2 0.3 -0.001
      vertex 1.6 0.3 -0.001
      vertex 1.6 0.6 -0.001
    endloop
  endfacet
  facet normal 0 0 1
    outer loop
      vertex 1.2 0.6 -0.001
      vertex 1.6 0.6 -0.001
      vertex 1.6 0.9 -0.001
    endloop
  endfacet
  facet normal 0 0 1
    outer loop
      vertex 1.2 0.9 -0.001
      vertex 1.6 0.9 -0.001
      vertex 1.61 1.2 -0.001
    endloop
  endfacet
  facet normal 0 0 1
    outer loop
      vertex 1.21 1.2 -0.001
      vertex 1.61 1.2 -0.001
      vertex 1.64 1.5 -0.001
    endloop
  endfacet
  facet normal 0 0 1
    outer loop
      vertex 1.24 1.5 -0.001
      vertex 1.64 1.5 -0.001
      vertex 1.7 1.8 -0.001
    endloop
  endfacet
  facet normal 0 0 1
    outer loop
      vertex 1.32 1.8 -0.001
      vertex 1.7 1.8 -0.001
      vertex 1.8 2.1 -0.001
    endloop
  endfacet
  facet normal 0 0 1
    outer loop
      vertex 1.43 2.1 -0.001
      vertex 1.8 2.1 -0.001
      vertex 1.94 2.4 -0.001
    endloop
  endfacet
  facet normal 0 0 1
    outer loop
      vertex 1.6 2.4 -0.001
      vertex 1.94 2.4 -0.001
      vertex 2.17 2.7 -0.001
    endloop
  endfacet
  facet normal 0 0 1
    outer loop
      vertex 1.86 2.7 -0.001
      vertex 2.17 2.7 -0.001
      vertex 2.8 3 -0.001
    endloop
  endfacet
  facet normal 0 0 1
    outer loop
      vertex 1.6 0 -0.001
      vertex 2 0 -0.001
      vertex 2 0.3 -0.001
    endloop
  endfacet
  facet normal 0 0 1
    outer loop
      vertex 1.6 0.3 -0.001
      vertex 2 0.3 -0.001
      vertex 2 0.6 -0.001
    endloop
  endfacet
  facet normal 0 0 1
    outer loop
      vertex 1.6 0.6 -0.001
      vertex 2 0.6 -0.001
      vertex 2 0.9 -0.001
    endloop
  endfacet
  facet normal 0 0 1
    outer loop
      vertex 1.6 0.9 -0.001
      vertex 2 0.9 -0.001
      vertex 2.01 1.2 -0.001
    endloop
  endfacet
  facet normal 0 0 1
    outer loop
      vertex 1.61 1.2 -0.001
      vertex 2.01 1.2 -0.001
      vertex 2.03 1.5 -0.001
    endloop
  endfacet
  facet normal 0 0 1
    outer loop
      vertex 1.64 1.5 -0.001
      vertex 2.03 1.5 -0.001
      vertex 2.08 1.8 -0.001
    endloop
  endfacet
  facet normal 0 0 1
    outer loop
      vertex 1.7 1.8 -0.001
      vertex 2.08 1.8 -0.001
      vertex 2.16 2.1 -0.001
    endloop
  endfacet
  facet normal 0 0 1
    outer loop
      vertex 1.8 2.1 -0.001
      vertex 2.16 2.1 -0.001
      vertex 2.29 2.4 -0.001
    endloop
  endfacet
  facet normal 0 0 1
    outer loop
      vertex 1.94 2.4 -0.001
      vertex 2.29 2.4 -0.001
      vertex 2.47 2.7 -0.001
    endloop
  endfacet
  facet normal 0 0 1
    outer loop
      vertex 2.17 2.7 -0.001
      vertex 2.47 2.7 -0.001
      vertex 3 3 -0.001
    endloop
  endfacet
  facet normal 0 0 1
    outer loop
      vertex 2 0 -0.001
      vertex 2.4 0 -0.001
      vertex 2.4 0.3 -0.001
    endloop
  endfacet
  facet normal 0 0 1
    outer loop
      vertex 2 0.3 -0.001
      vertex 2.4 0.3 -0.001
      vertex 2.4 0.6 -0.001
    endloop
  endfacet
  facet normal 0 0 1
    outer loop
      vertex 2 0.6 -0.001
      vertex 2.4 0.6 -0.001
      vertex 2.4 0.9 -0.001
    endloop
  endfacet
  facet normal 0 0 1
    outer loop
      vertex 2 0.9 -0.001
      vertex 2.4 0.9 -0.001
      vertex 2.4 1.2 -0.001
    endloop
  endfacet
  facet normal 0 0 1
    outer loop
      vertex 2.01 1.2 -0.001
      vertex 2.4 1.2 -0.001
      vertex 2.43 1.5 -0.001
    endloop
  endfacet
  facet normal 0 0 1
    outer loop
      vertex 2.03 1.5 -0.001
      vertex 2.43 1.5 -0.001
      vertex 2.47 1.8 -0.001
    endloop
  endfacet
  facet normal 0 0 1
    outer loop
      vertex 2.08 1.8 -0.001
      vertex 2.47 1.8 -0.001
      vertex 2.53 2.1 -0.001
    endloop
  endfacet
  facet normal 0 0 1
    outer loop
      vertex 2.16 2.1 -0.001
      vertex 2.53 2.1 -0.001
      vertex 2.63 2.4 -0.001
    endloop
  endfacet
  facet normal 0 0 1
    outer loop
      vertex 2.29 2.4 -0.001
      vertex 2.63 2.4 -0.001
      vertex 2.78 2.7 -0.001
    endloop
  endfacet
  facet normal 0 0 1
    outer loop
      vertex 2.47 2.7 -0.001
      vertex 2.78 2.7 -0.001
      vertex 3.2 3 -0.001
    endloop
  endfacet
  facet normal 0 0 1
    outer loop
      vertex 2.4 0 -0.001
      vertex 2.8 0 -0.001
      vertex 2.8 0.3 -0.001
    endloop
  endfacet
  facet normal 0 0 1
    outer loop
      vertex 2.4 0.3 -0.001
      vertex 2.8 0.3 -0.001
      vertex 2.8 0.6 -0.001
    endloop
  endfacet
  facet normal 0 0 1
    outer loop
      vertex 2.4 0.6 -0.001
      vertex 2.8 0.6 -0.001
      vertex 2.8 0.9 -0.001
    endloop
  endfacet
  facet normal 0 0 1
    outer loop
      vertex 2.4 0.9 -0.001
      vertex 2.8 0.9 -0.001
      vertex 2.8 1.2 -0.001
    endloop
  endfacet
  facet normal 0 0 1
    outer loop
      vertex 2.4 1.2 -0.001
      vertex 2.8 1.2 -0.001
      vertex 2.82 1.5 -0.001
    endloop
  endfacet
  facet normal 0 0 1
    outer loop
      vertex 2.43 1.5 -0.001
      vertex 2.82 1.5 -0.001
      vertex 2.85 1.8 -0.001
    endloop
  endfacet
  facet normal 0 0 1
    outer loop
      vertex 2.47 1.8 -0.001
      vertex 2.85 1.8 -0.001
      vertex 2.9 2.1 -0.001
    endloop
  endfacet
  facet normal 0 0 1
    outer loop
      vertex 2.53 2.1 -0.001
      vertex 2.9 2.1 -0.001
      vertex 2.97 2.4 -0.001
    endloop
  endfacet
  facet normal 0 0 1
    outer loop
      vertex 2.63 2.4 -0.001
      vertex 2.97 2.4 -0.001
      vertex 3.08 2.7 -0.001
    endloop
  endfacet
  facet normal 0 0 1
    outer loop
      vertex 2.78 2.7 -0.001
      vertex 3.08 2.7 -0.001
      vertex 3.4 3 -0.001
    endloop
  endfacet
  facet normal 0 0 1
    outer loop
      vertex 2.8 0 -0.001
      vertex 3.2 0 -0.001
      vertex 3.2 0.3 -0.001
    endloop
  endfacet
  facet normal 0 0 1
    outer loop
      vertex 2.8 0.3 -0.001
      vertex 3.2 0.3 -0.001
      vertex 3.2 0.6 -0.001
    endloop
  endfacet
  facet normal 0 0 1
    outer loop
      vertex 2.8 0.6 -0.001
      vertex 3.2 0.6 -0.001
      vertex 3.2 0.9 -0.001
    endloop
  endfacet
  facet normal 0 0 1
    outer loop
      vertex 2.8 0.9 -0.001
      vertex 3.2 0.9 -0.001
      vertex 3.2 1.2 -0.001
    endloop
  endfacet
  facet normal 0 0 1
    outer loop
      vertex 2.8 1.2 -0.001
      vertex 3.2 1.2 -0.001
      vertex 3.21 1.5 -0.001
    endloop
  endfacet
  facet normal 0 0 1
    outer loop
      vertex 2.82 1.5 -0.001
      vertex 3.21 1.5 -0.001
      vertex 3.23 1.8 -0.001
    endloop
  endfacet
  facet normal 0 0 1
    outer loop
      vertex 2.85 1.8 -0.001
      vertex 3.23 1.8 -0.001
      vertex 3.27 2.1 -0.001
    endloop
  endfacet
  facet normal 0 0 1
    outer loop
      vertex 2.9 2.1 -0.001
      vertex 3.27 2.1 -0.001
      vertex 3.31 2.4 -0.001
    endloop
  endfacet
  facet normal 0 0 1
    outer loop
      vertex 2.97 2.4 -0.001
      vertex 3.31 2.4 -0.001
      vertex 3.39 2.7 -0.001
    endloop
  endfacet
  facet normal 0 0 1
    outer loop
      vertex 3.08 2.7 -0.001
      vertex 3.39 2.7 -0.001
      vertex 3.6 3 -0.001
    endloop
  endfacet
  facet normal 0 0 1
    outer loop
      vertex 3.2 0 -0.001
      vertex 3.6 0 -0.001
      vertex 3.6 0.3 -0.001
    endloop
  endfacet
  facet normal 0 0 1
    outer loop
      vertex 3.2 0.3 -0.001
      vertex 3.6 0.3 -0.001
      vertex 3.6 0.6 -0.001
    endloop
  endfacet
  facet normal 0 0 1
    outer loop
      vertex 3.2 0.6 -0.001
      vertex 3.6 0.6 -0.001
      vertex 3.6 0.9 -0.001
    endloop
  endfacet
  facet normal 0 0 1
    outer loop
      vertex 3.2 0.9 -0.001
      vertex 3.6 0.9 -0.001
      vertex 3.6 1.2 -0.001
    endloop
  endfacet
  facet normal 0 0 1
    outer loop
      vertex 3.2 1.2 -0.001
      vertex 3.6 1.2 -0.001
      vertex 3.61 1.5 -0.001
    endloop
  endfacet
  facet normal 0 0 1
    outer loop
      vertex 3.21 1.5 -0.001
      vertex 3.61 1.5 -0.001
      vertex 3.62 1.8 -0.001
    endloop
  endfacet
  facet normal 0 0 1
    outer loop
      vertex 3.23 1.8 -0.001
      vertex 3.62 1.8 -0.001
      vertex 3.63 2.1 -0.001
    endloop
  endfacet
  facet normal 0 0 1
    outer loop
      vertex 3.27 2.1 -0.001
      vertex 3.63 2.1 -0.001
      vertex 3.66 2.4 -0.001
    endloop
  endfacet
  facet normal 0 0 1
    outer loop
      vertex 3.31 2.4 -0.001
      vertex 3.66 2.4 -0.001
      vertex 3.69 2.7 -0.001
    endloop
  endfacet
  facet normal 0 0 1
    outer loop
      vertex 3.39 2.7 -0.001
      vertex 3.69 2.7 -0.001
      vertex 3.8 3 -0.001
    endloop
  endfacet
  facet normal 0 0 1
    outer loop
      vertex 3.6 0 -0.001
      vertex 4 0 -0.001
      vertex 4 0.3 -0.001
    endloop
  endfacet
  facet normal 0 0 1
    outer loop
      vertex 3.6 0.3 -0.001
      vertex 4 0.3 -0.001
      vertex 4 0.6 -0.001
    endloop
  endfacet
  facet normal 0 0 1
    outer loop
      vertex 3.6 0.6 -0.001
      vertex 4 0.6 -0.001
      vertex 4 0.9 -0.001
    endloop
  endfacet
  facet normal 0 0 1
    outer loop
      vertex 3.6 0.9 -0.001
      vertex 4 0.9 -0.001
      vertex 4 1.2 -0.001
    endloop
  endfacet
  facet normal 0 0 1
    outer loop
      vertex 3.6 1.2 -0.001
      vertex 4 1.2 -0.001
      vertex 4 1.5 -0.001
    endloop
  endfacet
  facet normal 0 0 1
    outer loop
      vertex 3.61 1.5 -0.001
      vertex 4 1.5 -0.001
      vertex 4 1.8 -0.001
    endloop
  endfacet
  facet normal 0 0 1
    outer loop
      vertex 3.62 1.8 -0.001
      vertex 4 1.8 -0.001
      vertex 4 2.1 -0.001
    endloop
  endfacet
  facet normal 0 0 1
    outer loop
      vertex 3.63 2.1 -0.001
      vertex 4 2.1 -0.001
      vertex 4 2.4 -0.001
    endloop
  endfacet
  facet normal 0 0 1
    outer loop
      vertex 3.66 2.4 -0.001
      vertex 4 2.4 -0.001
      vertex 4 2.7 -0.001
    endloop
  endfacet
  facet normal 0 0 1
    outer loop
      vertex 3.69 2.7 -0.001
      vertex 4 2.7 -0.001
      vertex 4 3 -0.001
    endloop
  endfacet
  facet normal 1 -0 0
    outer loop
      vertex 0 0 0
      vertex 0 0.3 -0.001
      vertex 0 0.3 0
    endloop
  endfacet
  facet normal 1 0 0
    outer loop
      vertex 0 0.3 -0.001
      vertex 0 0 0
      vertex 0 0 -0.001
    endloop
  endfacet
  facet normal 1 -0 0
    outer loop
      vertex 0 0.3 0
      vertex 0 0.6 -0.001
      vertex 0 0.6 0
    endloop
  endfacet
  facet normal 1 0 0
    outer loop
      vertex 0 0.6 -0.001
      vertex 0 0.3 0
      vertex 0 0.3 -0.001
    endloop
  endfacet
  facet normal 1 -0 0
    outer loop
      vertex 0 0.6 0
      vertex 0 0.9 -0.001
      vertex 0 0.9 0
    endloop
  endfacet
  facet normal 1 0 0
    outer loop
      vertex 0 0.9 -0.001
      vertex 0 0.6 0
      vertex 0 0.6 -0.001
    endloop
  endfacet
  facet normal 0.999445 -0.0333148 0
    outer loop
      vertex 0 0.9 0
      vertex 0.01 1.2 -0.001
      vertex 0.01 1.2 0
    endloop
  endfacet
  facet normal 0.999445 -0.0333148 0
    outer loop
      vertex 0.01 1.2 -0.001
      vertex 0 0.9 0
      vertex 0 0.9 -0.001
    endloop
  endfacet
  facet normal 0.986394 -0.164399 0
    outer loop
      vertex 0.01 1.2 0
      vertex 0.06 1.5 -0.001
      vertex 0.06 1.5 0
    endloop
  endfacet
  facet normal 0.986394 -0.164399 0
    outer loop
      vertex 0.06 1.5 -0.001
      vertex 0.01 1.2 0
      vertex 0.01 1.2 -0.001
    endloop
  endfacet
  facet normal 0.938876 -0.344255 0
    outer loop
      vertex 0.06 1.5 0
      vertex 0.17 1.8 -0.001
      vertex 0.17 1.8 0
    endloop
  endfacet
  facet normal 0.938876 -0.344255 0
    outer loop
      vertex 0.17 1.8 -0.001
      vertex 0.06 1.5 0
      vertex 0.06 1.5 -0.001
    endloop
  endfacet
  facet normal 0.882353 -0.470588 0
    outer loop
      vertex 0.17 1.8 0
      vertex 0.33 2.1 -0.001
      vertex 0.33 2.1 0
    endloop
  endfacet
  facet normal 0.882353 -0.470588 0
    outer loop
      vertex 0.33 2.1 -0.001
      vertex 0.17 1.8 0
      vertex 0.17 1.8 -0.001
    endloop
  endfacet
  facet normal 0.780869 -0.624695 0
    outer loop
      vertex 0.33 2.1 0
      vertex 0.57 2.4 -0.001
      vertex 0.57 2.4 0
    endloop
  endfacet
  facet normal 0.780869 -0.624695 0
    outer loop
      vertex 0.57 2.4 -0.001
      vertex 0.33 2.1 0
      vertex 0.33 2.1 -0.001
    endloop
  endfacet
  facet normal 0.619644 -0.784883 0
    outer loop
      vertex 0.57 2.4 -0.001
      vertex 0.95 2.7 0
      vertex 0.57 2.4 0
    endloop
  endfacet
  facet normal 0.619644 -0.784883 0
    outer loop
      vertex 0.95 2.7 0
      vertex 0.57 2.4 -0.001
      vertex 0.95 2.7 -0.001
    endloop
  endfacet
  facet normal 0.274721 -0.961524 0
    outer loop
      vertex 0.95 2.7 -0.001
      vertex 2 3 0
      vertex 0.95 2.7 0
    endloop
  endfacet
  facet normal 0.274721 -0.961524 0
    outer loop
      vertex 2 3 0
      vertex 0.95 2.7 -0.001
      vertex 2 3 -0.001
    endloop
  endfacet
  facet normal 0 -1 0
    outer loop
      vertex 2 3 -0.001
      vertex 2.2 3 0
      vertex 2 3 0
    endloop
  endfacet
  facet normal 0 -1 -0
    outer loop
      vertex 2.2 3 0
      vertex 2 3 -0.001
      vertex 2.2 3 -0.001
    endloop
  endfacet
  facet normal 0 -1 0
    outer loop
      vertex 2.2 3 -0.001
      vertex 2.4 3 0
      vertex 2.2 3 0
    endloop
  endfacet
  facet normal 0 -1 -0
    outer loop
      vertex 2.4 3 0
      vertex 2.2 3 -0.001
      vertex 2.4 3 -0.001
    endloop
  endfacet
  facet normal 0 -1 0
    outer loop
      vertex 2.4 3 -0.001
      vertex 2.6 3 0
      vertex 2.4 3 0
    endloop
  endfacet
  facet normal 0 -1 -0
    outer loop
      vertex 2.6 3 0
      vertex 2.4 3 -0.001
      vertex 2.6 3 -0.001
    endloop
  endfacet
  facet normal 0 -1 0
    outer loop
      vertex 2.6 3 -0.001
      vertex 2.8 3 0
      vertex 2.6 3 0
    endloop
  endfacet
  facet normal 0 -1 -0
    outer loop
      vertex 2.8 3 0
      vertex 2.6 3 -0.001
      vertex 2.8 3 -0.001
    endloop
  endfacet
  facet normal 0 -1 0
    outer loop
      vertex 2.8 3 -0.001
      vertex 3 3 0
      vertex 2.8 3 0
    endloop
  endfacet
  facet normal 0 -1 -0
    outer loop
      vertex 3 3 0
      vertex 2.8 3 -0.001
      vertex 3 3 -0.001
    endloop
  endfacet
  facet normal 0 -1 0
    outer loop
      vertex 3 3 -0.001
      vertex 3.2 3 0
      vertex 3 3 0
    endloop
  endfacet
  facet normal 0 -1 -0
    outer loop
      vertex 3.2 3 0
      vertex 3 3 -0.001
      vertex 3.2 3 -0.001
    endloop
  endfacet
  facet normal 0 -1 0
    outer loop
      vertex 3.2 3 -0.001
      vertex 3.4 3 0
      vertex 3.2 3 0
    endloop
  endfacet
  facet normal 0 -1 -0
    outer loop
      vertex 3.4 3 0
      vertex 3.2 3 -0.001
      vertex 3.4 3 -0.001
    endloop
  endfacet
  facet normal 0 -1 0
    outer loop
      vertex 3.4 3 -0.001
      vertex 3.6 3 0
      vertex 3.4 3 0
    endloop
  endfacet
  facet normal 0 -1 -0
    outer loop
      vertex 3.6 3 0
      vertex 3.4 3 -0.001
      vertex 3.6 3 -0.001
    endloop
  endfacet
  facet normal 0 -1 0
    outer loop
      vertex 3.6 3 -0.001
      vertex 3.8 3 0
      vertex 3.6 3 0
    endloop
  endfacet
  facet normal 0 -1 -0
    outer loop
      vertex 3.8 3 0
      vertex 3.6 3 -0.001
      vertex 3.8 3 -0.001
    endloop
  endfacet
  facet normal 0 -1 0
    outer loop
      vertex 3.8 3 -0.001
      vertex 4 3 0
      vertex 3.8 3 0
    endloop
  endfacet
  facet normal 0 -1 -0
    outer loop
      vertex 4 3 0
      vertex 3.8 3 -0.001
      vertex 4 3 -0.001
    endloop
  endfacet
  facet normal -1 0 0
    outer loop
      vertex 4 0 -0.001
      vertex 4 0.3 0
      vertex 4 0.3 -0.001
    endloop
  endfacet
  facet normal -1 -0 0
    outer loop
      vertex 4 0.3 0
      vertex 4 0 -0.001
      vertex 4 0 0
    endloop
  endfacet
  facet normal -1 0 0
    outer loop
      vertex 4 0.3 -0.001
      vertex 4 0.6 0
      vertex 4 0.6 -0.001
    endloop
  endfacet
  facet normal -1 -0 0
    outer loop
      vertex 4 0.6 0
      vertex 4 0.3 -0.001
      vertex 4 0.3 0
    endloop
  endfacet
  facet normal -1 0 0
    outer loop
      vertex 4 0.6 -0.001
      vertex 4 0.9 0
      vertex 4 0.9 -0.001
    endloop
  endfacet
  facet normal -1 -0 0
    outer loop
      vertex 4 0.9 0
      vertex 4 0.6 -0.001
      vertex 4 0.6 0
    endloop
  endfacet
  facet normal -1 0 0
    outer loop
      vertex 4 0.9 -0.001
      vertex 4 1.2 0
      vertex 4 1.2 -0.001
    endloop
  endfacet
  facet normal -1 -0 0
    outer loop
      vertex 4 1.2 0
      vertex 4 0.9 -0.001
      vertex 4 0.9 0
    endloop
  endfacet
  facet normal -1 0 0
    outer loop
      vertex 4 1.2 -0.001
      vertex 4 1.5 0
      vertex 4 1.5 -0.001
    endloop
  endfacet
  facet normal -1 -0 0
    outer loop
      vertex 4 1.5 0
      vertex 4 1.2 -0.001
      vertex 4 1.2 0
    endloop
  endfacet
  facet normal -1 0 0
    outer loop
      vertex 4 1.5 -0.001
      vertex 4 1.8 0
      vertex 4 1.8 -0.001
    endloop
  endfacet
  facet normal -1 -0 0
    outer loop
      vertex 4 1.8 0
      vertex 4 1.5 -0.001
      vertex 4 1.5 0
    endloop
  endfacet
  facet normal -1 0 0
    outer loop
      vertex 4 1.8 -0.001
      vertex 4 2.1 0
      vertex 4 2.1 -0.001
    endloop
  endfacet
  facet normal -1 -0 0
    outer loop
      vertex 4 2.1 0
      vertex 4 1.8 -0.001
      vertex 4 1.8 0
    endloop
  endfacet
  facet normal -1 0 0
    outer loop
      vertex 4 2.1 -0.001
      vertex 4 2.4 0
      vertex 4 2.4 -0.001
    endloop
  endfacet
  facet normal -1 -0 0
    outer loop
      vertex 4 2.4 0
      vertex 4 2.1 -0.001
      vertex 4 2.1 0
    endloop
  endfacet
  facet normal -1 0 0
    outer loop
      vertex 4 2.4 -0.001
      vertex 4 2.7 0
      vertex 4 2.7 -0.001
    endloop
  endfacet
  facet normal -1 -0 0
    outer loop
      vertex 4 2.7 0
      vertex 4 2.4 -0.001
      vertex 4 2.4 0
    endloop
  endfacet
  facet normal -1 0 0
    outer loop
      vertex 4 2.7 -0.001
      vertex 4 3 0
      vertex 4 3 -0.001
    endloop
  endfacet
  facet normal -1 -0 0
    outer loop
      vertex 4 3 0
      vertex 4 2.7 -0.001
      vertex 4 2.7 0
    endloop
  endfacet
  facet normal 0 1 -0
    outer loop
      vertex 0.4 0 -0.001
      vertex 0 0 0
      vertex 0.4 0 0
    endloop
  endfacet
  facet normal 0 1 0
    outer loop
      vertex 0 0 0
      vertex 0.4 0 -0.001
      vertex 0 0 -0.001
    endloop
  endfacet
  facet normal 0 1 -0
    outer loop
      vertex 0.8 0 -0.001
      vertex 0.4 0 0
      vertex 0.8 0 0
    endloop
  endfacet
  facet normal 0 1 0
    outer loop
      vertex 0.4 0 0
      vertex 0.8 0 -0.001
      vertex 0.4 0 -0.001
    endloop
  endfacet
  facet normal 0 1 -0
    outer loop
      vertex 1.2 0 -0.001
      vertex 0.8 0 0
      vertex 1.2 0 0
    endloop
  endfacet
  facet normal 0 1 0
    outer loop
      vertex 0.8 0 0
      vertex 1.2 0 -0.001
      vertex 0.8 0 -0.001
    endloop
  endfacet
  facet normal 0 1 -0
    outer loop
      vertex 1.6 0 -0.001
      vertex 1.2 0 0
      vertex 1.6 0 0
    endloop
  endfacet
  facet normal 0 1 0
    outer loop
      vertex 1.2 0 0
      vertex 1.6 0 -0.001
      vertex 1.2 0 -0.001
    endloop
  endfacet
  facet normal 0 1 -0
    outer loop
      vertex 2 0 -0.001
      vertex 1.6 0 0
      vertex 2 0 0
    endloop
  endfacet
  facet normal 0 1 0
    outer loop
      vertex 1.6 0 0
      vertex 2 0 -0.001
      vertex 1.6 0 -0.001
    endloop
  endfacet
  facet normal 0 1 -0
    outer loop
      vertex 2.4 0 -0.001
      vertex 2 0 0
      vertex 2.4 0 0
    endloop
  endfacet
  facet normal 0 1 0
    outer loop
      vertex 2 0 0
      vertex 2.4 0 -0.001
      vertex 2 0 -0.001
    endloop
  endfacet
  facet normal 0 1 -0
    outer loop
      vertex 2.8 0 -0.001
      vertex 2.4 0 0
      vertex 2.8 0 0
    endloop
  endfacet
  facet normal 0 1 0
    outer loop
      vertex 2.4 0 0
      vertex 2.8 0 -0.001
      vertex 2.4 0 -0.001
    endloop
  endfacet
  facet normal 0 1 -0
    outer loop
      vertex 3.2 0 -0.001
      vertex 2.8 0 0
      vertex 3.2 0 0
    endloop
  endfacet
  facet normal 0 1 0
    outer loop
      vertex 2.8 0 0
      vertex 3.2 0 -0.001
      vertex 2.8 0 -0.001
    endloop
  endfacet
  facet normal 0 1 -0
    outer loop
      vertex 3.6 0 -0.001
      vertex 3.2 0 0
      vertex 3.6 0 0
    endloop
  endfacet
  facet normal 0 1 0
    outer loop
      vertex 3.2 0 0
      vertex 3.6 0 -0.001
      vertex 3.2 0 -0.001
    endloop
  endfacet
  facet normal 0 1 -0
    outer loop
      vertex 4 0 -0.001
      vertex 3.6 0 0
      vertex 4 0 0
    endloop
  endfacet
  facet normal 0 1 0
    outer loop
      vertex 3.6 0 0
      vertex 4 0 -0.001
      vertex 3.6 0 -0.001
    endloop
  endfacet
endsolid OpenSCAD_Model
