solid OpenSCAD_Model
  facet normal 0 0 -1
    outer loop
      vertex 0 1.2 0
      vertex 0.5 1.2 0
      vertex 0 0 0
    endloop
  endfacet
  facet normal 0 0 -1
    outer loop
      vertex 0 2.4 0
      vertex 0.5 2.4 0
      vertex 0 1.2 0
    endloop
  endfacet
  facet normal 0 0 -1
    outer loop
      vertex 0 3.6 0
      vertex 0.5 3.6 0
      vertex 0 2.4 0
    endloop
  endfacet
  facet normal 0 0 -1
    outer loop
      vertex 0 4.8 0
      vertex 0.5 4.8 0
      vertex 0 3.6 0
    endloop
  endfacet
  facet normal 0 0 -1
    outer loop
      vertex 0 6 0
      vertex 0.5 6 0
      vertex 0 4.8 0
    endloop
  endfacet
  facet normal 0 0 -1
    outer loop
      vertex 0 7.2 0
      vertex 0.5 7.2 0
      vertex 0 6 0
    endloop
  endfacet
  facet normal 0 0 -1
    outer loop
      vertex 0 8.4 0
      vertex 0.5 8.4 0
      vertex 0 7.2 0
    endloop
  endfacet
  facet normal 0 0 -1
    outer loop
      vertex 0 9.6 0
      vertex 0.5 9.6 0
      vertex 0 8.4 0
    endloop
  endfacet
  facet normal 0 0 -1
    outer loop
      vertex 0 10.8 0
      vertex 0.5 10.8 0
      vertex 0 9.6 0
    endloop
  endfacet
  facet normal 0 0 -1
    outer loop
      vertex 0 12 0
      vertex 0.5 12 0
      vertex 0 10.8 0
    endloop
  endfacet
  facet normal 0 0 -1
    outer loop
      vertex 0.5 1.2 0
      vertex 1 1.2 0
      vertex 0.5 0 0
    endloop
  endfacet
  facet normal 0 0 -1
    outer loop
      vertex 0.5 2.4 0
      vertex 1 2.4 0
      vertex 0.5 1.2 0
    endloop
  endfacet
  facet normal 0 0 -1
    outer loop
      vertex 0.5 3.6 0
      vertex 1 3.6 0
      vertex 0.5 2.4 0
    endloop
  endfacet
  facet normal 0 0 -1
    outer loop
      vertex 0.5 4.8 0
      vertex 1 4.8 0
      vertex 0.5 3.6 0
    endloop
  endfacet
  facet normal 0 0 -1
    outer loop
      vertex 0.5 6 0
      vertex 1 6 0
      vertex 0.5 4.8 0
    endloop
  endfacet
  facet normal 0 0 -1
    outer loop
      vertex 0.5 7.2 0
      vertex 1 7.2 0
      vertex 0.5 6 0
    endloop
  endfacet
  facet normal 0 0 -1
    outer loop
      vertex 0.5 8.4 0
      vertex 1 8.4 0
      vertex 0.5 7.2 0
    endloop
  endfacet
  facet normal 0 0 -1
    outer loop
      vertex 0.5 9.6 0
      vertex 1 9.6 0
      vertex 0.5 8.4 0
    endloop
  endfacet
  facet normal 0 0 -1
    outer loop
      vertex 0.5 10.8 0
      vertex 1 10.8 0
      vertex 0.5 9.6 0
    endloop
  endfacet
  facet normal 0 0 -1
    outer loop
      vertex 0.5 12 0
      vertex 1 12 0
      vertex 0.5 10.8 0
    endloop
  endfacet
  facet normal 0 0 -1
    outer loop
      vertex 1 1.2 0
      vertex 1.5 1.2 0
      vertex 1 0 0
    endloop
  endfacet
  facet normal 0 0 -1
    outer loop
      vertex 1 2.4 0
      vertex 1.5 2.4 0
      vertex 1 1.2 0
    endloop
  endfacet
  facet normal 0 0 -1
    outer loop
      vertex 1 3.6 0
      vertex 1.5 3.6 0
      vertex 1 2.4 0
    endloop
  endfacet
  facet normal 0 0 -1
    outer loop
      vertex 1 4.8 0
      vertex 1.5 4.8 0
      vertex 1 3.6 0
    endloop
  endfacet
  facet normal 0 0 -1
    outer loop
      vertex 1 6 0
      vertex 1.5 6 0
      vertex 1 4.8 0
    endloop
  endfacet
  facet normal 0 0 -1
    outer loop
      vertex 1 7.2 0
      vertex 1.5 7.2 0
      vertex 1 6 0
    endloop
  endfacet
  facet normal 0 0 -1
    outer loop
      vertex 1 8.4 0
      vertex 1.5 8.4 0
      vertex 1 7.2 0
    endloop
  endfacet
  facet normal 0 0 -1
    outer loop
      vertex 1 9.6 0
      vertex 1.5 9.6 0
      vertex 1 8.4 0
    endloop
  endfacet
  facet normal 0 0 -1
    outer loop
      vertex 1 10.8 0
      vertex 1.5 10.8 0
      vertex 1 9.6 0
    endloop
  endfacet
  facet normal 0 0 -1
    outer loop
      vertex 1 12 0
      vertex 1.5 12 0
      vertex 1 10.8 0
    endloop
  endfacet
  facet normal 0 0 -1
    outer loop
      vertex 1.5 1.2 0
      vertex 2 1.2 0
      vertex 1.5 0 0
    endloop
  endfacet
  facet normal 0 0 -1
    outer loop
      vertex 1.5 2.4 0
      vertex 2 2.4 0
      vertex 1.5 1.2 0
    endloop
  endfacet
  facet normal 0 0 -1
    outer loop
      vertex 1.5 3.6 0
      vertex 2 3.6 0
      vertex 1.5 2.4 0
    endloop
  endfacet
  facet normal 0 0 -1
    outer loop
      vertex 1.5 4.8 0
      vertex 2 4.8 0
      vertex 1.5 3.6 0
    endloop
  endfacet
  facet normal 0 0 -1
    outer loop
      vertex 1.5 6 0
      vertex 2 6 0
      vertex 1.5 4.8 0
    endloop
  endfacet
  facet normal 0 0 -1
    outer loop
      vertex 1.5 7.2 0
      vertex 2 7.2 0
      vertex 1.5 6 0
    endloop
  endfacet
  facet normal 0 0 -1
    outer loop
      vertex 1.5 8.4 0
      vertex 2 8.4 0
      vertex 1.5 7.2 0
    endloop
  endfacet
  facet normal 0 0 -1
    outer loop
      vertex 1.5 9.6 0
      vertex 2 9.6 0
      vertex 1.5 8.4 0
    endloop
  endfacet
  facet normal 0 0 -1
    outer loop
      vertex 1.5 10.8 0
      vertex 2 10.8 0
      vertex 1.5 9.6 0
    endloop
  endfacet
  facet normal 0 0 -1
    outer loop
      vertex 1.5 12 0
      vertex 2 12 0
      vertex 1.5 10.8 0
    endloop
  endfacet
  facet normal 0 0 -1
    outer loop
      vertex 2 1.2 0
      vertex 2.5 1.2 0
      vertex 2 0 0
    endloop
  endfacet
  facet normal 0 0 -1
    outer loop
      vertex 2 2.4 0
      vertex 2.5 2.4 0
      vertex 2 1.2 0
    endloop
  endfacet
  facet normal 0 0 -1
    outer loop
      vertex 2 3.6 0
      vertex 2.5 3.6 0
      vertex 2 2.4 0
    endloop
  endfacet
  facet normal 0 0 -1
    outer loop
      vertex 2 4.8 0
      vertex 2.5 4.8 0
      vertex 2 3.6 0
    endloop
  endfacet
  facet normal 0 0 -1
    outer loop
      vertex 2 6 0
      vertex 2.5 6 0
      vertex 2 4.8 0
    endloop
  endfacet
  facet normal 0 0 -1
    outer loop
      vertex 2 7.2 0
      vertex 2.5 7.2 0
      vertex 2 6 0
    endloop
  endfacet
  facet normal 0 0 -1
    outer loop
      vertex 2 8.4 0
      vertex 2.5 8.4 0
      vertex 2 7.2 0
    endloop
  endfacet
  facet normal 0 0 -1
    outer loop
      vertex 2 9.6 0
      vertex 2.5 9.6 0
      vertex 2 8.4 0
    endloop
  endfacet
  facet normal 0 0 -1
    outer loop
      vertex 2 10.8 0
      vertex 2.5 10.8 0
      vertex 2 9.6 0
    endloop
  endfacet
  facet normal 0 0 -1
    outer loop
      vertex 2 12 0
      vertex 2.5 12 0
      vertex 2 10.8 0
    endloop
  endfacet
  facet normal 0 0 -1
    outer loop
      vertex 2.5 1.2 0
      vertex 3 1.2 0
      vertex 2.5 0 0
    endloop
  endfacet
  facet normal 0 0 -1
    outer loop
      vertex 2.5 2.4 0
      vertex 3 2.4 0
      vertex 2.5 1.2 0
    endloop
  endfacet
  facet normal 0 0 -1
    outer loop
      vertex 2.5 3.6 0
      vertex 3 3.6 0
      vertex 2.5 2.4 0
    endloop
  endfacet
  facet normal 0 0 -1
    outer loop
      vertex 2.5 4.8 0
      vertex 3 4.8 0
      vertex 2.5 3.6 0
    endloop
  endfacet
  facet normal 0 0 -1
    outer loop
      vertex 2.5 6 0
      vertex 3 6 0
      vertex 2.5 4.8 0
    endloop
  endfacet
  facet normal 0 0 -1
    outer loop
      vertex 2.5 7.2 0
      vertex 3 7.2 0
      vertex 2.5 6 0
    endloop
  endfacet
  facet normal 0 0 -1
    outer loop
      vertex 2.5 8.4 0
      vertex 3 8.4 0
      vertex 2.5 7.2 0
    endloop
  endfacet
  facet normal 0 0 -1
    outer loop
      vertex 2.5 9.6 0
      vertex 3 9.6 0
      vertex 2.5 8.4 0
    endloop
  endfacet
  facet normal 0 0 -1
    outer loop
      vertex 2.5 10.8 0
      vertex 3 10.8 0
      vertex 2.5 9.6 0
    endloop
  endfacet
  facet normal 0 0 -1
    outer loop
      vertex 2.5 12 0
      vertex 3 12 0
      vertex 2.5 10.8 0
    endloop
  endfacet
  facet normal 0 0 -1
    outer loop
      vertex 3 1.2 0
      vertex 3.5 1.2 0
      vertex 3 0 0
    endloop
  endfacet
  facet normal 0 0 -1
    outer loop
      vertex 3 2.4 0
      vertex 3.5 2.4 0
      vertex 3 1.2 0
    endloop
  endfacet
  facet normal 0 0 -1
    outer loop
      vertex 3 3.6 0
      vertex 3.5 3.6 0
      vertex 3 2.4 0
    endloop
  endfacet
  facet normal 0 0 -1
    outer loop
      vertex 3 4.8 0
      vertex 3.5 4.8 0
      vertex 3 3.6 0
    endloop
  endfacet
  facet normal 0 0 -1
    outer loop
      vertex 3 6 0
      vertex 3.5 6 0
      vertex 3 4.8 0
    endloop
  endfacet
  facet normal 0 0 -1
    outer loop
      vertex 3 7.2 0
      vertex 3.5 7.2 0
      vertex 3 6 0
    endloop
  endfacet
  facet normal 0 0 -1
    outer loop
      vertex 3 8.4 0
      vertex 3.5 8.4 0
      vertex 3 7.2 0
    endloop
  endfacet
  facet normal 0 0 -1
    outer loop
      vertex 3 9.6 0
      vertex 3.5 9.6 0
      vertex 3 8.4 0
    endloop
  endfacet
  facet normal 0 0 -1
    outer loop
      vertex 3 10.8 0
      vertex 3.5 10.8 0
      vertex 3 9.6 0
    endloop
  endfacet
  facet normal 0 0 -1
    outer loop
      vertex 3 12 0
      vertex 3.5 12 0
      vertex 3 10.8 0
    endloop
  endfacet
  facet normal 0 0 -1
    outer loop
      vertex 3.5 1.2 0
      vertex 4 1.2 0
      vertex 3.5 0 0
    endloop
  endfacet
  facet normal 0 0 -1
    outer loop
      vertex 3.5 2.4 0
      vertex 4 2.4 0
      vertex 3.5 1.2 0
    endloop
  endfacet
  facet normal 0 0 -1
    outer loop
      vertex 3.5 3.6 0
      vertex 4 3.6 0
      vertex 3.5 2.4 0
    endloop
  endfacet
  facet normal 0 0 -1
    outer loop
      vertex 3.5 4.8 0
      vertex 4 4.8 0
      vertex 3.5 3.6 0
    endloop
  endfacet
  facet normal 0 0 -1
    outer loop
      vertex 3.5 6 0
      vertex 4 6 0
      vertex 3.5 4.8 0
    endloop
  endfacet
  facet normal 0 0 -1
    outer loop
      vertex 3.5 7.2 0
      vertex 4 7.2 0
      vertex 3.5 6 0
    endloop
  endfacet
  facet normal 0 0 -1
    outer loop
      vertex 3.5 8.4 0
      vertex 4 8.4 0
      vertex 3.5 7.2 0
    endloop
  endfacet
  facet normal 0 0 -1
    outer loop
      vertex 3.5 9.6 0
      vertex 4 9.6 0
      vertex 3.5 8.4 0
    endloop
  endfacet
  facet normal 0 0 -1
    outer loop
      vertex 3.5 10.8 0
      vertex 4 10.8 0
      vertex 3.5 9.6 0
    endloop
  endfacet
  facet normal 0 0 -1
    outer loop
      vertex 3.5 12 0
      vertex 4 12 0
      vertex 3.5 10.8 0
    endloop
  endfacet
  facet normal 0 0 -1
    outer loop
      vertex 4 1.2 0
      vertex 4.5 1.2 0
      vertex 4 0 0
    endloop
  endfacet
  facet normal 0 0 -1
    outer loop
      vertex 4 2.4 0
      vertex 4.5 2.4 0
      vertex 4 1.2 0
    endloop
  endfacet
  facet normal 0 0 -1
    outer loop
      vertex 4 3.6 0
      vertex 4.5 3.6 0
      vertex 4 2.4 0
    endloop
  endfacet
  facet normal 0 0 -1
    outer loop
      vertex 4 4.8 0
      vertex 4.5 4.8 0
      vertex 4 3.6 0
    endloop
  endfacet
  facet normal 0 0 -1
    outer loop
      vertex 4 6 0
      vertex 4.5 6 0
      vertex 4 4.8 0
    endloop
  endfacet
  facet normal 0 0 -1
    outer loop
      vertex 4 7.2 0
      vertex 4.5 7.2 0
      vertex 4 6 0
    endloop
  endfacet
  facet normal 0 0 -1
    outer loop
      vertex 4 8.4 0
      vertex 4.5 8.4 0
      vertex 4 7.2 0
    endloop
  endfacet
  facet normal 0 0 -1
    outer loop
      vertex 4 9.6 0
      vertex 4.5 9.6 0
      vertex 4 8.4 0
    endloop
  endfacet
  facet normal 0 0 -1
    outer loop
      vertex 4 10.8 0
      vertex 4.5 10.8 0
      vertex 4 9.6 0
    endloop
  endfacet
  facet normal 0 0 -1
    outer loop
      vertex 4 12 0
      vertex 4.5 12 0
      vertex 4 10.8 0
    endloop
  endfacet
  facet normal 0 0 -1
    outer loop
      vertex 4.5 1.2 0
      vertex 5 1.2 0
      vertex 4.5 0 0
    endloop
  endfacet
  facet normal 0 0 -1
    outer loop
      vertex 4.5 2.4 0
      vertex 5 2.4 0
      vertex 4.5 1.2 0
    endloop
  endfacet
  facet normal 0 0 -1
    outer loop
      vertex 4.5 3.6 0
      vertex 5 3.6 0
      vertex 4.5 2.4 0
    endloop
  endfacet
  facet normal 0 0 -1
    outer loop
      vertex 4.5 4.8 0
      vertex 5 4.8 0
      vertex 4.5 3.6 0
    endloop
  endfacet
  facet normal 0 0 -1
    outer loop
      vertex 4.5 6 0
      vertex 5 6 0
      vertex 4.5 4.8 0
    endloop
  endfacet
  facet normal 0 0 -1
    outer loop
      vertex 4.5 7.2 0
      vertex 5 7.2 0
      vertex 4.5 6 0
    endloop
  endfacet
  facet normal 0 0 -1
    outer loop
      vertex 4.5 8.4 0
      vertex 5 8.4 0
      vertex 4.5 7.2 0
    endloop
  endfacet
  facet normal 0 0 -1
    outer loop
      vertex 4.5 9.6 0
      vertex 5 9.6 0
      vertex 4.5 8.4 0
    endloop
  endfacet
  facet normal 0 0 -1
    outer loop
      vertex 4.5 10.8 0
      vertex 5 10.8 0
      vertex 4.5 9.6 0
    endloop
  endfacet
  facet normal 0 0 -1
    outer loop
      vertex 4.5 12 0
      vertex 5 12 0
      vertex 4.5 10.8 0
    endloop
  endfacet
  facet normal 0 -0 -1
    outer loop
      vertex 0.5 1.2 0
      vertex 0.5 0 0
      vertex 0 0 0
    endloop
  endfacet
  facet normal 0 -0 -1
    outer loop
      vertex 0.5 2.4 0
      vertex 0.5 1.2 0
      vertex 0 1.2 0
    endloop
  endfacet
  facet normal 0 -0 -1
    outer loop
      vertex 0.5 3.6 0
      vertex 0.5 2.4 0
      vertex 0 2.4 0
    endloop
  endfacet
  facet normal 0 -0 -1
    outer loop
      vertex 0.5 4.8 0
      vertex 0.5 3.6 0
      vertex 0 3.6 0
    endloop
  endfacet
  facet normal 0 -0 -1
    outer loop
      vertex 0.5 6 0
      vertex 0.5 4.8 0
      vertex 0 4.8 0
    endloop
  endfacet
  facet normal 0 -0 -1
    outer loop
      vertex 0.5 7.2 0
      vertex 0.5 6 0
      vertex 0 6 0
    endloop
  endfacet
  facet normal 0 -0 -1
    outer loop
      vertex 0.5 8.4 0
      vertex 0.5 7.2 0
      vertex 0 7.2 0
    endloop
  endfacet
  facet normal 0 -0 -1
    outer loop
      vertex 0.5 9.6 0
      vertex 0.5 8.4 0
      vertex 0 8.4 0
    endloop
  endfacet
  facet normal 0 -0 -1
    outer loop
      vertex 0.5 10.8 0
      vertex 0.5 9.6 0
      vertex 0 9.6 0
    endloop
  endfacet
  facet normal 0 -0 -1
    outer loop
      vertex 0.5 12 0
      vertex 0.5 10.8 0
      vertex 0 10.8 0
    endloop
  endfacet
  facet normal 0 -0 -1
    outer loop
      vertex 1 1.2 0
      vertex 1 0 0
      vertex 0.5 0 0
    endloop
  endfacet
  facet normal 0 -0 -1
    outer loop
      vertex 1 2.4 0
      vertex 1 1.2 0
      vertex 0.5 1.2 0
    endloop
  endfacet
  facet normal 0 -0 -1
    outer loop
      vertex 1 3.6 0
      vertex 1 2.4 0
      vertex 0.5 2.4 0
    endloop
  endfacet
  facet normal 0 -0 -1
    outer loop
      vertex 1 4.8 0
      vertex 1 3.6 0
      vertex 0.5 3.6 0
    endloop
  endfacet
  facet normal 0 -0 -1
    outer loop
      vertex 1 6 0
      vertex 1 4.8 0
      vertex 0.5 4.8 0
    endloop
  endfacet
  facet normal 0 -0 -1
    outer loop
      vertex 1 7.2 0
      vertex 1 6 0
      vertex 0.5 6 0
    endloop
  endfacet
  facet normal 0 -0 -1
    outer loop
      vertex 1 8.4 0
      vertex 1 7.2 0
      vertex 0.5 7.2 0
    endloop
  endfacet
  facet normal 0 -0 -1
    outer loop
      vertex 1 9.6 0
      vertex 1 8.4 0
      vertex 0.5 8.4 0
    endloop
  endfacet
  facet normal 0 -0 -1
    outer loop
      vertex 1 10.8 0
      vertex 1 9.6 0
      vertex 0.5 9.6 0
    endloop
  endfacet
  facet normal 0 -0 -1
    outer loop
      vertex 1 12 0
      vertex 1 10.8 0
      vertex 0.5 10.8 0
    endloop
  endfacet
  facet normal 0 -0 -1
    outer loop
      vertex 1.5 1.2 0
      vertex 1.5 0 0
      vertex 1 0 0
    endloop
  endfacet
  facet normal 0 -0 -1
    outer loop
      vertex 1.5 2.4 0
      vertex 1.5 1.2 0
      vertex 1 1.2 0
    endloop
  endfacet
  facet normal 0 -0 -1
    outer loop
      vertex 1.5 3.6 0
      vertex 1.5 2.4 0
      vertex 1 2.4 0
    endloop
  endfacet
  facet normal 0 -0 -1
    outer loop
      vertex 1.5 4.8 0
      vertex 1.5 3.6 0
      vertex 1 3.6 0
    endloop
  endfacet
  facet normal 0 -0 -1
    outer loop
      vertex 1.5 6 0
      vertex 1.5 4.8 0
      vertex 1 4.8 0
    endloop
  endfacet
  facet normal 0 -0 -1
    outer loop
      vertex 1.5 7.2 0
      vertex 1.5 6 0
      vertex 1 6 0
    endloop
  endfacet
  facet normal 0 -0 -1
    outer loop
      vertex 1.5 8.4 0
      vertex 1.5 7.2 0
      vertex 1 7.2 0
    endloop
  endfacet
  facet normal 0 -0 -1
    outer loop
      vertex 1.5 9.6 0
      vertex 1.5 8.4 0
      vertex 1 8.4 0
    endloop
  endfacet
  facet normal 0 -0 -1
    outer loop
      vertex 1.5 10.8 0
      vertex 1.5 9.6 0
      vertex 1 9.6 0
    endloop
  endfacet
  facet normal 0 -0 -1
    outer loop
      vertex 1.5 12 0
      vertex 1.5 10.8 0
      vertex 1 10.8 0
    endloop
  endfacet
  facet normal 0 -0 -1
    outer loop
      vertex 2 1.2 0
      vertex 2 0 0
      vertex 1.5 0 0
    endloop
  endfacet
  facet normal 0 -0 -1
    outer loop
      vertex 2 2.4 0
      vertex 2 1.2 0
      vertex 1.5 1.2 0
    endloop
  endfacet
  facet normal 0 -0 -1
    outer loop
      vertex 2 3.6 0
      vertex 2 2.4 0
      vertex 1.5 2.4 0
    endloop
  endfacet
  facet normal 0 -0 -1
    outer loop
      vertex 2 4.8 0
      vertex 2 3.6 0
      vertex 1.5 3.6 0
    endloop
  endfacet
  facet normal 0 -0 -1
    outer loop
      vertex 2 6 0
      vertex 2 4.8 0
      vertex 1.5 4.8 0
    endloop
  endfacet
  facet normal 0 -0 -1
    outer loop
      vertex 2 7.2 0
      vertex 2 6 0
      vertex 1.5 6 0
    endloop
  endfacet
  facet normal 0 -0 -1
    outer loop
      vertex 2 8.4 0
      vertex 2 7.2 0
      vertex 1.5 7.2 0
    endloop
  endfacet
  facet normal 0 -0 -1
    outer loop
      vertex 2 9.6 0
      vertex 2 8.4 0
      vertex 1.5 8.4 0
    endloop
  endfacet
  facet normal 0 -0 -1
    outer loop
      vertex 2 10.8 0
      vertex 2 9.6 0
      vertex 1.5 9.6 0
    endloop
  endfacet
  facet normal 0 -0 -1
    outer loop
      vertex 2 12 0
      vertex 2 10.8 0
      vertex 1.5 10.8 0
    endloop
  endfacet
  facet normal 0 -0 -1
    outer loop
      vertex 2.5 1.2 0
      vertex 2.5 0 0
      vertex 2 0 0
    endloop
  endfacet
  facet normal 0 -0 -1
    outer loop
      vertex 2.5 2.4 0
      vertex 2.5 1.2 0
      vertex 2 1.2 0
    endloop
  endfacet
  facet normal 0 -0 -1
    outer loop
      vertex 2.5 3.6 0
      vertex 2.5 2.4 0
      vertex 2 2.4 0
    endloop
  endfacet
  facet normal 0 -0 -1
    outer loop
      vertex 2.5 4.8 0
      vertex 2.5 3.6 0
      vertex 2 3.6 0
    endloop
  endfacet
  facet normal 0 -0 -1
    outer loop
      vertex 2.5 6 0
      vertex 2.5 4.8 0
      vertex 2 4.8 0
    endloop
  endfacet
  facet normal 0 -0 -1
    outer loop
      vertex 2.5 7.2 0
      vertex 2.5 6 0
      vertex 2 6 0
    endloop
  endfacet
  facet normal 0 -0 -1
    outer loop
      vertex 2.5 8.4 0
      vertex 2.5 7.2 0
      vertex 2 7.2 0
    endloop
  endfacet
  facet normal 0 -0 -1
    outer loop
      vertex 2.5 9.6 0
      vertex 2.5 8.4 0
      vertex 2 8.4 0
    endloop
  endfacet
  facet normal 0 -0 -1
    outer loop
      vertex 2.5 10.8 0
      vertex 2.5 9.6 0
      vertex 2 9.6 0
    endloop
  endfacet
  facet normal 0 -0 -1
    outer loop
      vertex 2.5 12 0
      vertex 2.5 10.8 0
      vertex 2 10.8 0
    endloop
  endfacet
  facet normal 0 -0 -1
    outer loop
      vertex 3 1.2 0
      vertex 3 0 0
      vertex 2.5 0 0
    endloop
  endfacet
  facet normal 0 -0 -1
    outer loop
      vertex 3 2.4 0
      vertex 3 1.2 0
      vertex 2.5 1.2 0
    endloop
  endfacet
  facet normal 0 -0 -1
    outer loop
      vertex 3 3.6 0
      vertex 3 2.4 0
      vertex 2.5 2.4 0
    endloop
  endfacet
  facet normal 0 -0 -1
    outer loop
      vertex 3 4.8 0
      vertex 3 3.6 0
      vertex 2.5 3.6 0
    endloop
  endfacet
  facet normal 0 -0 -1
    outer loop
      vertex 3 6 0
      vertex 3 4.8 0
      vertex 2.5 4.8 0
    endloop
  endfacet
  facet normal 0 -0 -1
    outer loop
      vertex 3 7.2 0
      vertex 3 6 0
      vertex 2.5 6 0
    endloop
  endfacet
  facet normal 0 -0 -1
    outer loop
      vertex 3 8.4 0
      vertex 3 7.2 0
      vertex 2.5 7.2 0
    endloop
  endfacet
  facet normal 0 -0 -1
    outer loop
      vertex 3 9.6 0
      vertex 3 8.4 0
      vertex 2.5 8.4 0
    endloop
  endfacet
  facet normal 0 -0 -1
    outer loop
      vertex 3 10.8 0
      vertex 3 9.6 0
      vertex 2.5 9.6 0
    endloop
  endfacet
  facet normal 0 -0 -1
    outer loop
      vertex 3 12 0
      vertex 3 10.8 0
      vertex 2.5 10.8 0
    endloop
  endfacet
  facet normal 0 -0 -1
    outer loop
      vertex 3.5 1.2 0
      vertex 3.5 0 0
      vertex 3 0 0
    endloop
  endfacet
  facet normal 0 -0 -1
    outer loop
      vertex 3.5 2.4 0
      vertex 3.5 1.2 0
      vertex 3 1.2 0
    endloop
  endfacet
  facet normal 0 -0 -1
    outer loop
      vertex 3.5 3.6 0
      vertex 3.5 2.4 0
      vertex 3 2.4 0
    endloop
  endfacet
  facet normal 0 -0 -1
    outer loop
      vertex 3.5 4.8 0
      vertex 3.5 3.6 0
      vertex 3 3.6 0
    endloop
  endfacet
  facet normal 0 -0 -1
    outer loop
      vertex 3.5 6 0
      vertex 3.5 4.8 0
      vertex 3 4.8 0
    endloop
  endfacet
  facet normal 0 -0 -1
    outer loop
      vertex 3.5 7.2 0
      vertex 3.5 6 0
      vertex 3 6 0
    endloop
  endfacet
  facet normal 0 -0 -1
    outer loop
      vertex 3.5 8.4 0
      vertex 3.5 7.2 0
      vertex 3 7.2 0
    endloop
  endfacet
  facet normal 0 -0 -1
    outer loop
      vertex 3.5 9.6 0
      vertex 3.5 8.4 0
      vertex 3 8.4 0
    endloop
  endfacet
  facet normal 0 -0 -1
    outer loop
      vertex 3.5 10.8 0
      vertex 3.5 9.6 0
      vertex 3 9.6 0
    endloop
  endfacet
  facet normal 0 -0 -1
    outer loop
      vertex 3.5 12 0
      vertex 3.5 10.8 0
      vertex 3 10.8 0
    endloop
  endfacet
  facet normal 0 -0 -1
    outer loop
      vertex 4 1.2 0
      vertex 4 0 0
      vertex 3.5 0 0
    endloop
  endfacet
  facet normal 0 -0 -1
    outer loop
      vertex 4 2.4 0
      vertex 4 1.2 0
      vertex 3.5 1.2 0
    endloop
  endfacet
  facet normal 0 -0 -1
    outer loop
      vertex 4 3.6 0
      vertex 4 2.4 0
      vertex 3.5 2.4 0
    endloop
  endfacet
  facet normal 0 -0 -1
    outer loop
      vertex 4 4.8 0
      vertex 4 3.6 0
      vertex 3.5 3.6 0
    endloop
  endfacet
  facet normal 0 -0 -1
    outer loop
      vertex 4 6 0
      vertex 4 4.8 0
      vertex 3.5 4.8 0
    endloop
  endfacet
  facet normal 0 -0 -1
    outer loop
      vertex 4 7.2 0
      vertex 4 6 0
      vertex 3.5 6 0
    endloop
  endfacet
  facet normal 0 -0 -1
    outer loop
      vertex 4 8.4 0
      vertex 4 7.2 0
      vertex 3.5 7.2 0
    endloop
  endfacet
  facet normal 0 -0 -1
    outer loop
      vertex 4 9.6 0
      vertex 4 8.4 0
      vertex 3.5 8.4 0
    endloop
  endfacet
  facet normal 0 -0 -1
    outer loop
      vertex 4 10.8 0
      vertex 4 9.6 0
      vertex 3.5 9.6 0
    endloop
  endfacet
  facet normal 0 -0 -1
    outer loop
      vertex 4 12 0
      vertex 4 10.8 0
      vertex 3.5 10.8 0
    endloop
  endfacet
  facet normal 0 -0 -1
    outer loop
      vertex 4.5 1.2 0
      vertex 4.5 0 0
      vertex 4 0 0
    endloop
  endfacet
  facet normal 0 -0 -1
    outer loop
      vertex 4.5 2.4 0
      vertex 4.5 1.2 0
      vertex 4 1.2 0
    endloop
  endfacet
  facet normal 0 -0 -1
    outer loop
      vertex 4.5 3.6 0
      vertex 4.5 2.4 0
      vertex 4 2.4 0
    endloop
  endfacet
  facet normal 0 -0 -1
    outer loop
      vertex 4.5 4.8 0
      vertex 4.5 3.6 0
      vertex 4 3.6 0
    endloop
  endfacet
  facet normal 0 -0 -1
    outer loop
      vertex 4.5 6 0
      vertex 4.5 4.8 0
      vertex 4 4.8 0
    endloop
  endfacet
  facet normal 0 -0 -1
    outer loop
      vertex 4.5 7.2 0
      vertex 4.5 6 0
      vertex 4 6 0
    endloop
  endfacet
  facet normal 0 -0 -1
    outer loop
      vertex 4.5 8.4 0
      vertex 4.5 7.2 0
      vertex 4 7.2 0
    endloop
  endfacet
  facet normal 0 -0 -1
    outer loop
      vertex 4.5 9.6 0
      vertex 4.5 8.4 0
      vertex 4 8.4 0
    endloop
  endfacet
  facet normal 0 -0 -1
    outer loop
      vertex 4.5 10.8 0
      vertex 4.5 9.6 0
      vertex 4 9.6 0
    endloop
  endfacet
  facet normal 0 -0 -1
    outer loop
      vertex 4.5 12 0
      vertex 4.5 10.8 0
      vertex 4 10.8 0
    endloop
  endfacet
  facet normal 0 -0 -1
    outer loop
      vertex 5 1.2 0
      vertex 5 0 0
      vertex 4.5 0 0
    endloop
  endfacet
  facet normal 0 -0 -1
    outer loop
      vertex 5 2.4 0
      vertex 5 1.2 0
      vertex 4.5 1.2 0
    endloop
  endfacet
  facet normal 0 -0 -1
    outer loop
      vertex 5 3.6 0
      vertex 5 2.4 0
      vertex 4.5 2.4 0
    endloop
  endfacet
  facet normal 0 -0 -1
    outer loop
      vertex 5 4.8 0
      vertex 5 3.6 0
      vertex 4.5 3.6 0
    endloop
  endfacet
  facet normal 0 -0 -1
    outer loop
      vertex 5 6 0
      vertex 5 4.8 0
      vertex 4.5 4.8 0
    endloop
  endfacet
  facet normal 0 -0 -1
    outer loop
      vertex 5 7.2 0
      vertex 5 6 0
      vertex 4.5 6 0
    endloop
  endfacet
  facet normal 0 -0 -1
    outer loop
      vertex 5 8.4 0
      vertex 5 7.2 0
      vertex 4.5 7.2 0
    endloop
  endfacet
  facet normal 0 -0 -1
    outer loop
      vertex 5 9.6 0
      vertex 5 8.4 0
      vertex 4.5 8.4 0
    endloop
  endfacet
  facet normal 0 -0 -1
    outer loop
      vertex 5 10.8 0
      vertex 5 9.6 0
      vertex 4.5 9.6 0
    endloop
  endfacet
  facet normal 0 -0 -1
    outer loop
      vertex 5 12 0
      vertex 5 10.8 0
      vertex 4.5 10.8 0
    endloop
  endfacet
  facet normal 0 0 1
    outer loop
      vertex 0 0 -0.001
      vertex 0.5 1.2 -0.001
      vertex 0 1.2 -0.001
    endloop
  endfacet
  facet normal 0 0 1
    outer loop
      vertex 0 1.2 -0.001
      vertex 0.5 2.4 -0.001
      vertex 0 2.4 -0.001
    endloop
  endfacet
  facet normal 0 0 1
    outer loop
      vertex 0 2.4 -0.001
      vertex 0.5 3.6 -0.001
      vertex 0 3.6 -0.001
    endloop
  endfacet
  facet normal 0 0 1
    outer loop
      vertex 0 3.6 -0.001
      vertex 0.5 4.8 -0.001
      vertex 0 4.8 -0.001
    endloop
  endfacet
  facet normal 0 0 1
    outer loop
      vertex 0 4.8 -0.001
      vertex 0.5 6 -0.001
      vertex 0 6 -0.001
    endloop
  endfacet
  facet normal 0 0 1
    outer loop
      vertex 0 6 -0.001
      vertex 0.5 7.2 -0.001
      vertex 0 7.2 -0.001
    endloop
  endfacet
  facet normal 0 0 1
    outer loop
      vertex 0 7.2 -0.001
      vertex 0.5 8.4 -0.001
      vertex 0 8.4 -0.001
    endloop
  endfacet
  facet normal 0 0 1
    outer loop
      vertex 0 8.4 -0.001
      vertex 0.5 9.6 -0.001
      vertex 0 9.6 -0.001
    endloop
  endfacet
  facet normal 0 0 1
    outer loop
      vertex 0 9.6 -0.001
      vertex 0.5 10.8 -0.001
      vertex 0 10.8 -0.001
    endloop
  endfacet
  facet normal 0 0 1
    outer loop
      vertex 0 10.8 -0.001
      vertex 0.5 12 -0.001
      vertex 0 12 -0.001
    endloop
  endfacet
  facet normal 0 0 1
    outer loop
      vertex 0.5 0 -0.001
      vertex 1 1.2 -0.001
      vertex 0.5 1.2 -0.001
    endloop
  endfacet
  facet normal 0 0 1
    outer loop
      vertex 0.5 1.2 -0.001
      vertex 1 2.4 -0.001
      vertex 0.5 2.4 -0.001
    endloop
  endfacet
  facet normal 0 0 1
    outer loop
      vertex 0.5 2.4 -0.001
      vertex 1 3.6 -0.001
      vertex 0.5 3.6 -0.001
    endloop
  endfacet
  facet normal 0 0 1
    outer loop
      vertex 0.5 3.6 -0.001
      vertex 1 4.8 -0.001
      vertex 0.5 4.8 -0.001
    endloop
  endfacet
  facet normal 0 0 1
    outer loop
      vertex 0.5 4.8 -0.001
      vertex 1 6 -0.001
      vertex 0.5 6 -0.001
    endloop
  endfacet
  facet normal 0 0 1
    outer loop
      vertex 0.5 6 -0.001
      vertex 1 7.2 -0.001
      vertex 0.5 7.2 -0.001
    endloop
  endfacet
  facet normal 0 0 1
    outer loop
      vertex 0.5 7.2 -0.001
      vertex 1 8.4 -0.001
      vertex 0.5 8.4 -0.001
    endloop
  endfacet
  facet normal 0 0 1
    outer loop
      vertex 0.5 8.4 -0.001
      vertex 1 9.6 -0.001
      vertex 0.5 9.6 -0.001
    endloop
  endfacet
  facet normal 0 0 1
    outer loop
      vertex 0.5 9.6 -0.001
      vertex 1 10.8 -0.001
      vertex 0.5 10.8 -0.001
    endloop
  endfacet
  facet normal 0 0 1
    outer loop
      vertex 0.5 10.8 -0.001
      vertex 1 12 -0.001
      vertex 0.5 12 -0.001
    endloop
  endfacet
  facet normal 0 0 1
    outer loop
      vertex 1 0 -0.001
      vertex 1.5 1.2 -0.001
      vertex 1 1.2 -0.001
    endloop
  endfacet
  facet normal 0 0 1
    outer loop
      vertex 1 1.2 -0.001
      vertex 1.5 2.4 -0.001
      vertex 1 2.4 -0.001
    endloop
  endfacet
  facet normal 0 0 1
    outer loop
      vertex 1 2.4 -0.001
      vertex 1.5 3.6 -0.001
      vertex 1 3.6 -0.001
    endloop
  endfacet
  facet normal 0 0 1
    outer loop
      vertex 1 3.6 -0.001
      vertex 1.5 4.8 -0.001
      vertex 1 4.8 -0.001
    endloop
  endfacet
  facet normal 0 0 1
    outer loop
      vertex 1 4.8 -0.001
      vertex 1.5 6 -0.001
      vertex 1 6 -0.001
    endloop
  endfacet
  facet normal 0 0 1
    outer loop
      vertex 1 6 -0.001
      vertex 1.5 7.2 -0.001
      vertex 1 7.2 -0.001
    endloop
  endfacet
  facet normal 0 0 1
    outer loop
      vertex 1 7.2 -0.001
      vertex 1.5 8.4 -0.001
      vertex 1 8.4 -0.001
    endloop
  endfacet
  facet normal 0 0 1
    outer loop
      vertex 1 8.4 -0.001
      vertex 1.5 9.6 -0.001
      vertex 1 9.6 -0.001
    endloop
  endfacet
  facet normal 0 0 1
    outer loop
      vertex 1 9.6 -0.001
      vertex 1.5 10.8 -0.001
      vertex 1 10.8 -0.001
    endloop
  endfacet
  facet normal 0 0 1
    outer loop
      vertex 1 10.8 -0.001
      vertex 1.5 12 -0.001
      vertex 1 12 -0.001
    endloop
  endfacet
  facet normal 0 0 1
    outer loop
      vertex 1.5 0 -0.001
      vertex 2 1.2 -0.001
      vertex 1.5 1.2 -0.001
    endloop
  endfacet
  facet normal 0 0 1
    outer loop
      vertex 1.5 1.2 -0.001
      vertex 2 2.4 -0.001
      vertex 1.5 2.4 -0.001
    endloop
  endfacet
  facet normal 0 0 1
    outer loop
      vertex 1.5 2.4 -0.001
      vertex 2 3.6 -0.001
      vertex 1.5 3.6 -0.001
    endloop
  endfacet
  facet normal 0 0 1
    outer loop
      vertex 1.5 3.6 -0.001
      vertex 2 4.8 -0.001
      vertex 1.5 4.8 -0.001
    endloop
  endfacet
  facet normal 0 0 1
    outer loop
      vertex 1.5 4.8 -0.001
      vertex 2 6 -0.001
      vertex 1.5 6 -0.001
    endloop
  endfacet
  facet normal 0 0 1
    outer loop
      vertex 1.5 6 -0.001
      vertex 2 7.2 -0.001
      vertex 1.5 7.2 -0.001
    endloop
  endfacet
  facet normal 0 0 1
    outer loop
      vertex 1.5 7.2 -0.001
      vertex 2 8.4 -0.001
      vertex 1.5 8.4 -0.001
    endloop
  endfacet
  facet normal 0 0 1
    outer loop
      vertex 1.5 8.4 -0.001
      vertex 2 9.6 -0.001
      vertex 1.5 9.6 -0.001
    endloop
  endfacet
  facet normal 0 0 1
    outer loop
      vertex 1.5 9.6 -0.001
      vertex 2 10.8 -0.001
      vertex 1.5 10.8 -0.001
    endloop
  endfacet
  facet normal 0 0 1
    outer loop
      vertex 1.5 10.8 -0.001
      vertex 2 12 -0.001
      vertex 1.5 12 -0.001
    endloop
  endfacet
  facet normal 0 0 1
    outer loop
      vertex 2 0 -0.001
      vertex 2.5 1.2 -0.001
      vertex 2 1.2 -0.001
    endloop
  endfacet
  facet normal 0 0 1
    outer loop
      vertex 2 1.2 -0.001
      vertex 2.5 2.4 -0.001
      vertex 2 2.4 -0.001
    endloop
  endfacet
  facet normal 0 0 1
    outer loop
      vertex 2 2.4 -0.001
      vertex 2.5 3.6 -0.001
      vertex 2 3.6 -0.001
    endloop
  endfacet
  facet normal 0 0 1
    outer loop
      vertex 2 3.6 -0.001
      vertex 2.5 4.8 -0.001
      vertex 2 4.8 -0.001
    endloop
  endfacet
  facet normal 0 0 1
    outer loop
      vertex 2 4.8 -0.001
      vertex 2.5 6 -0.001
      vertex 2 6 -0.001
    endloop
  endfacet
  facet normal 0 0 1
    outer loop
      vertex 2 6 -0.001
      vertex 2.5 7.2 -0.001
      vertex 2 7.2 -0.001
    endloop
  endfacet
  facet normal 0 0 1
    outer loop
      vertex 2 7.2 -0.001
      vertex 2.5 8.4 -0.001
      vertex 2 8.4 -0.001
    endloop
  endfacet
  facet normal 0 0 1
    outer loop
      vertex 2 8.4 -0.001
      vertex 2.5 9.6 -0.001
      vertex 2 9.6 -0.001
    endloop
  endfacet
  facet normal 0 0 1
    outer loop
      vertex 2 9.6 -0.001
      vertex 2.5 10.8 -0.001
      vertex 2 10.8 -0.001
    endloop
  endfacet
  facet normal 0 0 1
    outer loop
      vertex 2 10.8 -0.001
      vertex 2.5 12 -0.001
      vertex 2 12 -0.001
    endloop
  endfacet
  facet normal 0 0 1
    outer loop
      vertex 2.5 0 -0.001
      vertex 3 1.2 -0.001
      vertex 2.5 1.2 -0.001
    endloop
  endfacet
  facet normal 0 0 1
    outer loop
      vertex 2.5 1.2 -0.001
      vertex 3 2.4 -0.001
      vertex 2.5 2.4 -0.001
    endloop
  endfacet
  facet normal 0 0 1
    outer loop
      vertex 2.5 2.4 -0.001
      vertex 3 3.6 -0.001
      vertex 2.5 3.6 -0.001
    endloop
  endfacet
  facet normal 0 0 1
    outer loop
      vertex 2.5 3.6 -0.001
      vertex 3 4.8 -0.001
      vertex 2.5 4.8 -0.001
    endloop
  endfacet
  facet normal 0 0 1
    outer loop
      vertex 2.5 4.8 -0.001
      vertex 3 6 -0.001
      vertex 2.5 6 -0.001
    endloop
  endfacet
  facet normal 0 0 1
    outer loop
      vertex 2.5 6 -0.001
      vertex 3 7.2 -0.001
      vertex 2.5 7.2 -0.001
    endloop
  endfacet
  facet normal 0 0 1
    outer loop
      vertex 2.5 7.2 -0.001
      vertex 3 8.4 -0.001
      vertex 2.5 8.4 -0.001
    endloop
  endfacet
  facet normal 0 0 1
    outer loop
      vertex 2.5 8.4 -0.001
      vertex 3 9.6 -0.001
      vertex 2.5 9.6 -0.001
    endloop
  endfacet
  facet normal 0 0 1
    outer loop
      vertex 2.5 9.6 -0.001
      vertex 3 10.8 -0.001
      vertex 2.5 10.8 -0.001
    endloop
  endfacet
  facet normal 0 0 1
    outer loop
      vertex 2.5 10.8 -0.001
      vertex 3 12 -0.001
      vertex 2.5 12 -0.001
    endloop
  endfacet
  facet normal 0 0 1
    outer loop
      vertex 3 0 -0.001
      vertex 3.5 1.2 -0.001
      vertex 3 1.2 -0.001
    endloop
  endfacet
  facet normal 0 0 1
    outer loop
      vertex 3 1.2 -0.001
      vertex 3.5 2.4 -0.001
      vertex 3 2.4 -0.001
    endloop
  endfacet
  facet normal 0 0 1
    outer loop
      vertex 3 2.4 -0.001
      vertex 3.5 3.6 -0.001
      vertex 3 3.6 -0.001
    endloop
  endfacet
  facet normal 0 0 1
    outer loop
      vertex 3 3.6 -0.001
      vertex 3.5 4.8 -0.001
      vertex 3 4.8 -0.001
    endloop
  endfacet
  facet normal 0 0 1
    outer loop
      vertex 3 4.8 -0.001
      vertex 3.5 6 -0.001
      vertex 3 6 -0.001
    endloop
  endfacet
  facet normal 0 0 1
    outer loop
      vertex 3 6 -0.001
      vertex 3.5 7.2 -0.001
      vertex 3 7.2 -0.001
    endloop
  endfacet
  facet normal 0 0 1
    outer loop
      vertex 3 7.2 -0.001
      vertex 3.5 8.4 -0.001
      vertex 3 8.4 -0.001
    endloop
  endfacet
  facet normal 0 0 1
    outer loop
      vertex 3 8.4 -0.001
      vertex 3.5 9.6 -0.001
      vertex 3 9.6 -0.001
    endloop
  endfacet
  facet normal 0 0 1
    outer loop
      vertex 3 9.6 -0.001
      vertex 3.5 10.8 -0.001
      vertex 3 10.8 -0.001
    endloop
  endfacet
  facet normal 0 0 1
    outer loop
      vertex 3 10.8 -0.001
      vertex 3.5 12 -0.001
      vertex 3 12 -0.001
    endloop
  endfacet
  facet normal 0 0 1
    outer loop
      vertex 3.5 0 -0.001
      vertex 4 1.2 -0.001
      vertex 3.5 1.2 -0.001
    endloop
  endfacet
  facet normal 0 0 1
    outer loop
      vertex 3.5 1.2 -0.001
      vertex 4 2.4 -0.001
      vertex 3.5 2.4 -0.001
    endloop
  endfacet
  facet normal 0 0 1
    outer loop
      vertex 3.5 2.4 -0.001
      vertex 4 3.6 -0.001
      vertex 3.5 3.6 -0.001
    endloop
  endfacet
  facet normal 0 0 1
    outer loop
      vertex 3.5 3.6 -0.001
      vertex 4 4.8 -0.001
      vertex 3.5 4.8 -0.001
    endloop
  endfacet
  facet normal 0 0 1
    outer loop
      vertex 3.5 4.8 -0.001
      vertex 4 6 -0.001
      vertex 3.5 6 -0.001
    endloop
  endfacet
  facet normal 0 0 1
    outer loop
      vertex 3.5 6 -0.001
      vertex 4 7.2 -0.001
      vertex 3.5 7.2 -0.001
    endloop
  endfacet
  facet normal 0 0 1
    outer loop
      vertex 3.5 7.2 -0.001
      vertex 4 8.4 -0.001
      vertex 3.5 8.4 -0.001
    endloop
  endfacet
  facet normal 0 0 1
    outer loop
      vertex 3.5 8.4 -0.001
      vertex 4 9.6 -0.001
      vertex 3.5 9.6 -0.001
    endloop
  endfacet
  facet normal 0 0 1
    outer loop
      vertex 3.5 9.6 -0.001
      vertex 4 10.8 -0.001
      vertex 3.5 10.8 -0.001
    endloop
  endfacet
  facet normal 0 0 1
    outer loop
      vertex 3.5 10.8 -0.001
      vertex 4 12 -0.001
      vertex 3.5 12 -0.001
    endloop
  endfacet
  facet normal 0 0 1
    outer loop
      vertex 4 0 -0.001
      vertex 4.5 1.2 -0.001
      vertex 4 1.2 -0.001
    endloop
  endfacet
  facet normal 0 0 1
    outer loop
      vertex 4 1.2 -0.001
      vertex 4.5 2.4 -0.001
      vertex 4 2.4 -0.001
    endloop
  endfacet
  facet normal 0 0 1
    outer loop
      vertex 4 2.4 -0.001
      vertex 4.5 3.6 -0.001
      vertex 4 3.6 -0.001
    endloop
  endfacet
  facet normal 0 0 1
    outer loop
      vertex 4 3.6 -0.001
      vertex 4.5 4.8 -0.001
      vertex 4 4.8 -0.001
    endloop
  endfacet
  facet normal 0 0 1
    outer loop
      vertex 4 4.8 -0.001
      vertex 4.5 6 -0.001
      vertex 4 6 -0.001
    endloop
  endfacet
  facet normal 0 0 1
    outer loop
      vertex 4 6 -0.001
      vertex 4.5 7.2 -0.001
      vertex 4 7.2 -0.001
    endloop
  endfacet
  facet normal 0 0 1
    outer loop
      vertex 4 7.2 -0.001
      vertex 4.5 8.4 -0.001
      vertex 4 8.4 -0.001
    endloop
  endfacet
  facet normal 0 0 1
    outer loop
      vertex 4 8.4 -0.001
      vertex 4.5 9.6 -0.001
      vertex 4 9.6 -0.001
    endloop
  endfacet
  facet normal 0 0 1
    outer loop
      vertex 4 9.6 -0.001
      vertex 4.5 10.8 -0.001
      vertex 4 10.8 -0.001
    endloop
  endfacet
  facet normal 0 0 1
    outer loop
      vertex 4 10.8 -0.001
      vertex 4.5 12 -0.001
      vertex 4 12 -0.001
    endloop
  endfacet
  facet normal 0 0 1
    outer loop
      vertex 4.5 0 -0.001
      vertex 5 1.2 -0.001
      vertex 4.5 1.2 -0.001
    endloop
  endfacet
  facet normal 0 0 1
    outer loop
      vertex 4.5 1.2 -0.001
      vertex 5 2.4 -0.001
      vertex 4.5 2.4 -0.001
    endloop
  endfacet
  facet normal 0 0 1
    outer loop
      vertex 4.5 2.4 -0.001
      vertex 5 3.6 -0.001
      vertex 4.5 3.6 -0.001
    endloop
  endfacet
  facet normal 0 0 1
    outer loop
      vertex 4.5 3.6 -0.001
      vertex 5 4.8 -0.001
      vertex 4.5 4.8 -0.001
    endloop
  endfacet
  facet normal 0 0 1
    outer loop
      vertex 4.5 4.8 -0.001
      vertex 5 6 -0.001
      vertex 4.5 6 -0.001
    endloop
  endfacet
  facet normal 0 0 1
    outer loop
      vertex 4.5 6 -0.001
      vertex 5 7.2 -0.001
      vertex 4.5 7.2 -0.001
    endloop
  endfacet
  facet normal 0 0 1
    outer loop
      vertex 4.5 7.2 -0.001
      vertex 5 8.4 -0.001
      vertex 4.5 8.4 -0.001
    endloop
  endfacet
  facet normal 0 0 1
    outer loop
      vertex 4.5 8.4 -0.001
      vertex 5 9.6 -0.001
      vertex 4.5 9.6 -0.001
    endloop
  endfacet
  facet normal 0 0 1
    outer loop
      vertex 4.5 9.6 -0.001
      vertex 5 10.8 -0.001
      vertex 4.5 10.8 -0.001
    endloop
  endfacet
  facet normal 0 0 1
    outer loop
      vertex 4.5 10.8 -0.001
      vertex 5 12 -0.001
      vertex 4.5 12 -0.001
    endloop
  endfacet
  facet normal 0 0 1
    outer loop
      vertex 0 0 -0.001
      vertex 0.5 0 -0.001
      vertex 0.5 1.2 -0.001
    endloop
  endfacet
  facet normal 0 0 1
    outer loop
      vertex 0 1.2 -0.001
      vertex 0.5 1.2 -0.001
      vertex 0.5 2.4 -0.001
    endloop
  endfacet
  facet normal 0 0 1
    outer loop
      vertex 0 2.4 -0.001
      vertex 0.5 2.4 -0.001
      vertex 0.5 3.6 -0.001
    endloop
  endfacet
  facet normal 0 0 1
    outer loop
      vertex 0 3.6 -0.001
      vertex 0.5 3.6 -0.001
      vertex 0.5 4.8 -0.001
    endloop
  endfacet
  facet normal 0 0 1
    outer loop
      vertex 0 4.8 -0.001
      vertex 0.5 4.8 -0.001
      vertex 0.5 6 -0.001
    endloop
  endfacet
  facet normal 0 0 1
    outer loop
      vertex 0 6 -0.001
      vertex 0.5 6 -0.001
      vertex 0.5 7.2 -0.001
    endloop
  endfacet
  facet normal 0 0 1
    outer loop
      vertex 0 7.2 -0.001
      vertex 0.5 7.2 -0.001
      vertex 0.5 8.4 -0.001
    endloop
  endfacet
  facet normal 0 0 1
    outer loop
      vertex 0 8.4 -0.001
      vertex 0.5 8.4 -0.001
      vertex 0.5 9.6 -0.001
    endloop
  endfacet
  facet normal 0 0 1
    outer loop
      vertex 0 9.6 -0.001
      vertex 0.5 9.6 -0.001
      vertex 0.5 10.8 -0.001
    endloop
  endfacet
  facet normal 0 0 1
    outer loop
      vertex 0 10.8 -0.001
      vertex 0.5 10.8 -0.001
      vertex 0.5 12 -0.001
    endloop
  endfacet
  facet normal 0 0 1
    outer loop
      vertex 0.5 0 -0.001
      vertex 1 0 -0.001
      vertex 1 1.2 -0.001
    endloop
  endfacet
  facet normal 0 0 1
    outer loop
      vertex 0.5 1.2 -0.001
      vertex 1 1.2 -0.001
      vertex 1 2.4 -0.001
    endloop
  endfacet
  facet normal 0 0 1
    outer loop
      vertex 0.5 2.4 -0.001
      vertex 1 2.4 -0.001
      vertex 1 3.6 -0.001
    endloop
  endfacet
  facet normal 0 0 1
    outer loop
      vertex 0.5 3.6 -0.001
      vertex 1 3.6 -0.001
      vertex 1 4.8 -0.001
    endloop
  endfacet
  facet normal 0 0 1
    outer loop
      vertex 0.5 4.8 -0.001
      vertex 1 4.8 -0.001
      vertex 1 6 -0.001
    endloop
  endfacet
  facet normal 0 0 1
    outer loop
      vertex 0.5 6 -0.001
      vertex 1 6 -0.001
      vertex 1 7.2 -0.001
    endloop
  endfacet
  facet normal 0 0 1
    outer loop
      vertex 0.5 7.2 -0.001
      vertex 1 7.2 -0.001
      vertex 1 8.4 -0.001
    endloop
  endfacet
  facet normal 0 0 1
    outer loop
      vertex 0.5 8.4 -0.001
      vertex 1 8.4 -0.001
      vertex 1 9.6 -0.001
    endloop
  endfacet
  facet normal 0 0 1
    outer loop
      vertex 0.5 9.6 -0.001
      vertex 1 9.6 -0.001
      vertex 1 10.8 -0.001
    endloop
  endfacet
  facet normal 0 0 1
    outer loop
      vertex 0.5 10.8 -0.001
      vertex 1 10.8 -0.001
      vertex 1 12 -0.001
    endloop
  endfacet
  facet normal 0 0 1
    outer loop
      vertex 1 0 -0.001
      vertex 1.5 0 -0.001
      vertex 1.5 1.2 -0.001
    endloop
  endfacet
  facet normal 0 0 1
    outer loop
      vertex 1 1.2 -0.001
      vertex 1.5 1.2 -0.001
      vertex 1.5 2.4 -0.001
    endloop
  endfacet
  facet normal 0 0 1
    outer loop
      vertex 1 2.4 -0.001
      vertex 1.5 2.4 -0.001
      vertex 1.5 3.6 -0.001
    endloop
  endfacet
  facet normal 0 0 1
    outer loop
      vertex 1 3.6 -0.001
      vertex 1.5 3.6 -0.001
      vertex 1.5 4.8 -0.001
    endloop
  endfacet
  facet normal 0 0 1
    outer loop
      vertex 1 4.8 -0.001
      vertex 1.5 4.8 -0.001
      vertex 1.5 6 -0.001
    endloop
  endfacet
  facet normal 0 0 1
    outer loop
      vertex 1 6 -0.001
      vertex 1.5 6 -0.001
      vertex 1.5 7.2 -0.001
    endloop
  endfacet
  facet normal 0 0 1
    outer loop
      vertex 1 7.2 -0.001
      vertex 1.5 7.2 -0.001
      vertex 1.5 8.4 -0.001
    endloop
  endfacet
  facet normal 0 0 1
    outer loop
      vertex 1 8.4 -0.001
      vertex 1.5 8.4 -0.001
      vertex 1.5 9.6 -0.001
    endloop
  endfacet
  facet normal 0 0 1
    outer loop
      vertex 1 9.6 -0.001
      vertex 1.5 9.6 -0.001
      vertex 1.5 10.8 -0.001
    endloop
  endfacet
  facet normal 0 0 1
    outer loop
      vertex 1 10.8 -0.001
      vertex 1.5 10.8 -0.001
      vertex 1.5 12 -0.001
    endloop
  endfacet
  facet normal 0 0 1
    outer loop
      vertex 1.5 0 -0.001
      vertex 2 0 -0.001
      vertex 2 1.2 -0.001
    endloop
  endfacet
  facet normal 0 0 1
    outer loop
      vertex 1.5 1.2 -0.001
      vertex 2 1.2 -0.001
      vertex 2 2.4 -0.001
    endloop
  endfacet
  facet normal 0 0 1
    outer loop
      vertex 1.5 2.4 -0.001
      vertex 2 2.4 -0.001
      vertex 2 3.6 -0.001
    endloop
  endfacet
  facet normal 0 0 1
    outer loop
      vertex 1.5 3.6 -0.001
      vertex 2 3.6 -0.001
      vertex 2 4.8 -0.001
    endloop
  endfacet
  facet normal 0 0 1
    outer loop
      vertex 1.5 4.8 -0.001
      vertex 2 4.8 -0.001
      vertex 2 6 -0.001
    endloop
  endfacet
  facet normal 0 0 1
    outer loop
      vertex 1.5 6 -0.001
      vertex 2 6 -0.001
      vertex 2 7.2 -0.001
    endloop
  endfacet
  facet normal 0 0 1
    outer loop
      vertex 1.5 7.2 -0.001
      vertex 2 7.2 -0.001
      vertex 2 8.4 -0.001
    endloop
  endfacet
  facet normal 0 0 1
    outer loop
      vertex 1.5 8.4 -0.001
      vertex 2 8.4 -0.001
      vertex 2 9.6 -0.001
    endloop
  endfacet
  facet normal 0 0 1
    outer loop
      vertex 1.5 9.6 -0.001
      vertex 2 9.6 -0.001
      vertex 2 10.8 -0.001
    endloop
  endfacet
  facet normal 0 0 1
    outer loop
      vertex 1.5 10.8 -0.001
      vertex 2 10.8 -0.001
      vertex 2 12 -0.001
    endloop
  endfacet
  facet normal 0 0 1
    outer loop
      vertex 2 0 -0.001
      vertex 2.5 0 -0.001
      vertex 2.5 1.2 -0.001
    endloop
  endfacet
  facet normal 0 0 1
    outer loop
      vertex 2 1.2 -0.001
      vertex 2.5 1.2 -0.001
      vertex 2.5 2.4 -0.001
    endloop
  endfacet
  facet normal 0 0 1
    outer loop
      vertex 2 2.4 -0.001
      vertex 2.5 2.4 -0.001
      vertex 2.5 3.6 -0.001
    endloop
  endfacet
  facet normal 0 0 1
    outer loop
      vertex 2 3.6 -0.001
      vertex 2.5 3.6 -0.001
      vertex 2.5 4.8 -0.001
    endloop
  endfacet
  facet normal 0 0 1
    outer loop
      vertex 2 4.8 -0.001
      vertex 2.5 4.8 -0.001
      vertex 2.5 6 -0.001
    endloop
  endfacet
  facet normal 0 0 1
    outer loop
      vertex 2 6 -0.001
      vertex 2.5 6 -0.001
      vertex 2.5 7.2 -0.001
    endloop
  endfacet
  facet normal 0 0 1
    outer loop
      vertex 2 7.2 -0.001
      vertex 2.5 7.2 -0.001
      vertex 2.5 8.4 -0.001
    endloop
  endfacet
  facet normal 0 0 1
    outer loop
      vertex 2 8.4 -0.001
      vertex 2.5 8.4 -0.001
      vertex 2.5 9.6 -0.001
    endloop
  endfacet
  facet normal 0 0 1
    outer loop
      vertex 2 9.6 -0.001
      vertex 2.5 9.6 -0.001
      vertex 2.5 10.8 -0.001
    endloop
  endfacet
  facet normal 0 0 1
    outer loop
      vertex 2 10.8 -0.001
      vertex 2.5 10.8 -0.001
      vertex 2.5 12 -0.001
    endloop
  endfacet
  facet normal 0 0 1
    outer loop
      vertex 2.5 0 -0.001
      vertex 3 0 -0.001
      vertex 3 1.2 -0.001
    endloop
  endfacet
  facet normal 0 0 1
    outer loop
      vertex 2.5 1.2 -0.001
      vertex 3 1.2 -0.001
      vertex 3 2.4 -0.001
    endloop
  endfacet
  facet normal 0 0 1
    outer loop
      vertex 2.5 2.4 -0.001
      vertex 3 2.4 -0.001
      vertex 3 3.6 -0.001
    endloop
  endfacet
  facet normal 0 0 1
    outer loop
      vertex 2.5 3.6 -0.001
      vertex 3 3.6 -0.001
      vertex 3 4.8 -0.001
    endloop
  endfacet
  facet normal 0 0 1
    outer loop
      vertex 2.5 4.8 -0.001
      vertex 3 4.8 -0.001
      vertex 3 6 -0.001
    endloop
  endfacet
  facet normal 0 0 1
    outer loop
      vertex 2.5 6 -0.001
      vertex 3 6 -0.001
      vertex 3 7.2 -0.001
    endloop
  endfacet
  facet normal 0 0 1
    outer loop
      vertex 2.5 7.2 -0.001
      vertex 3 7.2 -0.001
      vertex 3 8.4 -0.001
    endloop
  endfacet
  facet normal 0 0 1
    outer loop
      vertex 2.5 8.4 -0.001
      vertex 3 8.4 -0.001
      vertex 3 9.6 -0.001
    endloop
  endfacet
  facet normal 0 0 1
    outer loop
      vertex 2.5 9.6 -0.001
      vertex 3 9.6 -0.001
      vertex 3 10.8 -0.001
    endloop
  endfacet
  facet normal 0 0 1
    outer loop
      vertex 2.5 10.8 -0.001
      vertex 3 10.8 -0.001
      vertex 3 12 -0.001
    endloop
  endfacet
  facet normal 0 0 1
    outer loop
      vertex 3 0 -0.001
      vertex 3.5 0 -0.001
      vertex 3.5 1.2 -0.001
    endloop
  endfacet
  facet normal 0 0 1
    outer loop
      vertex 3 1.2 -0.001
      vertex 3.5 1.2 -0.001
      vertex 3.5 2.4 -0.001
    endloop
  endfacet
  facet normal 0 0 1
    outer loop
      vertex 3 2.4 -0.001
      vertex 3.5 2.4 -0.001
      vertex 3.5 3.6 -0.001
    endloop
  endfacet
  facet normal 0 0 1
    outer loop
      vertex 3 3.6 -0.001
      vertex 3.5 3.6 -0.001
      vertex 3.5 4.8 -0.001
    endloop
  endfacet
  facet normal 0 0 1
    outer loop
      vertex 3 4.8 -0.001
      vertex 3.5 4.8 -0.001
      vertex 3.5 6 -0.001
    endloop
  endfacet
  facet normal 0 0 1
    outer loop
      vertex 3 6 -0.001
      vertex 3.5 6 -0.001
      vertex 3.5 7.2 -0.001
    endloop
  endfacet
  facet normal 0 0 1
    outer loop
      vertex 3 7.2 -0.001
      vertex 3.5 7.2 -0.001
      vertex 3.5 8.4 -0.001
    endloop
  endfacet
  facet normal 0 0 1
    outer loop
      vertex 3 8.4 -0.001
      vertex 3.5 8.4 -0.001
      vertex 3.5 9.6 -0.001
    endloop
  endfacet
  facet normal 0 0 1
    outer loop
      vertex 3 9.6 -0.001
      vertex 3.5 9.6 -0.001
      vertex 3.5 10.8 -0.001
    endloop
  endfacet
  facet normal 0 0 1
    outer loop
      vertex 3 10.8 -0.001
      vertex 3.5 10.8 -0.001
      vertex 3.5 12 -0.001
    endloop
  endfacet
  facet normal 0 0 1
    outer loop
      vertex 3.5 0 -0.001
      vertex 4 0 -0.001
      vertex 4 1.2 -0.001
    endloop
  endfacet
  facet normal 0 0 1
    outer loop
      vertex 3.5 1.2 -0.001
      vertex 4 1.2 -0.001
      vertex 4 2.4 -0.001
    endloop
  endfacet
  facet normal 0 0 1
    outer loop
      vertex 3.5 2.4 -0.001
      vertex 4 2.4 -0.001
      vertex 4 3.6 -0.001
    endloop
  endfacet
  facet normal 0 0 1
    outer loop
      vertex 3.5 3.6 -0.001
      vertex 4 3.6 -0.001
      vertex 4 4.8 -0.001
    endloop
  endfacet
  facet normal 0 0 1
    outer loop
      vertex 3.5 4.8 -0.001
      vertex 4 4.8 -0.001
      vertex 4 6 -0.001
    endloop
  endfacet
  facet normal 0 0 1
    outer loop
      vertex 3.5 6 -0.001
      vertex 4 6 -0.001
      vertex 4 7.2 -0.001
    endloop
  endfacet
  facet normal 0 0 1
    outer loop
      vertex 3.5 7.2 -0.001
      vertex 4 7.2 -0.001
      vertex 4 8.4 -0.001
    endloop
  endfacet
  facet normal 0 0 1
    outer loop
      vertex 3.5 8.4 -0.001
      vertex 4 8.4 -0.001
      vertex 4 9.6 -0.001
    endloop
  endfacet
  facet normal 0 0 1
    outer loop
      vertex 3.5 9.6 -0.001
      vertex 4 9.6 -0.001
      vertex 4 10.8 -0.001
    endloop
  endfacet
  facet normal 0 0 1
    outer loop
      vertex 3.5 10.8 -0.001
      vertex 4 10.8 -0.001
      vertex 4 12 -0.001
    endloop
  endfacet
  facet normal 0 0 1
    outer loop
      vertex 4 0 -0.001
      vertex 4.5 0 -0.001
      vertex 4.5 1.2 -0.001
    endloop
  endfacet
  facet normal 0 0 1
    outer loop
      vertex 4 1.2 -0.001
      vertex 4.5 1.2 -0.001
      vertex 4.5 2.4 -0.001
    endloop
  endfacet
  facet normal 0 0 1
    outer loop
      vertex 4 2.4 -0.001
      vertex 4.5 2.4 -0.001
      vertex 4.5 3.6 -0.001
    endloop
  endfacet
  facet normal 0 0 1
    outer loop
      vertex 4 3.6 -0.001
      vertex 4.5 3.6 -0.001
      vertex 4.5 4.8 -0.001
    endloop
  endfacet
  facet normal 0 0 1
    outer loop
      vertex 4 4.8 -0.001
      vertex 4.5 4.8 -0.001
      vertex 4.5 6 -0.001
    endloop
  endfacet
  facet normal 0 0 1
    outer loop
      vertex 4 6 -0.001
      vertex 4.5 6 -0.001
      vertex 4.5 7.2 -0.001
    endloop
  endfacet
  facet normal 0 0 1
    outer loop
      vertex 4 7.2 -0.001
      vertex 4.5 7.2 -0.001
      vertex 4.5 8.4 -0.001
    endloop
  endfacet
  facet normal 0 0 1
    outer loop
      vertex 4 8.4 -0.001
      vertex 4.5 8.4 -0.001
      vertex 4.5 9.6 -0.001
    endloop
  endfacet
  facet normal 0 0 1
    outer loop
      vertex 4 9.6 -0.001
      vertex 4.5 9.6 -0.001
      vertex 4.5 10.8 -0.001
    endloop
  endfacet
  facet normal 0 0 1
    outer loop
      vertex 4 10.8 -0.001
      vertex 4.5 10.8 -0.001
      vertex 4.5 12 -0.001
    endloop
  endfacet
  facet normal 0 0 1
    outer loop
      vertex 4.5 0 -0.001
      vertex 5 0 -0.001
      vertex 5 1.2 -0.001
    endloop
  endfacet
  facet normal 0 0 1
    outer loop
      vertex 4.5 1.2 -0.001
      vertex 5 1.2 -0.001
      vertex 5 2.4 -0.001
    endloop
  endfacet
  facet normal 0 0 1
    outer loop
      vertex 4.5 2.4 -0.001
      vertex 5 2.4 -0.001
      vertex 5 3.6 -0.001
    endloop
  endfacet
  facet normal 0 0 1
    outer loop
      vertex 4.5 3.6 -0.001
      vertex 5 3.6 -0.001
      vertex 5 4.8 -0.001
    endloop
  endfacet
  facet normal 0 0 1
    outer loop
      vertex 4.5 4.8 -0.001
      vertex 5 4.8 -0.001
      vertex 5 6 -0.001
    endloop
  endfacet
  facet normal 0 0 1
    outer loop
      vertex 4.5 6 -0.001
      vertex 5 6 -0.001
      vertex 5 7.2 -0.001
    endloop
  endfacet
  facet normal 0 0 1
    outer loop
      vertex 4.5 7.2 -0.001
      vertex 5 7.2 -0.001
      vertex 5 8.4 -0.001
    endloop
  endfacet
  facet normal 0 0 1
    outer loop
      vertex 4.5 8.4 -0.001
      vertex 5 8.4 -0.001
      vertex 5 9.6 -0.001
    endloop
  endfacet
  facet normal 0 0 1
    outer loop
      vertex 4.5 9.6 -0.001
      vertex 5 9.6 -0.001
      vertex 5 10.8 -0.001
    endloop
  endfacet
  facet normal 0 0 1
    outer loop
      vertex 4.5 10.8 -0.001
      vertex 5 10.8 -0.001
      vertex 5 12 -0.001
    endloop
  endfacet
  facet normal 1 -0 0
    outer loop
      vertex 0 0 0
      vertex 0 1.2 -0.001
      vertex 0 1.2 0
    endloop
  endfacet
  facet normal 1 0 0
    outer loop
      vertex 0 1.2 -0.001
      vertex 0 0 0
      vertex 0 0 -0.001
    endloop
  endfacet
  facet normal 1 -0 0
    outer loop
      vertex 0 1.2 0
      vertex 0 2.4 -0.001
      vertex 0 2.4 0
    endloop
  endfacet
  facet normal 1 0 0
    outer loop
      vertex 0 2.4 -0.001
      vertex 0 1.2 0
      vertex 0 1.2 -0.001
    endloop
  endfacet
  facet normal 1 -0 0
    outer loop
      vertex 0 2.4 0
      vertex 0 3.6 -0.001
      vertex 0 3.6 0
    endloop
  endfacet
  facet normal 1 0 0
    outer loop
      vertex 0 3.6 -0.001
      vertex 0 2.4 0
      vertex 0 2.4 -0.001
    endloop
  endfacet
  facet normal 1 -0 0
    outer loop
      vertex 0 3.6 0
      vertex 0 4.8 -0.001
      vertex 0 4.8 0
    endloop
  endfacet
  facet normal 1 0 0
    outer loop
      vertex 0 4.8 -0.001
      vertex 0 3.6 0
      vertex 0 3.6 -0.001
    endloop
  endfacet
  facet normal 1 -0 0
    outer loop
      vertex 0 4.8 0
      vertex 0 6 -0.001
      vertex 0 6 0
    endloop
  endfacet
  facet normal 1 0 0
    outer loop
      vertex 0 6 -0.001
      vertex 0 4.8 0
      vertex 0 4.8 -0.001
    endloop
  endfacet
  facet normal 1 -0 0
    outer loop
      vertex 0 6 0
      vertex 0 7.2 -0.001
      vertex 0 7.2 0
    endloop
  endfacet
  facet normal 1 0 0
    outer loop
      vertex 0 7.2 -0.001
      vertex 0 6 0
      vertex 0 6 -0.001
    endloop
  endfacet
  facet normal 1 -0 0
    outer loop
      vertex 0 7.2 0
      vertex 0 8.4 -0.001
      vertex 0 8.4 0
    endloop
  endfacet
  facet normal 1 0 0
    outer loop
      vertex 0 8.4 -0.001
      vertex 0 7.2 0
      vertex 0 7.2 -0.001
    endloop
  endfacet
  facet normal 1 -0 0
    outer loop
      vertex 0 8.4 0
      vertex 0 9.6 -0.001
      vertex 0 9.6 0
    endloop
  endfacet
  facet normal 1 0 0
    outer loop
      vertex 0 9.6 -0.001
      vertex 0 8.4 0
      vertex 0 8.4 -0.001
    endloop
  endfacet
  facet normal 1 -0 0
    outer loop
      vertex 0 9.6 0
      vertex 0 10.8 -0.001
      vertex 0 10.8 0
    endloop
  endfacet
  facet normal 1 0 0
    outer loop
      vertex 0 10.8 -0.001
      vertex 0 9.6 0
      vertex 0 9.6 -0.001
    endloop
  endfacet
  facet normal 1 -0 0
    outer loop
      vertex 0 10.8 0
      vertex 0 12 -0.001
      vertex 0 12 0
    endloop
  endfacet
  facet normal 1 0 0
    outer loop
      vertex 0 12 -0.001
      vertex 0 10.8 0
      vertex 0 10.8 -0.001
    endloop
  endfacet
  facet normal 0 -1 0
    outer loop
      vertex 0 12 -0.001
      vertex 0.5 12 0
      vertex 0 12 0
    endloop
  endfacet
  facet normal 0 -1 -0
    outer loop
      vertex 0.5 12 0
      vertex 0 12 -0.001
      vertex 0.5 12 -0.001
    endloop
  endfacet
  facet normal 0 -1 0
    outer loop
      vertex 0.5 12 -0.001
      vertex 1 12 0
      vertex 0.5 12 0
    endloop
  endfacet
  facet normal 0 -1 -0
    outer loop
      vertex 1 12 0
      vertex 0.5 12 -0.001
      vertex 1 12 -0.001
    endloop
  endfacet
  facet normal 0 -1 0
    outer loop
      vertex 1 12 -0.001
      vertex 1.5 12 0
      vertex 1 12 0
    endloop
  endfacet
  facet normal 0 -1 -0
    outer loop
      vertex 1.5 12 0
      vertex 1 12 -0.001
      vertex 1.5 12 -0.001
    endloop
  endfacet
  facet normal 0 -1 0
    outer loop
      vertex 1.5 12 -0.001
      vertex 2 12 0
      vertex 1.5 12 0
    endloop
  endfacet
  facet normal 0 -1 -0
    outer loop
      vertex 2 12 0
      vertex 1.5 12 -0.001
      vertex 2 12 -0.001
    endloop
  endfacet
  facet normal 0 -1 0
    outer loop
      vertex 2 12 -0.001
      vertex 2.5 12 0
      vertex 2 12 0
    endloop
  endfacet
  facet normal 0 -1 -0
    outer loop
      vertex 2.5 12 0
      vertex 2 12 -0.001
      vertex 2.5 12 -0.001
    endloop
  endfacet
  facet normal 0 -1 0
    outer loop
      vertex 2.5 12 -0.001
      vertex 3 12 0
      vertex 2.5 12 0
    endloop
  endfacet
  facet normal 0 -1 -0
    outer loop
      vertex 3 12 0
      vertex 2.5 12 -0.001
      vertex 3 12 -0.001
    endloop
  endfacet
  facet normal 0 -1 0
    outer loop
      vertex 3 12 -0.001
      vertex 3.5 12 0
      vertex 3 12 0
    endloop
  endfacet
  facet normal 0 -1 -0
    outer loop
      vertex 3.5 12 0
      vertex 3 12 -0.001
      vertex 3.5 12 -0.001
    endloop
  endfacet
  facet normal 0 -1 0
    outer loop
      vertex 3.5 12 -0.001
      vertex 4 12 0
      vertex 3.5 12 0
    endloop
  endfacet
  facet normal 0 -1 -0
    outer loop
      vertex 4 12 0
      vertex 3.5 12 -0.001
      vertex 4 12 -0.001
    endloop
  endfacet
  facet normal 0 -1 0
    outer loop
      vertex 4 12 -0.001
      vertex 4.5 12 0
      vertex 4 12 0
    endloop
  endfacet
  facet normal 0 -1 -0
    outer loop
      vertex 4.5 12 0
      vertex 4 12 -0.001
      vertex 4.5 12 -0.001
    endloop
  endfacet
  facet normal 0 -1 0
    outer loop
      vertex 4.5 12 -0.001
      vertex 5 12 0
      vertex 4.5 12 0
    endloop
  endfacet
  facet normal 0 -1 -0
    outer loop
      vertex 5 12 0
      vertex 4.5 12 -0.001
      vertex 5 12 -0.001
    endloop
  endfacet
  facet normal -1 0 0
    outer loop
      vertex 5 0 -0.001
      vertex 5 1.2 0
      vertex 5 1.2 -0.001
    endloop
  endfacet
  facet normal -1 -0 0
    outer loop
      vertex 5 1.2 0
      vertex 5 0 -0.001
      vertex 5 0 0
    endloop
  endfacet
  facet normal -1 0 0
    outer loop
      vertex 5 1.2 -0.001
      vertex 5 2.4 0
      vertex 5 2.4 -0.001
    endloop
  endfacet
  facet normal -1 -0 0
    outer loop
      vertex 5 2.4 0
      vertex 5 1.2 -0.001
      vertex 5 1.2 0
    endloop
  endfacet
  facet normal -1 0 0
    outer loop
      vertex 5 2.4 -0.001
      vertex 5 3.6 0
      vertex 5 3.6 -0.001
    endloop
  endfacet
  facet normal -1 -0 0
    outer loop
      vertex 5 3.6 0
      vertex 5 2.4 -0.001
      vertex 5 2.4 0
    endloop
  endfacet
  facet normal -1 0 0
    outer loop
      vertex 5 3.6 -0.001
      vertex 5 4.8 0
      vertex 5 4.8 -0.001
    endloop
  endfacet
  facet normal -1 -0 0
    outer loop
      vertex 5 4.8 0
      vertex 5 3.6 -0.001
      vertex 5 3.6 0
    endloop
  endfacet
  facet normal -1 0 0
    outer loop
      vertex 5 4.8 -0.001
      vertex 5 6 0
      vertex 5 6 -0.001
    endloop
  endfacet
  facet normal -1 -0 0
    outer loop
      vertex 5 6 0
      vertex 5 4.8 -0.001
      vertex 5 4.8 0
    endloop
  endfacet
  facet normal -1 0 0
    outer loop
      vertex 5 6 -0.001
      vertex 5 7.2 0
      vertex 5 7.2 -0.001
    endloop
  endfacet
  facet normal -1 -0 0
    outer loop
      vertex 5 7.2 0
      vertex 5 6 -0.001
      vertex 5 6 0
    endloop
  endfacet
  facet normal -1 0 0
    outer loop
      vertex 5 7.2 -0.001
      vertex 5 8.4 0
      vertex 5 8.4 -0.001
    endloop
  endfacet
  facet normal -1 -0 0
    outer loop
      vertex 5 8.4 0
      vertex 5 7.2 -0.001
      vertex 5 7.2 0
    endloop
  endfacet
  facet normal -1 0 0
    outer loop
      vertex 5 8.4 -0.001
      vertex 5 9.6 0
      vertex 5 9.6 -0.001
    endloop
  endfacet
  facet normal -1 -0 0
    outer loop
      vertex 5 9.6 0
      vertex 5 8.4 -0.001
      vertex 5 8.4 0
    endloop
  endfacet
  facet normal -1 0 0
    outer loop
      vertex 5 9.6 -0.001
      vertex 5 10.8 0
      vertex 5 10.8 -0.001
    endloop
  endfacet
  facet normal -1 -0 0
    outer loop
      vertex 5 10.8 0
      vertex 5 9.6 -0.001
      vertex 5 9.6 0
    endloop
  endfacet
  facet normal -1 0 0
    outer loop
      vertex 5 10.8 -0.001
      vertex 5 12 0
      vertex 5 12 -0.001
    endloop
  endfacet
  facet normal -1 -0 0
    outer loop
      vertex 5 12 0
      vertex 5 10.8 -0.001
      vertex 5 10.8 0
    endloop
  endfacet
  facet normal 0 1 -0
    outer loop
      vertex 0.5 0 -0.001
      vertex 0 0 0
      vertex 0.5 0 0
    endloop
  endfacet
  facet normal 0 1 0
    outer loop
      vertex 0 0 0
      vertex 0.5 0 -0.001
      vertex 0 0 -0.001
    endloop
  endfacet
  facet normal 0 1 -0
    outer loop
      vertex 1 0 -0.001
      vertex 0.5 0 0
      vertex 1 0 0
    endloop
  endfacet
  facet normal 0 1 0
    outer loop
      vertex 0.5 0 0
      vertex 1 0 -0.001
      vertex 0.5 0 -0.001
    endloop
  endfacet
  facet normal 0 1 -0
    outer loop
      vertex 1.5 0 -0.001
      vertex 1 0 0
      vertex 1.5 0 0
    endloop
  endfacet
  facet normal 0 1 0
    outer loop
      vertex 1 0 0
      vertex 1.5 0 -0.001
      vertex 1 0 -0.001
    endloop
  endfacet
  facet normal 0 1 -0
    outer loop
      vertex 2 0 -0.001
      vertex 1.5 0 0
      vertex 2 0 0
    endloop
  endfacet
  facet normal 0 1 0
    outer loop
      vertex 1.5 0 0
      vertex 2 0 -0.001
      vertex 1.5 0 -0.001
    endloop
  endfacet
  facet normal 0 1 -0
    outer loop
      vertex 2.5 0 -0.001
      vertex 2 0 0
      vertex 2.5 0 0
    endloop
  endfacet
  facet normal 0 1 0
    outer loop
      vertex 2 0 0
      vertex 2.5 0 -0.001
      vertex 2 0 -0.001
    endloop
  endfacet
  facet normal 0 1 -0
    outer loop
      vertex 3 0 -0.001
      vertex 2.5 0 0
      vertex 3 0 0
    endloop
  endfacet
  facet normal 0 1 0
    outer loop
      vertex 2.5 0 0
      vertex 3 0 -0.001
      vertex 2.5 0 -0.001
    endloop
  endfacet
  facet normal 0 1 -0
    outer loop
      vertex 3.5 0 -0.001
      vertex 3 0 0
      vertex 3.5 0 0
    endloop
  endfacet
  facet normal 0 1 0
    outer loop
      vertex 3 0 0
      vertex 3.5 0 -0.001
      vertex 3 0 -0.001
    endloop
  endfacet
  facet normal 0 1 -0
    outer loop
      vertex 4 0 -0.001
      vertex 3.5 0 0
      vertex 4 0 0
    endloop
  endfacet
  facet normal 0 1 0
    outer loop
      vertex 3.5 0 0
      vertex 4 0 -0.001
      vertex 3.5 0 -0.001
    endloop
  endfacet
  facet normal 0 1 -0
    outer loop
      vertex 4.5 0 -0.001
      vertex 4 0 0
      vertex 4.5 0 0
    endloop
  endfacet
  facet normal 0 1 0
    outer loop
      vertex 4 0 0
      vertex 4.5 0 -0.001
      vertex 4 0 -0.001
    endloop
  endfacet
  facet normal 0 1 -0
    outer loop
      vertex 5 0 -0.001
      vertex 4.5 0 0
      vertex 5 0 0
    endloop
  endfacet
  facet normal 0 1 0
    outer loop
      vertex 4.5 0 0
      vertex 5 0 -0.001
      vertex 4.5 0 -0.001
    endloop
  endfacet
endsolid OpenSCAD_Model
