solid OpenSCAD_Model
  facet normal 0 1 0
    outer loop
      vertex 10 0.0625 0.1875
      vertex 10 0.0625 0
      vertex 9.625 0.0625 0
    endloop
  endfacet
  facet normal 0 1 0
    outer loop
      vertex 6.625 0.0625 0.25
      vertex 0 0.0625 0
      vertex 1.625 0.0625 0.25
    endloop
  endfacet
  facet normal 0 1 0
    outer loop
      vertex 10 0.0625 0
      vertex 9.8125 0.0625 -0.1875
      vertex 9.625 0.0625 0
    endloop
  endfacet
  facet normal 0 1 0
    outer loop
      vertex 1.625 0.0625 0.25
      vertex 0 0.0625 0
      vertex 0.108246 0.0625 0.1875
    endloop
  endfacet
  facet normal 0 1 0
    outer loop
      vertex 10 0.0625 0.1875
      vertex 9.625 0.0625 0
      vertex 6.625 0.0625 0.25
    endloop
  endfacet
  facet normal 0 1 0
    outer loop
      vertex 6.625 0.0625 0.25
      vertex 9.625 0.0625 0
      vertex 0 0.0625 0
    endloop
  endfacet
  facet normal 0 -1 0
    outer loop
      vertex 9.625 -0.0625 0
      vertex 10 -0.0625 0
      vertex 10 -0.0625 0.1875
    endloop
  endfacet
  facet normal 0 -1 -0
    outer loop
      vertex 1.625 -0.0625 0.25
      vertex 0 -0.0625 0
      vertex 6.625 -0.0625 0.25
    endloop
  endfacet
  facet normal 0 -1 0
    outer loop
      vertex 9.625 -0.0625 0
      vertex 9.8125 -0.0625 -0.1875
      vertex 10 -0.0625 0
    endloop
  endfacet
  facet normal 0 -1 -0
    outer loop
      vertex 0.108246 -0.0625 0.1875
      vertex 0 -0.0625 0
      vertex 1.625 -0.0625 0.25
    endloop
  endfacet
  facet normal 0 -1 0
    outer loop
      vertex 6.625 -0.0625 0.25
      vertex 9.625 -0.0625 0
      vertex 10 -0.0625 0.1875
    endloop
  endfacet
  facet normal 0 -1 0
    outer loop
      vertex 0 -0.0625 0
      vertex 9.625 -0.0625 0
      vertex 6.625 -0.0625 0.25
    endloop
  endfacet
  facet normal 1 0 0
    outer loop
      vertex 10 0.0625 0.1875
      vertex 10 -0.0625 0
      vertex 10 0.0625 0
    endloop
  endfacet
  facet normal 1 0 0
    outer loop
      vertex 10 0.0625 0.1875
      vertex 10 -0.0625 0.1875
      vertex 10 -0.0625 0
    endloop
  endfacet
  facet normal 0.0185153 0 0.999829
    outer loop
      vertex 6.625 0.0625 0.25
      vertex 10 -0.0625 0.1875
      vertex 10 0.0625 0.1875
    endloop
  endfacet
  facet normal 0.0185153 0 0.999829
    outer loop
      vertex 6.625 0.0625 0.25
      vertex 6.625 -0.0625 0.25
      vertex 10 -0.0625 0.1875
    endloop
  endfacet
  facet normal -0 0 1
    outer loop
      vertex 1.625 0.0625 0.25
      vertex 6.625 -0.0625 0.25
      vertex 6.625 0.0625 0.25
    endloop
  endfacet
  facet normal 0 0 1
    outer loop
      vertex 1.625 0.0625 0.25
      vertex 1.625 -0.0625 0.25
      vertex 6.625 -0.0625 0.25
    endloop
  endfacet
  facet normal -0.0411715 0 0.999152
    outer loop
      vertex 0.108246 0.0625 0.1875
      vertex 1.625 -0.0625 0.25
      vertex 1.625 0.0625 0.25
    endloop
  endfacet
  facet normal -0.0411715 0 0.999152
    outer loop
      vertex 0.108246 0.0625 0.1875
      vertex 0.108246 -0.0625 0.1875
      vertex 1.625 -0.0625 0.25
    endloop
  endfacet
  facet normal -0.86604 0 0.499975
    outer loop
      vertex 0 0.0625 0
      vertex 0.108246 -0.0625 0.1875
      vertex 0.108246 0.0625 0.1875
    endloop
  endfacet
  facet normal -0.86604 0 0.499975
    outer loop
      vertex 0 0.0625 0
      vertex 0 -0.0625 0
      vertex 0.108246 -0.0625 0.1875
    endloop
  endfacet
  facet normal -0 0 -1
    outer loop
      vertex 9.625 0.0625 0
      vertex 0 -0.0625 0
      vertex 0 0.0625 0
    endloop
  endfacet
  facet normal 0 -0 -1
    outer loop
      vertex 9.625 0.0625 0
      vertex 9.625 -0.0625 0
      vertex 0 -0.0625 0
    endloop
  endfacet
  facet normal -0.707107 0 -0.707107
    outer loop
      vertex 9.8125 0.0625 -0.1875
      vertex 9.625 -0.0625 0
      vertex 9.625 0.0625 0
    endloop
  endfacet
  facet normal -0.707107 -0 -0.707107
    outer loop
      vertex 9.8125 0.0625 -0.1875
      vertex 9.8125 -0.0625 -0.1875
      vertex 9.625 -0.0625 0
    endloop
  endfacet
  facet normal 0.707107 0 -0.707107
    outer loop
      vertex 10 0.0625 0
      vertex 9.8125 -0.0625 -0.1875
      vertex 9.8125 0.0625 -0.1875
    endloop
  endfacet
  facet normal 0.707107 0 -0.707107
    outer loop
      vertex 10 0.0625 0
      vertex 10 -0.0625 0
      vertex 9.8125 -0.0625 -0.1875
    endloop
  endfacet
endsolid OpenSCAD_Model
