solid OpenSCAD_Model
  facet normal -0 0 1
    outer loop
      vertex 0 3 0.125
      vertex 2 -3 0.125
      vertex 2 3 0.125
    endloop
  endfacet
  facet normal 0 0 1
    outer loop
      vertex 2 -3 0.125
      vertex 0 3 0.125
      vertex 0 -3 0.125
    endloop
  endfacet
  facet normal 0 0 -1
    outer loop
      vertex 0 -3 0
      vertex 2 3 0
      vertex 2 -3 0
    endloop
  endfacet
  facet normal -0 0 -1
    outer loop
      vertex 2 3 0
      vertex 0 -3 0
      vertex 0 3 0
    endloop
  endfacet
  facet normal 0 -1 0
    outer loop
      vertex 0 -3 0
      vertex 2 -3 0.125
      vertex 0 -3 0.125
    endloop
  endfacet
  facet normal 0 -1 -0
    outer loop
      vertex 2 -3 0.125
      vertex 0 -3 0
      vertex 2 -3 0
    endloop
  endfacet
  facet normal 1 -0 0
    outer loop
      vertex 2 -3 0.125
      vertex 2 3 0
      vertex 2 3 0.125
    endloop
  endfacet
  facet normal 1 0 0
    outer loop
      vertex 2 3 0
      vertex 2 -3 0.125
      vertex 2 -3 0
    endloop
  endfacet
  facet normal 0 1 -0
    outer loop
      vertex 2 3 0
      vertex 0 3 0.125
      vertex 2 3 0.125
    endloop
  endfacet
  facet normal 0 1 0
    outer loop
      vertex 0 3 0.125
      vertex 2 3 0
      vertex 0 3 0
    endloop
  endfacet
  facet normal -1 0 0
    outer loop
      vertex 0 -3 0
      vertex 0 3 0.125
      vertex 0 3 0
    endloop
  endfacet
  facet normal -1 -0 0
    outer loop
      vertex 0 3 0.125
      vertex 0 -3 0
      vertex 0 -3 0.125
    endloop
  endfacet
endsolid OpenSCAD_Model
