solid OpenSCAD_Model
  facet normal -0 0 1
    outer loop
      vertex 10 3 0.0625
      vertex 12 -3 0.0625
      vertex 12 3 0.0625
    endloop
  endfacet
  facet normal 0 0 1
    outer loop
      vertex 12 -3 0.0625
      vertex 10 3 0.0625
      vertex 10 -3 0.0625
    endloop
  endfacet
  facet normal 0 0 -1
    outer loop
      vertex 10 -3 -0.0625
      vertex 12 3 -0.0625
      vertex 12 -3 -0.0625
    endloop
  endfacet
  facet normal -0 0 -1
    outer loop
      vertex 12 3 -0.0625
      vertex 10 -3 -0.0625
      vertex 10 3 -0.0625
    endloop
  endfacet
  facet normal 0 -1 0
    outer loop
      vertex 10 -3 -0.0625
      vertex 12 -3 0.0625
      vertex 10 -3 0.0625
    endloop
  endfacet
  facet normal 0 -1 -0
    outer loop
      vertex 12 -3 0.0625
      vertex 10 -3 -0.0625
      vertex 12 -3 -0.0625
    endloop
  endfacet
  facet normal 1 -0 0
    outer loop
      vertex 12 -3 0.0625
      vertex 12 3 -0.0625
      vertex 12 3 0.0625
    endloop
  endfacet
  facet normal 1 0 0
    outer loop
      vertex 12 3 -0.0625
      vertex 12 -3 0.0625
      vertex 12 -3 -0.0625
    endloop
  endfacet
  facet normal 0 1 -0
    outer loop
      vertex 12 3 -0.0625
      vertex 10 3 0.0625
      vertex 12 3 0.0625
    endloop
  endfacet
  facet normal 0 1 0
    outer loop
      vertex 10 3 0.0625
      vertex 12 3 -0.0625
      vertex 10 3 -0.0625
    endloop
  endfacet
  facet normal -1 0 0
    outer loop
      vertex 10 -3 -0.0625
      vertex 10 3 0.0625
      vertex 10 3 -0.0625
    endloop
  endfacet
  facet normal -1 -0 0
    outer loop
      vertex 10 3 0.0625
      vertex 10 -3 -0.0625
      vertex 10 -3 0.0625
    endloop
  endfacet
endsolid OpenSCAD_Model
