solid OpenSCAD_Model
  facet normal -0 0 1
    outer loop
      vertex 4.9375 0 0.0625
      vertex 5 -3 0.0625
      vertex 5 0 0.0625
    endloop
  endfacet
  facet normal 0 0 1
    outer loop
      vertex 5 -3 0.0625
      vertex 4.9375 0 0.0625
      vertex 4.9375 -3 0.0625
    endloop
  endfacet
  facet normal 0 0 -1
    outer loop
      vertex 4.9375 -3 0
      vertex 5 0 0
      vertex 5 -3 0
    endloop
  endfacet
  facet normal -0 0 -1
    outer loop
      vertex 5 0 0
      vertex 4.9375 -3 0
      vertex 4.9375 0 0
    endloop
  endfacet
  facet normal 0 -1 0
    outer loop
      vertex 4.9375 -3 0
      vertex 5 -3 0.0625
      vertex 4.9375 -3 0.0625
    endloop
  endfacet
  facet normal 0 -1 -0
    outer loop
      vertex 5 -3 0.0625
      vertex 4.9375 -3 0
      vertex 5 -3 0
    endloop
  endfacet
  facet normal 1 -0 0
    outer loop
      vertex 5 -3 0.0625
      vertex 5 0 0
      vertex 5 0 0.0625
    endloop
  endfacet
  facet normal 1 0 0
    outer loop
      vertex 5 0 0
      vertex 5 -3 0.0625
      vertex 5 -3 0
    endloop
  endfacet
  facet normal 0 1 -0
    outer loop
      vertex 5 0 0
      vertex 4.9375 0 0.0625
      vertex 5 0 0.0625
    endloop
  endfacet
  facet normal 0 1 0
    outer loop
      vertex 4.9375 0 0.0625
      vertex 5 0 0
      vertex 4.9375 0 0
    endloop
  endfacet
  facet normal -1 0 0
    outer loop
      vertex 4.9375 -3 0
      vertex 4.9375 0 0.0625
      vertex 4.9375 0 0
    endloop
  endfacet
  facet normal -1 -0 0
    outer loop
      vertex 4.9375 0 0.0625
      vertex 4.9375 -3 0
      vertex 4.9375 -3 0.0625
    endloop
  endfacet
endsolid OpenSCAD_Model
