solid OpenSCAD_Model
  facet normal -0 0 1
    outer loop
      vertex 1.5 0.03125 0.03125
      vertex 3.96875 0 0.03125
      vertex 3.96875 0.03125 0.03125
    endloop
  endfacet
  facet normal 0 0 1
    outer loop
      vertex 3.96875 0 0.03125
      vertex 1.5 0.03125 0.03125
      vertex 1.5 0 0.03125
    endloop
  endfacet
  facet normal 0 0 -1
    outer loop
      vertex 1.5 0 0
      vertex 3.96875 0.03125 0
      vertex 3.96875 0 0
    endloop
  endfacet
  facet normal -0 0 -1
    outer loop
      vertex 3.96875 0.03125 0
      vertex 1.5 0 0
      vertex 1.5 0.03125 0
    endloop
  endfacet
  facet normal 1 -0 0
    outer loop
      vertex 3.96875 0 0.03125
      vertex 3.96875 0.03125 0
      vertex 3.96875 0.03125 0.03125
    endloop
  endfacet
  facet normal 1 0 0
    outer loop
      vertex 3.96875 0.03125 0
      vertex 3.96875 0 0.03125
      vertex 3.96875 0 0
    endloop
  endfacet
  facet normal 0 1 -0
    outer loop
      vertex 3.96875 0.03125 0
      vertex 1.5 0.03125 0.03125
      vertex 3.96875 0.03125 0.03125
    endloop
  endfacet
  facet normal 0 1 0
    outer loop
      vertex 1.5 0.03125 0.03125
      vertex 3.96875 0.03125 0
      vertex 1.5 0.03125 0
    endloop
  endfacet
  facet normal -1 0 0
    outer loop
      vertex 1.5 0 0
      vertex 1.5 0.03125 0.03125
      vertex 1.5 0.03125 0
    endloop
  endfacet
  facet normal -1 -0 0
    outer loop
      vertex 1.5 0.03125 0.03125
      vertex 1.5 0 0
      vertex 1.5 0 0.03125
    endloop
  endfacet
  facet normal 0 -1 0
    outer loop
      vertex 1.5 0 0
      vertex 3.96875 0 0.03125
      vertex 1.5 0 0.03125
    endloop
  endfacet
  facet normal 0 -1 -0
    outer loop
      vertex 3.96875 0 0.03125
      vertex 1.5 0 0
      vertex 3.96875 0 0
    endloop
  endfacet
endsolid OpenSCAD_Model
