solid OpenSCAD_Model
  facet normal -0 0 1
    outer loop
      vertex 0.0625 0 0.09375
      vertex 4.9375 -0.0625 0.09375
      vertex 4.9375 0 0.09375
    endloop
  endfacet
  facet normal 0 0 1
    outer loop
      vertex 4.9375 -0.0625 0.09375
      vertex 0.0625 0 0.09375
      vertex 0.0625 -0.0625 0.09375
    endloop
  endfacet
  facet normal 0 0 -1
    outer loop
      vertex 0.0625 -0.0625 0.03125
      vertex 4.9375 0 0.03125
      vertex 4.9375 -0.0625 0.03125
    endloop
  endfacet
  facet normal -0 0 -1
    outer loop
      vertex 4.9375 0 0.03125
      vertex 0.0625 -0.0625 0.03125
      vertex 0.0625 0 0.03125
    endloop
  endfacet
  facet normal 1 -0 0
    outer loop
      vertex 4.9375 -0.0625 0.09375
      vertex 4.9375 0 0.03125
      vertex 4.9375 0 0.09375
    endloop
  endfacet
  facet normal 1 0 0
    outer loop
      vertex 4.9375 0 0.03125
      vertex 4.9375 -0.0625 0.09375
      vertex 4.9375 -0.0625 0.03125
    endloop
  endfacet
  facet normal 0 1 -0
    outer loop
      vertex 4.9375 0 0.03125
      vertex 0.0625 0 0.09375
      vertex 4.9375 0 0.09375
    endloop
  endfacet
  facet normal 0 1 0
    outer loop
      vertex 0.0625 0 0.09375
      vertex 4.9375 0 0.03125
      vertex 0.0625 0 0.03125
    endloop
  endfacet
  facet normal -1 0 0
    outer loop
      vertex 0.0625 -0.0625 0.03125
      vertex 0.0625 0 0.09375
      vertex 0.0625 0 0.03125
    endloop
  endfacet
  facet normal -1 -0 0
    outer loop
      vertex 0.0625 0 0.09375
      vertex 0.0625 -0.0625 0.03125
      vertex 0.0625 -0.0625 0.09375
    endloop
  endfacet
  facet normal 0 -1 0
    outer loop
      vertex 0.0625 -0.0625 0.03125
      vertex 4.9375 -0.0625 0.09375
      vertex 0.0625 -0.0625 0.09375
    endloop
  endfacet
  facet normal 0 -1 -0
    outer loop
      vertex 4.9375 -0.0625 0.09375
      vertex 0.0625 -0.0625 0.03125
      vertex 4.9375 -0.0625 0.03125
    endloop
  endfacet
endsolid OpenSCAD_Model
