solid OpenSCAD_Model
  facet normal -0 0 1
    outer loop
      vertex -0.015625 3 0.015625
      vertex 0.015625 -3 0.015625
      vertex 0.015625 3 0.015625
    endloop
  endfacet
  facet normal 0 0 1
    outer loop
      vertex 0.015625 -3 0.015625
      vertex -0.015625 3 0.015625
      vertex -0.015625 -3 0.015625
    endloop
  endfacet
  facet normal 0 0 -1
    outer loop
      vertex -0.015625 -3 -0.015625
      vertex 0.015625 3 -0.015625
      vertex 0.015625 -3 -0.015625
    endloop
  endfacet
  facet normal -0 0 -1
    outer loop
      vertex 0.015625 3 -0.015625
      vertex -0.015625 -3 -0.015625
      vertex -0.015625 3 -0.015625
    endloop
  endfacet
  facet normal 0 -1 0
    outer loop
      vertex -0.015625 -3 -0.015625
      vertex 0.015625 -3 0.015625
      vertex -0.015625 -3 0.015625
    endloop
  endfacet
  facet normal 0 -1 -0
    outer loop
      vertex 0.015625 -3 0.015625
      vertex -0.015625 -3 -0.015625
      vertex 0.015625 -3 -0.015625
    endloop
  endfacet
  facet normal 1 -0 0
    outer loop
      vertex 0.015625 -3 0.015625
      vertex 0.015625 3 -0.015625
      vertex 0.015625 3 0.015625
    endloop
  endfacet
  facet normal 1 0 0
    outer loop
      vertex 0.015625 3 -0.015625
      vertex 0.015625 -3 0.015625
      vertex 0.015625 -3 -0.015625
    endloop
  endfacet
  facet normal 0 1 -0
    outer loop
      vertex 0.015625 3 -0.015625
      vertex -0.015625 3 0.015625
      vertex 0.015625 3 0.015625
    endloop
  endfacet
  facet normal 0 1 0
    outer loop
      vertex -0.015625 3 0.015625
      vertex 0.015625 3 -0.015625
      vertex -0.015625 3 -0.015625
    endloop
  endfacet
  facet normal -1 0 0
    outer loop
      vertex -0.015625 -3 -0.015625
      vertex -0.015625 3 0.015625
      vertex -0.015625 3 -0.015625
    endloop
  endfacet
  facet normal -1 -0 0
    outer loop
      vertex -0.015625 3 0.015625
      vertex -0.015625 -3 -0.015625
      vertex -0.015625 -3 0.015625
    endloop
  endfacet
endsolid OpenSCAD_Model
