  0
SECTION
  2
BLOCKS
  0
ENDSEC
  0
SECTION
  2
ENTITIES
  0
LINE
  8
0
 10
2
 20
9
 11
1.87442
 21
8.99605
  0
LINE
  8
0
 10
1.87442
 20
8.99605
 11
1.74934
 21
8.98422
  0
LINE
  8
0
 10
1.74934
 20
8.98422
 11
1.62524
 21
8.96457
  0
LINE
  8
0
 10
1.62524
 20
8.96457
 11
1.50262
 21
8.93716
  0
LINE
  8
0
 10
1.50262
 20
8.93716
 11
1.38197
 21
8.9021
  0
LINE
  8
0
 10
1.38197
 20
8.9021
 11
1.26376
 21
8.85954
  0
LINE
  8
0
 10
1.26376
 20
8.85954
 11
1.14845
 21
8.80965
  0
LINE
  8
0
 10
1.14845
 20
8.80965
 11
1.0365
 21
8.75261
  0
LINE
  8
0
 10
1.0365
 20
8.75261
 11
0.92836
 21
8.68864
  0
LINE
  8
0
 10
0.92836
 20
8.68864
 11
0.824432
 21
8.61803
  0
LINE
  8
0
 10
0.824432
 20
8.61803
 11
0.725159
 21
8.54102
  0
LINE
  8
0
 10
0.725159
 20
8.54102
 11
0.63092
 21
8.45793
  0
LINE
  8
0
 10
0.63092
 20
8.45793
 11
0.542068
 21
8.36908
  0
LINE
  8
0
 10
0.542068
 20
8.36908
 11
0.458984
 21
8.27484
  0
LINE
  8
0
 10
0.458984
 20
8.27484
 11
0.381973
 21
8.17557
  0
LINE
  8
0
 10
0.381973
 20
8.17557
 11
0.311356
 21
8.07164
  0
LINE
  8
0
 10
0.311356
 20
8.07164
 11
0.247391
 21
7.9635
  0
LINE
  8
0
 10
0.247391
 20
7.9635
 11
0.190353
 21
7.85155
  0
LINE
  8
0
 10
0.190353
 20
7.85155
 11
0.140457
 21
7.73624
  0
LINE
  8
0
 10
0.140457
 20
7.73624
 11
0.0979004
 21
7.61803
  0
LINE
  8
0
 10
0.0979004
 20
7.61803
 11
0.0628357
 21
7.49738
  0
LINE
  8
0
 10
0.0628357
 20
7.49738
 11
0.0354309
 21
7.37476
  0
LINE
  8
0
 10
0.0354309
 20
7.37476
 11
0.0157776
 21
7.25066
  0
LINE
  8
0
 10
0.0157776
 20
7.25066
 11
0.00395203
 21
7.12558
  0
LINE
  8
0
 10
0.00395203
 20
7.12558
 11
0
 21
7
  0
LINE
  8
0
 10
0
 20
7
 11
0
 21
-7
  0
LINE
  8
0
 10
0
 20
-7
 11
0.00395203
 21
-7.12558
  0
LINE
  8
0
 10
0.00395203
 20
-7.12558
 11
0.0157776
 21
-7.25066
  0
LINE
  8
0
 10
0.0157776
 20
-7.25066
 11
0.0354309
 21
-7.37476
  0
LINE
  8
0
 10
0.0354309
 20
-7.37476
 11
0.0628357
 21
-7.49738
  0
LINE
  8
0
 10
0.0628357
 20
-7.49738
 11
0.0979004
 21
-7.61803
  0
LINE
  8
0
 10
0.0979004
 20
-7.61803
 11
0.140457
 21
-7.73624
  0
LINE
  8
0
 10
0.140457
 20
-7.73624
 11
0.190353
 21
-7.85155
  0
LINE
  8
0
 10
0.190353
 20
-7.85155
 11
0.247391
 21
-7.9635
  0
LINE
  8
0
 10
0.247391
 20
-7.9635
 11
0.311356
 21
-8.07164
  0
LINE
  8
0
 10
0.311356
 20
-8.07164
 11
0.381973
 21
-8.17557
  0
LINE
  8
0
 10
0.381973
 20
-8.17557
 11
0.458984
 21
-8.27484
  0
LINE
  8
0
 10
0.458984
 20
-8.27484
 11
0.542068
 21
-8.36908
  0
LINE
  8
0
 10
0.542068
 20
-8.36908
 11
0.63092
 21
-8.45793
  0
LINE
  8
0
 10
0.63092
 20
-8.45793
 11
0.725159
 21
-8.54102
  0
LINE
  8
0
 10
0.725159
 20
-8.54102
 11
0.824432
 21
-8.61803
  0
LINE
  8
0
 10
0.824432
 20
-8.61803
 11
0.92836
 21
-8.68864
  0
LINE
  8
0
 10
0.92836
 20
-8.68864
 11
1.0365
 21
-8.75261
  0
LINE
  8
0
 10
1.0365
 20
-8.75261
 11
1.14845
 21
-8.80965
  0
LINE
  8
0
 10
1.14845
 20
-8.80965
 11
1.26376
 21
-8.85954
  0
LINE
  8
0
 10
1.26376
 20
-8.85954
 11
1.38197
 21
-8.9021
  0
LINE
  8
0
 10
1.38197
 20
-8.9021
 11
1.50262
 21
-8.93716
  0
LINE
  8
0
 10
1.50262
 20
-8.93716
 11
1.62524
 21
-8.96457
  0
LINE
  8
0
 10
1.62524
 20
-8.96457
 11
1.74934
 21
-8.98422
  0
LINE
  8
0
 10
1.74934
 20
-8.98422
 11
1.87442
 21
-8.99605
  0
LINE
  8
0
 10
1.87442
 20
-8.99605
 11
2
 21
-9
  0
LINE
  8
0
 10
2
 20
-9
 11
5
 21
-9
  0
LINE
  8
0
 10
5
 20
-9
 11
5
 21
9
  0
LINE
  8
0
 10
5
 20
9
 11
2
 21
9
  0
LINE
  8
0
 10
0.0625
 20
6
 11
0.0625
 21
7
  0
LINE
  8
0
 10
0.0625
 20
7
 11
0.06633
 21
7.12164
  0
LINE
  8
0
 10
0.06633
 20
7.12164
 11
0.0777893
 21
7.24283
  0
LINE
  8
0
 10
0.0777893
 20
7.24283
 11
0.0968323
 21
7.36304
  0
LINE
  8
0
 10
0.0968323
 20
7.36304
 11
0.123383
 21
7.48183
  0
LINE
  8
0
 10
0.123383
 20
7.48183
 11
0.157333
 21
7.59871
  0
LINE
  8
0
 10
0.157333
 20
7.59871
 11
0.198563
 21
7.71323
  0
LINE
  8
0
 10
0.198563
 20
7.71323
 11
0.246902
 21
7.82494
  0
LINE
  8
0
 10
0.246902
 20
7.82494
 11
0.30217
 21
7.9334
  0
LINE
  8
0
 10
0.30217
 20
7.9334
 11
0.36412
 21
8.03816
  0
LINE
  8
0
 10
0.36412
 20
8.03816
 11
0.432541
 21
8.13882
  0
LINE
  8
0
 10
0.432541
 20
8.13882
 11
0.507141
 21
8.235
  0
LINE
  8
0
 10
0.507141
 20
8.235
 11
0.587631
 21
8.32631
  0
LINE
  8
0
 10
0.587631
 20
8.32631
 11
0.673691
 21
8.41237
  0
LINE
  8
0
 10
0.673691
 20
8.41237
 11
0.764999
 21
8.49286
  0
LINE
  8
0
 10
0.764999
 20
8.49286
 11
0.861176
 21
8.56746
  0
LINE
  8
0
 10
0.861176
 20
8.56746
 11
0.961838
 21
8.63588
  0
LINE
  8
0
 10
0.961838
 20
8.63588
 11
1.0666
 21
8.69783
  0
LINE
  8
0
 10
1.0666
 20
8.69783
 11
1.17506
 21
8.7531
  0
LINE
  8
0
 10
1.17506
 20
8.7531
 11
1.28677
 21
8.80144
  0
LINE
  8
0
 10
1.28677
 20
8.80144
 11
1.40129
 21
8.84267
  0
LINE
  8
0
 10
1.40129
 20
8.84267
 11
1.51817
 21
8.87662
  0
LINE
  8
0
 10
1.51817
 20
8.87662
 11
1.63696
 21
8.90317
  0
LINE
  8
0
 10
1.63696
 20
8.90317
 11
1.75717
 21
8.92221
  0
LINE
  8
0
 10
1.75717
 20
8.92221
 11
1.87836
 21
8.93367
  0
LINE
  8
0
 10
1.87836
 20
8.93367
 11
2
 21
8.9375
  0
LINE
  8
0
 10
2
 20
8.9375
 11
4.9375
 21
8.9375
  0
LINE
  8
0
 10
4.9375
 20
8.9375
 11
4.9375
 21
6
  0
LINE
  8
0
 10
4.9375
 20
6
 11
0.0625
 21
6
  0
LINE
  8
0
 10
0.0625
 20
2.98438
 11
0.0625
 21
5.96875
  0
LINE
  8
0
 10
0.0625
 20
5.96875
 11
4.9375
 21
5.96875
  0
LINE
  8
0
 10
4.9375
 20
5.96875
 11
4.9375
 21
2.98438
  0
LINE
  8
0
 10
4.9375
 20
2.98438
 11
0.0625
 21
2.98438
  0
LINE
  8
0
 10
0.0625
 20
0.015625
 11
0.0625
 21
2.95312
  0
LINE
  8
0
 10
0.0625
 20
2.95312
 11
4.9375
 21
2.95312
  0
LINE
  8
0
 10
4.9375
 20
2.95312
 11
4.9375
 21
0.015625
  0
LINE
  8
0
 10
4.9375
 20
0.015625
 11
0.0625
 21
0.015625
  0
LINE
  8
0
 10
0.0625
 20
-2.95312
 11
0.0625
 21
-0.015625
  0
LINE
  8
0
 10
0.0625
 20
-0.015625
 11
4.9375
 21
-0.015625
  0
LINE
  8
0
 10
4.9375
 20
-0.015625
 11
4.9375
 21
-2.95312
  0
LINE
  8
0
 10
4.9375
 20
-2.95312
 11
0.0625
 21
-2.95312
  0
LINE
  8
0
 10
0.0625
 20
-5.96875
 11
0.0625
 21
-2.98438
  0
LINE
  8
0
 10
0.0625
 20
-2.98438
 11
4.9375
 21
-2.98438
  0
LINE
  8
0
 10
4.9375
 20
-2.98438
 11
4.9375
 21
-5.96875
  0
LINE
  8
0
 10
4.9375
 20
-5.96875
 11
0.0625
 21
-5.96875
  0
LINE
  8
0
 10
2
 20
-8.9375
 11
1.87836
 21
-8.93367
  0
LINE
  8
0
 10
1.87836
 20
-8.93367
 11
1.75717
 21
-8.92221
  0
LINE
  8
0
 10
1.75717
 20
-8.92221
 11
1.63696
 21
-8.90317
  0
LINE
  8
0
 10
1.63696
 20
-8.90317
 11
1.51817
 21
-8.87662
  0
LINE
  8
0
 10
1.51817
 20
-8.87662
 11
1.40129
 21
-8.84267
  0
LINE
  8
0
 10
1.40129
 20
-8.84267
 11
1.28677
 21
-8.80144
  0
LINE
  8
0
 10
1.28677
 20
-8.80144
 11
1.17506
 21
-8.7531
  0
LINE
  8
0
 10
1.17506
 20
-8.7531
 11
1.0666
 21
-8.69783
  0
LINE
  8
0
 10
1.0666
 20
-8.69783
 11
0.961838
 21
-8.63588
  0
LINE
  8
0
 10
0.961838
 20
-8.63588
 11
0.861176
 21
-8.56746
  0
LINE
  8
0
 10
0.861176
 20
-8.56746
 11
0.764999
 21
-8.49286
  0
LINE
  8
0
 10
0.764999
 20
-8.49286
 11
0.673691
 21
-8.41237
  0
LINE
  8
0
 10
0.673691
 20
-8.41237
 11
0.587631
 21
-8.32631
  0
LINE
  8
0
 10
0.587631
 20
-8.32631
 11
0.507141
 21
-8.235
  0
LINE
  8
0
 10
0.507141
 20
-8.235
 11
0.432541
 21
-8.13882
  0
LINE
  8
0
 10
0.432541
 20
-8.13882
 11
0.36412
 21
-8.03816
  0
LINE
  8
0
 10
0.36412
 20
-8.03816
 11
0.30217
 21
-7.9334
  0
LINE
  8
0
 10
0.30217
 20
-7.9334
 11
0.246902
 21
-7.82494
  0
LINE
  8
0
 10
0.246902
 20
-7.82494
 11
0.198563
 21
-7.71323
  0
LINE
  8
0
 10
0.198563
 20
-7.71323
 11
0.157333
 21
-7.59871
  0
LINE
  8
0
 10
0.157333
 20
-7.59871
 11
0.123383
 21
-7.48183
  0
LINE
  8
0
 10
0.123383
 20
-7.48183
 11
0.0968323
 21
-7.36304
  0
LINE
  8
0
 10
0.0968323
 20
-7.36304
 11
0.0777893
 21
-7.24283
  0
LINE
  8
0
 10
0.0777893
 20
-7.24283
 11
0.06633
 21
-7.12164
  0
LINE
  8
0
 10
0.06633
 20
-7.12164
 11
0.0625
 21
-7
  0
LINE
  8
0
 10
0.0625
 20
-7
 11
0.0625
 21
-6
  0
LINE
  8
0
 10
0.0625
 20
-6
 11
4.9375
 21
-6
  0
LINE
  8
0
 10
4.9375
 20
-6
 11
4.9375
 21
-8.9375
  0
LINE
  8
0
 10
4.9375
 20
-8.9375
 11
2
 21
-8.9375
  0
LINE
  8
0
 10
-0.0439301
 20
-0.0467682
 11
-0.0410004
 21
-0.0464935
  0
LINE
  8
0
 10
-0.0410004
 20
-0.0464935
 11
-0.0380859
 21
-0.0460358
  0
LINE
  8
0
 10
-0.0380859
 20
-0.0460358
 11
-0.0352173
 21
-0.0453949
  0
LINE
  8
0
 10
-0.0352173
 20
-0.0453949
 11
-0.0323792
 21
-0.0445709
  0
LINE
  8
0
 10
-0.0323792
 20
-0.0445709
 11
-0.0296173
 21
-0.0435791
  0
LINE
  8
0
 10
-0.0296173
 20
-0.0435791
 11
-0.0269165
 21
-0.0424042
  0
LINE
  8
0
 10
-0.0269165
 20
-0.0424042
 11
-0.024292
 21
-0.0410767
  0
LINE
  8
0
 10
-0.024292
 20
-0.0410767
 11
-0.021759
 21
-0.039566
  0
LINE
  8
0
 10
-0.021759
 20
-0.039566
 11
-0.0193176
 21
-0.0379181
  0
LINE
  8
0
 10
-0.0193176
 20
-0.0379181
 11
-0.016983
 21
-0.0361176
  0
LINE
  8
0
 10
-0.016983
 20
-0.0361176
 11
-0.0147858
 21
-0.0341644
  0
LINE
  8
0
 10
-0.0147858
 20
-0.0341644
 11
-0.0126953
 21
-0.032074
  0
LINE
  8
0
 10
-0.0126953
 20
-0.032074
 11
-0.0107574
 21
-0.0298767
  0
LINE
  8
0
 10
-0.0107574
 20
-0.0298767
 11
-0.00894165
 21
-0.0275421
  0
LINE
  8
0
 10
-0.00894165
 20
-0.0275421
 11
-0.0072937
 21
-0.025116
  0
LINE
  8
0
 10
-0.0072937
 20
-0.025116
 11
-0.00579834
 21
-0.0225677
  0
LINE
  8
0
 10
-0.00579834
 20
-0.0225677
 11
-0.00445557
 21
-0.0199432
  0
LINE
  8
0
 10
-0.00445557
 20
-0.0199432
 11
-0.00328064
 21
-0.0172424
  0
LINE
  8
0
 10
-0.00328064
 20
-0.0172424
 11
-0.00228882
 21
-0.0144806
  0
LINE
  8
0
 10
-0.00228882
 20
-0.0144806
 11
-0.00146484
 21
-0.0116425
  0
LINE
  8
0
 10
-0.00146484
 20
-0.0116425
 11
-0.000823975
 21
-0.0087738
  0
LINE
  8
0
 10
-0.000823975
 20
-0.0087738
 11
-0.000366211
 21
-0.00587463
  0
LINE
  8
0
 10
-0.000366211
 20
-0.00587463
 11
-9.15527e-05
 21
-0.00292969
  0
LINE
  8
0
 10
-9.15527e-05
 20
-0.00292969
 11
0
 21
0
  0
LINE
  8
0
 10
0
 20
0
 11
-9.15527e-05
 21
0.00292969
  0
LINE
  8
0
 10
-9.15527e-05
 20
0.00292969
 11
-0.000366211
 21
0.00587463
  0
LINE
  8
0
 10
-0.000366211
 20
0.00587463
 11
-0.000823975
 21
0.0087738
  0
LINE
  8
0
 10
-0.000823975
 20
0.0087738
 11
-0.00146484
 21
0.0116425
  0
LINE
  8
0
 10
-0.00146484
 20
0.0116425
 11
-0.00228882
 21
0.0144806
  0
LINE
  8
0
 10
-0.00228882
 20
0.0144806
 11
-0.00328064
 21
0.0172424
  0
LINE
  8
0
 10
-0.00328064
 20
0.0172424
 11
-0.00445557
 21
0.0199432
  0
LINE
  8
0
 10
-0.00445557
 20
0.0199432
 11
-0.00579834
 21
0.0225677
  0
LINE
  8
0
 10
-0.00579834
 20
0.0225677
 11
-0.0072937
 21
0.025116
  0
LINE
  8
0
 10
-0.0072937
 20
0.025116
 11
-0.00894165
 21
0.0275421
  0
LINE
  8
0
 10
-0.00894165
 20
0.0275421
 11
-0.0107574
 21
0.0298767
  0
LINE
  8
0
 10
-0.0107574
 20
0.0298767
 11
-0.0126953
 21
0.032074
  0
LINE
  8
0
 10
-0.0126953
 20
0.032074
 11
-0.0147858
 21
0.0341644
  0
LINE
  8
0
 10
-0.0147858
 20
0.0341644
 11
-0.016983
 21
0.0361176
  0
LINE
  8
0
 10
-0.016983
 20
0.0361176
 11
-0.0193176
 21
0.0379181
  0
LINE
  8
0
 10
-0.0193176
 20
0.0379181
 11
-0.021759
 21
0.039566
  0
LINE
  8
0
 10
-0.021759
 20
0.039566
 11
-0.024292
 21
0.0410767
  0
LINE
  8
0
 10
-0.024292
 20
0.0410767
 11
-0.0269165
 21
0.0424042
  0
LINE
  8
0
 10
-0.0269165
 20
0.0424042
 11
-0.0296173
 21
0.0435791
  0
LINE
  8
0
 10
-0.0296173
 20
0.0435791
 11
-0.0323792
 21
0.0445709
  0
LINE
  8
0
 10
-0.0323792
 20
0.0445709
 11
-0.0352173
 21
0.0453949
  0
LINE
  8
0
 10
-0.0352173
 20
0.0453949
 11
-0.0380859
 21
0.0460358
  0
LINE
  8
0
 10
-0.0380859
 20
0.0460358
 11
-0.0410004
 21
0.0464935
  0
LINE
  8
0
 10
-0.0410004
 20
0.0464935
 11
-0.0439301
 21
0.0467682
  0
LINE
  8
0
 10
-0.0439301
 20
0.0467682
 11
-0.046875
 21
0.046875
  0
LINE
  8
0
 10
-0.046875
 20
0.046875
 11
-0.0498047
 21
0.0467682
  0
LINE
  8
0
 10
-0.0498047
 20
0.0467682
 11
-0.0527496
 21
0.0464935
  0
LINE
  8
0
 10
-0.0527496
 20
0.0464935
 11
-0.0556488
 21
0.0460358
  0
LINE
  8
0
 10
-0.0556488
 20
0.0460358
 11
-0.0585175
 21
0.0453949
  0
LINE
  8
0
 10
-0.0585175
 20
0.0453949
 11
-0.0613556
 21
0.0445709
  0
LINE
  8
0
 10
-0.0613556
 20
0.0445709
 11
-0.0641174
 21
0.0435791
  0
LINE
  8
0
 10
-0.0641174
 20
0.0435791
 11
-0.0668182
 21
0.0424042
  0
LINE
  8
0
 10
-0.0668182
 20
0.0424042
 11
-0.0694427
 21
0.0410767
  0
LINE
  8
0
 10
-0.0694427
 20
0.0410767
 11
-0.071991
 21
0.039566
  0
LINE
  8
0
 10
-0.071991
 20
0.039566
 11
-0.0744171
 21
0.0379181
  0
LINE
  8
0
 10
-0.0744171
 20
0.0379181
 11
-0.0767517
 21
0.0361176
  0
LINE
  8
0
 10
-0.0767517
 20
0.0361176
 11
-0.078949
 21
0.0341644
  0
LINE
  8
0
 10
-0.078949
 20
0.0341644
 11
-0.0810394
 21
0.032074
  0
LINE
  8
0
 10
-0.0810394
 20
0.032074
 11
-0.0829926
 21
0.0298767
  0
LINE
  8
0
 10
-0.0829926
 20
0.0298767
 11
-0.0847931
 21
0.0275421
  0
LINE
  8
0
 10
-0.0847931
 20
0.0275421
 11
-0.086441
 21
0.025116
  0
LINE
  8
0
 10
-0.086441
 20
0.025116
 11
-0.0879517
 21
0.0225677
  0
LINE
  8
0
 10
-0.0879517
 20
0.0225677
 11
-0.0892792
 21
0.0199432
  0
LINE
  8
0
 10
-0.0892792
 20
0.0199432
 11
-0.0904541
 21
0.0172424
  0
LINE
  8
0
 10
-0.0904541
 20
0.0172424
 11
-0.0914459
 21
0.0144806
  0
LINE
  8
0
 10
-0.0914459
 20
0.0144806
 11
-0.0922699
 21
0.0116425
  0
LINE
  8
0
 10
-0.0922699
 20
0.0116425
 11
-0.0929108
 21
0.0087738
  0
LINE
  8
0
 10
-0.0929108
 20
0.0087738
 11
-0.0933685
 21
0.00587463
  0
LINE
  8
0
 10
-0.0933685
 20
0.00587463
 11
-0.0936432
 21
0.00292969
  0
LINE
  8
0
 10
-0.0936432
 20
0.00292969
 11
-0.09375
 21
0
  0
LINE
  8
0
 10
-0.09375
 20
0
 11
-0.0936432
 21
-0.00292969
  0
LINE
  8
0
 10
-0.0936432
 20
-0.00292969
 11
-0.0933685
 21
-0.00587463
  0
LINE
  8
0
 10
-0.0933685
 20
-0.00587463
 11
-0.0929108
 21
-0.0087738
  0
LINE
  8
0
 10
-0.0929108
 20
-0.0087738
 11
-0.0922699
 21
-0.0116425
  0
LINE
  8
0
 10
-0.0922699
 20
-0.0116425
 11
-0.0914459
 21
-0.0144806
  0
LINE
  8
0
 10
-0.0914459
 20
-0.0144806
 11
-0.0904541
 21
-0.0172424
  0
LINE
  8
0
 10
-0.0904541
 20
-0.0172424
 11
-0.0892792
 21
-0.0199432
  0
LINE
  8
0
 10
-0.0892792
 20
-0.0199432
 11
-0.0879517
 21
-0.0225677
  0
LINE
  8
0
 10
-0.0879517
 20
-0.0225677
 11
-0.086441
 21
-0.025116
  0
LINE
  8
0
 10
-0.086441
 20
-0.025116
 11
-0.0847931
 21
-0.0275421
  0
LINE
  8
0
 10
-0.0847931
 20
-0.0275421
 11
-0.0829926
 21
-0.0298767
  0
LINE
  8
0
 10
-0.0829926
 20
-0.0298767
 11
-0.0810394
 21
-0.032074
  0
LINE
  8
0
 10
-0.0810394
 20
-0.032074
 11
-0.078949
 21
-0.0341644
  0
LINE
  8
0
 10
-0.078949
 20
-0.0341644
 11
-0.0767517
 21
-0.0361176
  0
LINE
  8
0
 10
-0.0767517
 20
-0.0361176
 11
-0.0744171
 21
-0.0379181
  0
LINE
  8
0
 10
-0.0744171
 20
-0.0379181
 11
-0.071991
 21
-0.039566
  0
LINE
  8
0
 10
-0.071991
 20
-0.039566
 11
-0.0694427
 21
-0.0410767
  0
LINE
  8
0
 10
-0.0694427
 20
-0.0410767
 11
-0.0668182
 21
-0.0424042
  0
LINE
  8
0
 10
-0.0668182
 20
-0.0424042
 11
-0.0641174
 21
-0.0435791
  0
LINE
  8
0
 10
-0.0641174
 20
-0.0435791
 11
-0.0613556
 21
-0.0445709
  0
LINE
  8
0
 10
-0.0613556
 20
-0.0445709
 11
-0.0585175
 21
-0.0453949
  0
LINE
  8
0
 10
-0.0585175
 20
-0.0453949
 11
-0.0556488
 21
-0.0460358
  0
LINE
  8
0
 10
-0.0556488
 20
-0.0460358
 11
-0.0527496
 21
-0.0464935
  0
LINE
  8
0
 10
-0.0527496
 20
-0.0464935
 11
-0.0498047
 21
-0.0467682
  0
LINE
  8
0
 10
-0.0498047
 20
-0.0467682
 11
-0.046875
 21
-0.046875
  0
LINE
  8
0
 10
-0.046875
 20
-0.046875
 11
-0.0439301
 21
-0.0467682
  0
LINE
  8
0
 10
-0.0488281
 20
-0.0311737
 11
-0.0507812
 21
-0.0309906
  0
LINE
  8
0
 10
-0.0507812
 20
-0.0309906
 11
-0.0527191
 21
-0.0306854
  0
LINE
  8
0
 10
-0.0527191
 20
-0.0306854
 11
-0.0546417
 21
-0.0302582
  0
LINE
  8
0
 10
-0.0546417
 20
-0.0302582
 11
-0.0565186
 21
-0.0297089
  0
LINE
  8
0
 10
-0.0565186
 20
-0.0297089
 11
-0.0583649
 21
-0.0290527
  0
LINE
  8
0
 10
-0.0583649
 20
-0.0290527
 11
-0.0601654
 21
-0.0282745
  0
LINE
  8
0
 10
-0.0601654
 20
-0.0282745
 11
-0.0619202
 21
-0.0273743
  0
LINE
  8
0
 10
-0.0619202
 20
-0.0273743
 11
-0.0636139
 21
-0.0263824
  0
LINE
  8
0
 10
-0.0636139
 20
-0.0263824
 11
-0.0652313
 21
-0.0252686
  0
LINE
  8
0
 10
-0.0652313
 20
-0.0252686
 11
-0.0667877
 21
-0.0240784
  0
LINE
  8
0
 10
-0.0667877
 20
-0.0240784
 11
-0.0682526
 21
-0.0227661
  0
LINE
  8
0
 10
-0.0682526
 20
-0.0227661
 11
-0.0696411
 21
-0.0213776
  0
LINE
  8
0
 10
-0.0696411
 20
-0.0213776
 11
-0.0709534
 21
-0.0199127
  0
LINE
  8
0
 10
-0.0709534
 20
-0.0199127
 11
-0.0721436
 21
-0.0183563
  0
LINE
  8
0
 10
-0.0721436
 20
-0.0183563
 11
-0.0732574
 21
-0.0167389
  0
LINE
  8
0
 10
-0.0732574
 20
-0.0167389
 11
-0.0742493
 21
-0.0150452
  0
LINE
  8
0
 10
-0.0742493
 20
-0.0150452
 11
-0.0751495
 21
-0.0132904
  0
LINE
  8
0
 10
-0.0751495
 20
-0.0132904
 11
-0.0759277
 21
-0.0114899
  0
LINE
  8
0
 10
-0.0759277
 20
-0.0114899
 11
-0.0765839
 21
-0.00964355
  0
LINE
  8
0
 10
-0.0765839
 20
-0.00964355
 11
-0.0771332
 21
-0.00776672
  0
LINE
  8
0
 10
-0.0771332
 20
-0.00776672
 11
-0.0775604
 21
-0.00584412
  0
LINE
  8
0
 10
-0.0775604
 20
-0.00584412
 11
-0.0778656
 21
-0.00390625
  0
LINE
  8
0
 10
-0.0778656
 20
-0.00390625
 11
-0.0780487
 21
-0.00195312
  0
LINE
  8
0
 10
-0.0780487
 20
-0.00195312
 11
-0.078125
 21
0
  0
LINE
  8
0
 10
-0.078125
 20
0
 11
-0.0780487
 21
0.00195312
  0
LINE
  8
0
 10
-0.0780487
 20
0.00195312
 11
-0.0778656
 21
0.00390625
  0
LINE
  8
0
 10
-0.0778656
 20
0.00390625
 11
-0.0775604
 21
0.00584412
  0
LINE
  8
0
 10
-0.0775604
 20
0.00584412
 11
-0.0771332
 21
0.00776672
  0
LINE
  8
0
 10
-0.0771332
 20
0.00776672
 11
-0.0765839
 21
0.00964355
  0
LINE
  8
0
 10
-0.0765839
 20
0.00964355
 11
-0.0759277
 21
0.0114899
  0
LINE
  8
0
 10
-0.0759277
 20
0.0114899
 11
-0.0751495
 21
0.0132904
  0
LINE
  8
0
 10
-0.0751495
 20
0.0132904
 11
-0.0742493
 21
0.0150452
  0
LINE
  8
0
 10
-0.0742493
 20
0.0150452
 11
-0.0732574
 21
0.0167389
  0
LINE
  8
0
 10
-0.0732574
 20
0.0167389
 11
-0.0721436
 21
0.0183563
  0
LINE
  8
0
 10
-0.0721436
 20
0.0183563
 11
-0.0709534
 21
0.0199127
  0
LINE
  8
0
 10
-0.0709534
 20
0.0199127
 11
-0.0696411
 21
0.0213776
  0
LINE
  8
0
 10
-0.0696411
 20
0.0213776
 11
-0.0682526
 21
0.0227661
  0
LINE
  8
0
 10
-0.0682526
 20
0.0227661
 11
-0.0667877
 21
0.0240784
  0
LINE
  8
0
 10
-0.0667877
 20
0.0240784
 11
-0.0652313
 21
0.0252686
  0
LINE
  8
0
 10
-0.0652313
 20
0.0252686
 11
-0.0636139
 21
0.0263824
  0
LINE
  8
0
 10
-0.0636139
 20
0.0263824
 11
-0.0619202
 21
0.0273743
  0
LINE
  8
0
 10
-0.0619202
 20
0.0273743
 11
-0.0601654
 21
0.0282745
  0
LINE
  8
0
 10
-0.0601654
 20
0.0282745
 11
-0.0583649
 21
0.0290527
  0
LINE
  8
0
 10
-0.0583649
 20
0.0290527
 11
-0.0565186
 21
0.0297089
  0
LINE
  8
0
 10
-0.0565186
 20
0.0297089
 11
-0.0546417
 21
0.0302582
  0
LINE
  8
0
 10
-0.0546417
 20
0.0302582
 11
-0.0527191
 21
0.0306854
  0
LINE
  8
0
 10
-0.0527191
 20
0.0306854
 11
-0.0507812
 21
0.0309906
  0
LINE
  8
0
 10
-0.0507812
 20
0.0309906
 11
-0.0488281
 21
0.0311737
  0
LINE
  8
0
 10
-0.0488281
 20
0.0311737
 11
-0.046875
 21
0.03125
  0
LINE
  8
0
 10
-0.046875
 20
0.03125
 11
-0.0449066
 21
0.0311737
  0
LINE
  8
0
 10
-0.0449066
 20
0.0311737
 11
-0.0429535
 21
0.0309906
  0
LINE
  8
0
 10
-0.0429535
 20
0.0309906
 11
-0.0410156
 21
0.0306854
  0
LINE
  8
0
 10
-0.0410156
 20
0.0306854
 11
-0.039093
 21
0.0302582
  0
LINE
  8
0
 10
-0.039093
 20
0.0302582
 11
-0.0372162
 21
0.0297089
  0
LINE
  8
0
 10
-0.0372162
 20
0.0297089
 11
-0.0353699
 21
0.0290527
  0
LINE
  8
0
 10
-0.0353699
 20
0.0290527
 11
-0.0335693
 21
0.0282745
  0
LINE
  8
0
 10
-0.0335693
 20
0.0282745
 11
-0.0318146
 21
0.0273743
  0
LINE
  8
0
 10
-0.0318146
 20
0.0273743
 11
-0.0301208
 21
0.0263824
  0
LINE
  8
0
 10
-0.0301208
 20
0.0263824
 11
-0.0285034
 21
0.0252686
  0
LINE
  8
0
 10
-0.0285034
 20
0.0252686
 11
-0.026947
 21
0.0240784
  0
LINE
  8
0
 10
-0.026947
 20
0.0240784
 11
-0.0254822
 21
0.0227661
  0
LINE
  8
0
 10
-0.0254822
 20
0.0227661
 11
-0.0240936
 21
0.0213776
  0
LINE
  8
0
 10
-0.0240936
 20
0.0213776
 11
-0.0227966
 21
0.0199127
  0
LINE
  8
0
 10
-0.0227966
 20
0.0199127
 11
-0.0215912
 21
0.0183563
  0
LINE
  8
0
 10
-0.0215912
 20
0.0183563
 11
-0.0204773
 21
0.0167389
  0
LINE
  8
0
 10
-0.0204773
 20
0.0167389
 11
-0.0194855
 21
0.0150452
  0
LINE
  8
0
 10
-0.0194855
 20
0.0150452
 11
-0.0185852
 21
0.0132904
  0
LINE
  8
0
 10
-0.0185852
 20
0.0132904
 11
-0.017807
 21
0.0114899
  0
LINE
  8
0
 10
-0.017807
 20
0.0114899
 11
-0.0171509
 21
0.00964355
  0
LINE
  8
0
 10
-0.0171509
 20
0.00964355
 11
-0.0166016
 21
0.00776672
  0
LINE
  8
0
 10
-0.0166016
 20
0.00776672
 11
-0.0161743
 21
0.00584412
  0
LINE
  8
0
 10
-0.0161743
 20
0.00584412
 11
-0.0158691
 21
0.00390625
  0
LINE
  8
0
 10
-0.0158691
 20
0.00390625
 11
-0.015686
 21
0.00195312
  0
LINE
  8
0
 10
-0.015686
 20
0.00195312
 11
-0.015625
 21
0
  0
LINE
  8
0
 10
-0.015625
 20
0
 11
-0.015686
 21
-0.00195312
  0
LINE
  8
0
 10
-0.015686
 20
-0.00195312
 11
-0.0158691
 21
-0.00390625
  0
LINE
  8
0
 10
-0.0158691
 20
-0.00390625
 11
-0.0161743
 21
-0.00584412
  0
LINE
  8
0
 10
-0.0161743
 20
-0.00584412
 11
-0.0166016
 21
-0.00776672
  0
LINE
  8
0
 10
-0.0166016
 20
-0.00776672
 11
-0.0171509
 21
-0.00964355
  0
LINE
  8
0
 10
-0.0171509
 20
-0.00964355
 11
-0.017807
 21
-0.0114899
  0
LINE
  8
0
 10
-0.017807
 20
-0.0114899
 11
-0.0185852
 21
-0.0132904
  0
LINE
  8
0
 10
-0.0185852
 20
-0.0132904
 11
-0.0194855
 21
-0.0150452
  0
LINE
  8
0
 10
-0.0194855
 20
-0.0150452
 11
-0.0204773
 21
-0.0167389
  0
LINE
  8
0
 10
-0.0204773
 20
-0.0167389
 11
-0.0215912
 21
-0.0183563
  0
LINE
  8
0
 10
-0.0215912
 20
-0.0183563
 11
-0.0227966
 21
-0.0199127
  0
LINE
  8
0
 10
-0.0227966
 20
-0.0199127
 11
-0.0240936
 21
-0.0213776
  0
LINE
  8
0
 10
-0.0240936
 20
-0.0213776
 11
-0.0254822
 21
-0.0227661
  0
LINE
  8
0
 10
-0.0254822
 20
-0.0227661
 11
-0.026947
 21
-0.0240784
  0
LINE
  8
0
 10
-0.026947
 20
-0.0240784
 11
-0.0285034
 21
-0.0252686
  0
LINE
  8
0
 10
-0.0285034
 20
-0.0252686
 11
-0.0301208
 21
-0.0263824
  0
LINE
  8
0
 10
-0.0301208
 20
-0.0263824
 11
-0.0318146
 21
-0.0273743
  0
LINE
  8
0
 10
-0.0318146
 20
-0.0273743
 11
-0.0335693
 21
-0.0282745
  0
LINE
  8
0
 10
-0.0335693
 20
-0.0282745
 11
-0.0353699
 21
-0.0290527
  0
LINE
  8
0
 10
-0.0353699
 20
-0.0290527
 11
-0.0372162
 21
-0.0297089
  0
LINE
  8
0
 10
-0.0372162
 20
-0.0297089
 11
-0.039093
 21
-0.0302582
  0
LINE
  8
0
 10
-0.039093
 20
-0.0302582
 11
-0.0410156
 21
-0.0306854
  0
LINE
  8
0
 10
-0.0410156
 20
-0.0306854
 11
-0.0429535
 21
-0.0309906
  0
LINE
  8
0
 10
-0.0429535
 20
-0.0309906
 11
-0.0449066
 21
-0.0311737
  0
LINE
  8
0
 10
-0.0449066
 20
-0.0311737
 11
-0.046875
 21
-0.03125
  0
LINE
  8
0
 10
-0.046875
 20
-0.03125
 11
-0.0488281
 21
-0.0311737
  0
LINE
  8
0
 10
5.0498
 20
-0.0467682
 11
5.05275
 21
-0.0464935
  0
LINE
  8
0
 10
5.05275
 20
-0.0464935
 11
5.05565
 21
-0.0460358
  0
LINE
  8
0
 10
5.05565
 20
-0.0460358
 11
5.05852
 21
-0.0453949
  0
LINE
  8
0
 10
5.05852
 20
-0.0453949
 11
5.06136
 21
-0.0445709
  0
LINE
  8
0
 10
5.06136
 20
-0.0445709
 11
5.06412
 21
-0.0435791
  0
LINE
  8
0
 10
5.06412
 20
-0.0435791
 11
5.06682
 21
-0.0424042
  0
LINE
  8
0
 10
5.06682
 20
-0.0424042
 11
5.06944
 21
-0.0410767
  0
LINE
  8
0
 10
5.06944
 20
-0.0410767
 11
5.07199
 21
-0.039566
  0
LINE
  8
0
 10
5.07199
 20
-0.039566
 11
5.07442
 21
-0.0379181
  0
LINE
  8
0
 10
5.07442
 20
-0.0379181
 11
5.07675
 21
-0.0361176
  0
LINE
  8
0
 10
5.07675
 20
-0.0361176
 11
5.07895
 21
-0.0341644
  0
LINE
  8
0
 10
5.07895
 20
-0.0341644
 11
5.08104
 21
-0.032074
  0
LINE
  8
0
 10
5.08104
 20
-0.032074
 11
5.08299
 21
-0.0298767
  0
LINE
  8
0
 10
5.08299
 20
-0.0298767
 11
5.08479
 21
-0.0275421
  0
LINE
  8
0
 10
5.08479
 20
-0.0275421
 11
5.08644
 21
-0.025116
  0
LINE
  8
0
 10
5.08644
 20
-0.025116
 11
5.08795
 21
-0.0225677
  0
LINE
  8
0
 10
5.08795
 20
-0.0225677
 11
5.08928
 21
-0.0199432
  0
LINE
  8
0
 10
5.08928
 20
-0.0199432
 11
5.09045
 21
-0.0172424
  0
LINE
  8
0
 10
5.09045
 20
-0.0172424
 11
5.09145
 21
-0.0144806
  0
LINE
  8
0
 10
5.09145
 20
-0.0144806
 11
5.09227
 21
-0.0116425
  0
LINE
  8
0
 10
5.09227
 20
-0.0116425
 11
5.09291
 21
-0.0087738
  0
LINE
  8
0
 10
5.09291
 20
-0.0087738
 11
5.09337
 21
-0.00587463
  0
LINE
  8
0
 10
5.09337
 20
-0.00587463
 11
5.09364
 21
-0.00292969
  0
LINE
  8
0
 10
5.09364
 20
-0.00292969
 11
5.09375
 21
0
  0
LINE
  8
0
 10
5.09375
 20
0
 11
5.09364
 21
0.00292969
  0
LINE
  8
0
 10
5.09364
 20
0.00292969
 11
5.09337
 21
0.00587463
  0
LINE
  8
0
 10
5.09337
 20
0.00587463
 11
5.09291
 21
0.0087738
  0
LINE
  8
0
 10
5.09291
 20
0.0087738
 11
5.09227
 21
0.0116425
  0
LINE
  8
0
 10
5.09227
 20
0.0116425
 11
5.09145
 21
0.0144806
  0
LINE
  8
0
 10
5.09145
 20
0.0144806
 11
5.09045
 21
0.0172424
  0
LINE
  8
0
 10
5.09045
 20
0.0172424
 11
5.08928
 21
0.0199432
  0
LINE
  8
0
 10
5.08928
 20
0.0199432
 11
5.08795
 21
0.0225677
  0
LINE
  8
0
 10
5.08795
 20
0.0225677
 11
5.08644
 21
0.025116
  0
LINE
  8
0
 10
5.08644
 20
0.025116
 11
5.08479
 21
0.0275421
  0
LINE
  8
0
 10
5.08479
 20
0.0275421
 11
5.08299
 21
0.0298767
  0
LINE
  8
0
 10
5.08299
 20
0.0298767
 11
5.08104
 21
0.032074
  0
LINE
  8
0
 10
5.08104
 20
0.032074
 11
5.07895
 21
0.0341644
  0
LINE
  8
0
 10
5.07895
 20
0.0341644
 11
5.07675
 21
0.0361176
  0
LINE
  8
0
 10
5.07675
 20
0.0361176
 11
5.07442
 21
0.0379181
  0
LINE
  8
0
 10
5.07442
 20
0.0379181
 11
5.07199
 21
0.039566
  0
LINE
  8
0
 10
5.07199
 20
0.039566
 11
5.06944
 21
0.0410767
  0
LINE
  8
0
 10
5.06944
 20
0.0410767
 11
5.06682
 21
0.0424042
  0
LINE
  8
0
 10
5.06682
 20
0.0424042
 11
5.06412
 21
0.0435791
  0
LINE
  8
0
 10
5.06412
 20
0.0435791
 11
5.06136
 21
0.0445709
  0
LINE
  8
0
 10
5.06136
 20
0.0445709
 11
5.05852
 21
0.0453949
  0
LINE
  8
0
 10
5.05852
 20
0.0453949
 11
5.05565
 21
0.0460358
  0
LINE
  8
0
 10
5.05565
 20
0.0460358
 11
5.05275
 21
0.0464935
  0
LINE
  8
0
 10
5.05275
 20
0.0464935
 11
5.0498
 21
0.0467682
  0
LINE
  8
0
 10
5.0498
 20
0.0467682
 11
5.04688
 21
0.046875
  0
LINE
  8
0
 10
5.04688
 20
0.046875
 11
5.04393
 21
0.0467682
  0
LINE
  8
0
 10
5.04393
 20
0.0467682
 11
5.041
 21
0.0464935
  0
LINE
  8
0
 10
5.041
 20
0.0464935
 11
5.03809
 21
0.0460358
  0
LINE
  8
0
 10
5.03809
 20
0.0460358
 11
5.03522
 21
0.0453949
  0
LINE
  8
0
 10
5.03522
 20
0.0453949
 11
5.03238
 21
0.0445709
  0
LINE
  8
0
 10
5.03238
 20
0.0445709
 11
5.02962
 21
0.0435791
  0
LINE
  8
0
 10
5.02962
 20
0.0435791
 11
5.02692
 21
0.0424042
  0
LINE
  8
0
 10
5.02692
 20
0.0424042
 11
5.02429
 21
0.0410767
  0
LINE
  8
0
 10
5.02429
 20
0.0410767
 11
5.02176
 21
0.039566
  0
LINE
  8
0
 10
5.02176
 20
0.039566
 11
5.01932
 21
0.0379181
  0
LINE
  8
0
 10
5.01932
 20
0.0379181
 11
5.01698
 21
0.0361176
  0
LINE
  8
0
 10
5.01698
 20
0.0361176
 11
5.01479
 21
0.0341644
  0
LINE
  8
0
 10
5.01479
 20
0.0341644
 11
5.0127
 21
0.032074
  0
LINE
  8
0
 10
5.0127
 20
0.032074
 11
5.01076
 21
0.0298767
  0
LINE
  8
0
 10
5.01076
 20
0.0298767
 11
5.00894
 21
0.0275421
  0
LINE
  8
0
 10
5.00894
 20
0.0275421
 11
5.00729
 21
0.025116
  0
LINE
  8
0
 10
5.00729
 20
0.025116
 11
5.0058
 21
0.0225677
  0
LINE
  8
0
 10
5.0058
 20
0.0225677
 11
5.00446
 21
0.0199432
  0
LINE
  8
0
 10
5.00446
 20
0.0199432
 11
5.00328
 21
0.0172424
  0
LINE
  8
0
 10
5.00328
 20
0.0172424
 11
5.00229
 21
0.0144806
  0
LINE
  8
0
 10
5.00229
 20
0.0144806
 11
5.00146
 21
0.0116425
  0
LINE
  8
0
 10
5.00146
 20
0.0116425
 11
5.00082
 21
0.0087738
  0
LINE
  8
0
 10
5.00082
 20
0.0087738
 11
5.00037
 21
0.00587463
  0
LINE
  8
0
 10
5.00037
 20
0.00587463
 11
5.00009
 21
0.00292969
  0
LINE
  8
0
 10
5.00009
 20
0.00292969
 11
5
 21
0
  0
LINE
  8
0
 10
5
 20
0
 11
5.00009
 21
-0.00292969
  0
LINE
  8
0
 10
5.00009
 20
-0.00292969
 11
5.00037
 21
-0.00587463
  0
LINE
  8
0
 10
5.00037
 20
-0.00587463
 11
5.00082
 21
-0.0087738
  0
LINE
  8
0
 10
5.00082
 20
-0.0087738
 11
5.00146
 21
-0.0116425
  0
LINE
  8
0
 10
5.00146
 20
-0.0116425
 11
5.00229
 21
-0.0144806
  0
LINE
  8
0
 10
5.00229
 20
-0.0144806
 11
5.00328
 21
-0.0172424
  0
LINE
  8
0
 10
5.00328
 20
-0.0172424
 11
5.00446
 21
-0.0199432
  0
LINE
  8
0
 10
5.00446
 20
-0.0199432
 11
5.0058
 21
-0.0225677
  0
LINE
  8
0
 10
5.0058
 20
-0.0225677
 11
5.00729
 21
-0.025116
  0
LINE
  8
0
 10
5.00729
 20
-0.025116
 11
5.00894
 21
-0.0275421
  0
LINE
  8
0
 10
5.00894
 20
-0.0275421
 11
5.01076
 21
-0.0298767
  0
LINE
  8
0
 10
5.01076
 20
-0.0298767
 11
5.0127
 21
-0.032074
  0
LINE
  8
0
 10
5.0127
 20
-0.032074
 11
5.01479
 21
-0.0341644
  0
LINE
  8
0
 10
5.01479
 20
-0.0341644
 11
5.01698
 21
-0.0361176
  0
LINE
  8
0
 10
5.01698
 20
-0.0361176
 11
5.01932
 21
-0.0379181
  0
LINE
  8
0
 10
5.01932
 20
-0.0379181
 11
5.02176
 21
-0.039566
  0
LINE
  8
0
 10
5.02176
 20
-0.039566
 11
5.02429
 21
-0.0410767
  0
LINE
  8
0
 10
5.02429
 20
-0.0410767
 11
5.02692
 21
-0.0424042
  0
LINE
  8
0
 10
5.02692
 20
-0.0424042
 11
5.02962
 21
-0.0435791
  0
LINE
  8
0
 10
5.02962
 20
-0.0435791
 11
5.03238
 21
-0.0445709
  0
LINE
  8
0
 10
5.03238
 20
-0.0445709
 11
5.03522
 21
-0.0453949
  0
LINE
  8
0
 10
5.03522
 20
-0.0453949
 11
5.03809
 21
-0.0460358
  0
LINE
  8
0
 10
5.03809
 20
-0.0460358
 11
5.041
 21
-0.0464935
  0
LINE
  8
0
 10
5.041
 20
-0.0464935
 11
5.04393
 21
-0.0467682
  0
LINE
  8
0
 10
5.04393
 20
-0.0467682
 11
5.04688
 21
-0.046875
  0
LINE
  8
0
 10
5.04688
 20
-0.046875
 11
5.0498
 21
-0.0467682
  0
LINE
  8
0
 10
5.04491
 20
-0.0311737
 11
5.04295
 21
-0.0309906
  0
LINE
  8
0
 10
5.04295
 20
-0.0309906
 11
5.04102
 21
-0.0306854
  0
LINE
  8
0
 10
5.04102
 20
-0.0306854
 11
5.03909
 21
-0.0302582
  0
LINE
  8
0
 10
5.03909
 20
-0.0302582
 11
5.03722
 21
-0.0297089
  0
LINE
  8
0
 10
5.03722
 20
-0.0297089
 11
5.03537
 21
-0.0290527
  0
LINE
  8
0
 10
5.03537
 20
-0.0290527
 11
5.03357
 21
-0.0282745
  0
LINE
  8
0
 10
5.03357
 20
-0.0282745
 11
5.03181
 21
-0.0273743
  0
LINE
  8
0
 10
5.03181
 20
-0.0273743
 11
5.03012
 21
-0.0263824
  0
LINE
  8
0
 10
5.03012
 20
-0.0263824
 11
5.0285
 21
-0.0252686
  0
LINE
  8
0
 10
5.0285
 20
-0.0252686
 11
5.02695
 21
-0.0240784
  0
LINE
  8
0
 10
5.02695
 20
-0.0240784
 11
5.02548
 21
-0.0227661
  0
LINE
  8
0
 10
5.02548
 20
-0.0227661
 11
5.02409
 21
-0.0213776
  0
LINE
  8
0
 10
5.02409
 20
-0.0213776
 11
5.0228
 21
-0.0199127
  0
LINE
  8
0
 10
5.0228
 20
-0.0199127
 11
5.02159
 21
-0.0183563
  0
LINE
  8
0
 10
5.02159
 20
-0.0183563
 11
5.02048
 21
-0.0167389
  0
LINE
  8
0
 10
5.02048
 20
-0.0167389
 11
5.01949
 21
-0.0150452
  0
LINE
  8
0
 10
5.01949
 20
-0.0150452
 11
5.01859
 21
-0.0132904
  0
LINE
  8
0
 10
5.01859
 20
-0.0132904
 11
5.01781
 21
-0.0114899
  0
LINE
  8
0
 10
5.01781
 20
-0.0114899
 11
5.01715
 21
-0.00964355
  0
LINE
  8
0
 10
5.01715
 20
-0.00964355
 11
5.0166
 21
-0.00776672
  0
LINE
  8
0
 10
5.0166
 20
-0.00776672
 11
5.01617
 21
-0.00584412
  0
LINE
  8
0
 10
5.01617
 20
-0.00584412
 11
5.01587
 21
-0.00390625
  0
LINE
  8
0
 10
5.01587
 20
-0.00390625
 11
5.01569
 21
-0.00195312
  0
LINE
  8
0
 10
5.01569
 20
-0.00195312
 11
5.01562
 21
0
  0
LINE
  8
0
 10
5.01562
 20
0
 11
5.01569
 21
0.00195312
  0
LINE
  8
0
 10
5.01569
 20
0.00195312
 11
5.01587
 21
0.00390625
  0
LINE
  8
0
 10
5.01587
 20
0.00390625
 11
5.01617
 21
0.00584412
  0
LINE
  8
0
 10
5.01617
 20
0.00584412
 11
5.0166
 21
0.00776672
  0
LINE
  8
0
 10
5.0166
 20
0.00776672
 11
5.01715
 21
0.00964355
  0
LINE
  8
0
 10
5.01715
 20
0.00964355
 11
5.01781
 21
0.0114899
  0
LINE
  8
0
 10
5.01781
 20
0.0114899
 11
5.01859
 21
0.0132904
  0
LINE
  8
0
 10
5.01859
 20
0.0132904
 11
5.01949
 21
0.0150452
  0
LINE
  8
0
 10
5.01949
 20
0.0150452
 11
5.02048
 21
0.0167389
  0
LINE
  8
0
 10
5.02048
 20
0.0167389
 11
5.02159
 21
0.0183563
  0
LINE
  8
0
 10
5.02159
 20
0.0183563
 11
5.0228
 21
0.0199127
  0
LINE
  8
0
 10
5.0228
 20
0.0199127
 11
5.02409
 21
0.0213776
  0
LINE
  8
0
 10
5.02409
 20
0.0213776
 11
5.02548
 21
0.0227661
  0
LINE
  8
0
 10
5.02548
 20
0.0227661
 11
5.02695
 21
0.0240784
  0
LINE
  8
0
 10
5.02695
 20
0.0240784
 11
5.0285
 21
0.0252686
  0
LINE
  8
0
 10
5.0285
 20
0.0252686
 11
5.03012
 21
0.0263824
  0
LINE
  8
0
 10
5.03012
 20
0.0263824
 11
5.03181
 21
0.0273743
  0
LINE
  8
0
 10
5.03181
 20
0.0273743
 11
5.03357
 21
0.0282745
  0
LINE
  8
0
 10
5.03357
 20
0.0282745
 11
5.03537
 21
0.0290527
  0
LINE
  8
0
 10
5.03537
 20
0.0290527
 11
5.03722
 21
0.0297089
  0
LINE
  8
0
 10
5.03722
 20
0.0297089
 11
5.03909
 21
0.0302582
  0
LINE
  8
0
 10
5.03909
 20
0.0302582
 11
5.04102
 21
0.0306854
  0
LINE
  8
0
 10
5.04102
 20
0.0306854
 11
5.04295
 21
0.0309906
  0
LINE
  8
0
 10
5.04295
 20
0.0309906
 11
5.04491
 21
0.0311737
  0
LINE
  8
0
 10
5.04491
 20
0.0311737
 11
5.04688
 21
0.03125
  0
LINE
  8
0
 10
5.04688
 20
0.03125
 11
5.04883
 21
0.0311737
  0
LINE
  8
0
 10
5.04883
 20
0.0311737
 11
5.05078
 21
0.0309906
  0
LINE
  8
0
 10
5.05078
 20
0.0309906
 11
5.05272
 21
0.0306854
  0
LINE
  8
0
 10
5.05272
 20
0.0306854
 11
5.05464
 21
0.0302582
  0
LINE
  8
0
 10
5.05464
 20
0.0302582
 11
5.05652
 21
0.0297089
  0
LINE
  8
0
 10
5.05652
 20
0.0297089
 11
5.05836
 21
0.0290527
  0
LINE
  8
0
 10
5.05836
 20
0.0290527
 11
5.06017
 21
0.0282745
  0
LINE
  8
0
 10
5.06017
 20
0.0282745
 11
5.06192
 21
0.0273743
  0
LINE
  8
0
 10
5.06192
 20
0.0273743
 11
5.06361
 21
0.0263824
  0
LINE
  8
0
 10
5.06361
 20
0.0263824
 11
5.06523
 21
0.0252686
  0
LINE
  8
0
 10
5.06523
 20
0.0252686
 11
5.06679
 21
0.0240784
  0
LINE
  8
0
 10
5.06679
 20
0.0240784
 11
5.06825
 21
0.0227661
  0
LINE
  8
0
 10
5.06825
 20
0.0227661
 11
5.06964
 21
0.0213776
  0
LINE
  8
0
 10
5.06964
 20
0.0213776
 11
5.07095
 21
0.0199127
  0
LINE
  8
0
 10
5.07095
 20
0.0199127
 11
5.07214
 21
0.0183563
  0
LINE
  8
0
 10
5.07214
 20
0.0183563
 11
5.07326
 21
0.0167389
  0
LINE
  8
0
 10
5.07326
 20
0.0167389
 11
5.07425
 21
0.0150452
  0
LINE
  8
0
 10
5.07425
 20
0.0150452
 11
5.07515
 21
0.0132904
  0
LINE
  8
0
 10
5.07515
 20
0.0132904
 11
5.07593
 21
0.0114899
  0
LINE
  8
0
 10
5.07593
 20
0.0114899
 11
5.07658
 21
0.00964355
  0
LINE
  8
0
 10
5.07658
 20
0.00964355
 11
5.07713
 21
0.00776672
  0
LINE
  8
0
 10
5.07713
 20
0.00776672
 11
5.07756
 21
0.00584412
  0
LINE
  8
0
 10
5.07756
 20
0.00584412
 11
5.07787
 21
0.00390625
  0
LINE
  8
0
 10
5.07787
 20
0.00390625
 11
5.07805
 21
0.00195312
  0
LINE
  8
0
 10
5.07805
 20
0.00195312
 11
5.07812
 21
0
  0
LINE
  8
0
 10
5.07812
 20
0
 11
5.07805
 21
-0.00195312
  0
LINE
  8
0
 10
5.07805
 20
-0.00195312
 11
5.07787
 21
-0.00390625
  0
LINE
  8
0
 10
5.07787
 20
-0.00390625
 11
5.07756
 21
-0.00584412
  0
LINE
  8
0
 10
5.07756
 20
-0.00584412
 11
5.07713
 21
-0.00776672
  0
LINE
  8
0
 10
5.07713
 20
-0.00776672
 11
5.07658
 21
-0.00964355
  0
LINE
  8
0
 10
5.07658
 20
-0.00964355
 11
5.07593
 21
-0.0114899
  0
LINE
  8
0
 10
5.07593
 20
-0.0114899
 11
5.07515
 21
-0.0132904
  0
LINE
  8
0
 10
5.07515
 20
-0.0132904
 11
5.07425
 21
-0.0150452
  0
LINE
  8
0
 10
5.07425
 20
-0.0150452
 11
5.07326
 21
-0.0167389
  0
LINE
  8
0
 10
5.07326
 20
-0.0167389
 11
5.07214
 21
-0.0183563
  0
LINE
  8
0
 10
5.07214
 20
-0.0183563
 11
5.07095
 21
-0.0199127
  0
LINE
  8
0
 10
5.07095
 20
-0.0199127
 11
5.06964
 21
-0.0213776
  0
LINE
  8
0
 10
5.06964
 20
-0.0213776
 11
5.06825
 21
-0.0227661
  0
LINE
  8
0
 10
5.06825
 20
-0.0227661
 11
5.06679
 21
-0.0240784
  0
LINE
  8
0
 10
5.06679
 20
-0.0240784
 11
5.06523
 21
-0.0252686
  0
LINE
  8
0
 10
5.06523
 20
-0.0252686
 11
5.06361
 21
-0.0263824
  0
LINE
  8
0
 10
5.06361
 20
-0.0263824
 11
5.06192
 21
-0.0273743
  0
LINE
  8
0
 10
5.06192
 20
-0.0273743
 11
5.06017
 21
-0.0282745
  0
LINE
  8
0
 10
5.06017
 20
-0.0282745
 11
5.05836
 21
-0.0290527
  0
LINE
  8
0
 10
5.05836
 20
-0.0290527
 11
5.05652
 21
-0.0297089
  0
LINE
  8
0
 10
5.05652
 20
-0.0297089
 11
5.05464
 21
-0.0302582
  0
LINE
  8
0
 10
5.05464
 20
-0.0302582
 11
5.05272
 21
-0.0306854
  0
LINE
  8
0
 10
5.05272
 20
-0.0306854
 11
5.05078
 21
-0.0309906
  0
LINE
  8
0
 10
5.05078
 20
-0.0309906
 11
5.04883
 21
-0.0311737
  0
LINE
  8
0
 10
5.04883
 20
-0.0311737
 11
5.04688
 21
-0.03125
  0
LINE
  8
0
 10
5.04688
 20
-0.03125
 11
5.04491
 21
-0.0311737
  0
ENDSEC
  0
SECTION
  2
OBJECTS
  0
DICTIONARY
  0
ENDSEC
  0
EOF
